<svg width="375" height="328" viewBox="0 0 375 328" fill="none" xmlns="http://www.w3.org/2000/svg">
<path d="M392.407 318.741C451.001 299.86 434.139 254.14 418.384 233.64C420.12 249.455 401.111 265.546 369.05 266.843C311.134 269.186 319.165 342.342 392.407 318.741Z" fill="#E2EDFF" fill-opacity="0.3"/>
<path d="M90.2516 52.2101C59.525 90.2612 14.4505 93.5053 -4.24587 90.371L-4.24609 316.257C87.283 336.218 281.421 326.874 332.032 239.069C382.644 151.264 342.267 57.8871 286.122 19.5921C229.978 -18.7029 128.66 4.64623 90.2516 52.2101Z" fill="#E2EDFF"/>
<path d="M43.6479 71.6217C17.3661 87.1302 8.32162 65.8522 7.08459 53.2746C11.6219 59.1166 23.3841 57.3612 34.8316 45.9056C55.5107 25.2119 76.5001 52.2361 43.6479 71.6217Z" fill="#E2EDFF"/>
<path d="M110.506 195.294C106.223 195.294 102.036 194.085 98.4745 191.819C94.9131 189.553 92.1373 186.332 90.4981 182.564C88.859 178.796 88.4301 174.65 89.2657 170.65C90.1014 166.65 92.164 162.975 95.1927 160.092C98.2215 157.208 102.08 155.244 106.281 154.448C110.482 153.652 114.837 154.061 118.794 155.621C122.751 157.182 126.134 159.825 128.513 163.216C130.893 166.608 132.163 170.594 132.163 174.673C132.163 180.142 129.881 185.387 125.82 189.254C121.759 193.121 116.25 195.294 110.506 195.294ZM110.506 155.01C106.417 155.009 102.42 156.163 99.0192 158.325C95.6187 160.487 92.9681 163.561 91.4024 167.158C89.8368 170.755 89.4266 174.713 90.2236 178.532C91.0206 182.351 92.9891 185.859 95.8801 188.612C98.7711 191.366 102.455 193.241 106.465 194.001C110.476 194.761 114.633 194.372 118.411 192.882C122.188 191.392 125.417 188.869 127.689 185.632C129.961 182.395 131.174 178.589 131.174 174.695C131.168 169.477 128.988 164.475 125.114 160.784C121.24 157.094 115.986 155.018 110.506 155.01Z" fill="white"/>
<path d="M109.417 198.209C109.09 198.209 108.762 198.175 108.434 198.153L108.516 197.239C108.826 197.239 109.142 197.283 109.458 197.295L109.417 198.209ZM112.859 198.125L112.765 197.217C113.081 197.189 113.392 197.15 113.708 197.111L113.837 198.019C113.515 198.064 113.193 198.097 112.859 198.125ZM105.028 197.651C104.706 197.584 104.39 197.506 104.068 197.428L104.319 196.542C104.624 196.62 104.934 196.693 105.238 196.76L105.028 197.651ZM117.22 197.356L116.956 196.47C117.261 196.392 117.542 196.303 117.864 196.208L118.162 197.083L117.22 197.356ZM100.831 196.353C100.526 196.23 100.245 196.102 99.9294 195.968L100.339 195.138C100.626 195.272 100.924 195.394 101.205 195.511L100.831 196.353ZM121.37 195.851L120.948 195.026C121.235 194.893 121.533 194.759 121.791 194.614L122.248 195.422C121.943 195.567 121.651 195.712 121.352 195.851H121.37ZM96.9267 194.358C96.6516 194.185 96.3765 194.006 96.1131 193.8L96.6985 193.053C96.9501 193.232 97.2135 193.405 97.4769 193.566L96.9267 194.358ZM125.157 193.666L124.571 192.925L125.32 192.368L125.906 193.081C125.642 193.287 125.402 193.483 125.139 193.666H125.157ZM93.4499 191.727C93.21 191.51 92.9758 191.292 92.7476 191.064L93.4499 190.428C93.6724 190.646 93.8948 190.858 94.1231 191.064L93.4499 191.727ZM128.464 190.874L127.767 190.244C127.984 190.027 128.194 189.804 128.405 189.576L129.125 190.178C128.903 190.417 128.686 190.646 128.458 190.874H128.464ZM90.5234 188.556C90.3302 188.305 90.1429 188.049 89.938 187.787L90.7399 187.279C90.9155 187.525 91.097 187.776 91.2843 188.015L90.5234 188.556ZM131.203 187.575L130.401 187.073C130.571 186.822 130.74 186.566 130.904 186.31L131.73 186.778C131.56 187.018 131.384 187.302 131.203 187.575ZM88.2465 184.955C88.1001 184.671 87.9655 184.398 87.8309 184.103L88.7147 183.735C88.8435 184.014 88.9723 184.292 89.1069 184.554L88.2465 184.955ZM133.316 183.841L132.432 183.484C132.555 183.205 132.672 182.927 132.783 182.643L133.685 182.966C133.538 183.261 133.415 183.551 133.287 183.841H133.316ZM86.7071 180.998C86.6193 180.697 86.5432 180.397 86.4671 180.09L87.4036 179.878C87.4739 180.174 87.55 180.463 87.6377 180.753L86.7071 180.998ZM134.662 179.817L133.726 179.616C133.796 179.326 133.854 179.031 133.913 178.736L134.861 178.897C134.773 179.215 134.709 179.51 134.633 179.817H134.662ZM85.9169 176.852C85.8857 176.54 85.8623 176.228 85.8467 175.916L86.7773 175.871C86.7773 176.172 86.8007 176.473 86.8476 176.774L85.9169 176.852ZM135.23 175.631L134.27 175.598C134.27 175.297 134.27 174.996 134.27 174.695V174.6H135.236V174.689C135.224 175.013 135.218 175.314 135.201 175.631H135.23ZM86.8359 172.711L85.8759 172.633C85.8759 172.321 85.9403 172.009 85.9813 171.702L86.9354 171.814C86.9003 172.115 86.8651 172.41 86.8359 172.711ZM134.018 171.457C133.971 171.162 133.925 170.861 133.866 170.571L134.814 170.404C134.873 170.71 134.926 171.017 134.972 171.329L134.018 171.457ZM87.5968 168.721L86.6661 168.481C86.7559 168.18 86.8495 167.879 86.9471 167.578L87.866 167.857C87.7548 168.141 87.667 168.431 87.5968 168.721ZM133.041 167.511C132.935 167.221 132.83 166.954 132.719 166.658L133.62 166.335C133.737 166.625 133.849 166.92 133.954 167.216L133.041 167.511ZM89.0718 164.92L88.1821 164.529C88.3226 164.245 88.4689 163.972 88.6269 163.688L89.4756 164.117C89.3527 164.385 89.2064 164.652 89.0718 164.925V164.92ZM131.332 163.805C131.179 163.543 131.021 163.281 130.858 163.025L131.683 162.551C131.853 162.818 132.016 163.108 132.175 163.365L131.332 163.805ZM91.2492 161.442L90.4707 160.885C90.6638 160.634 90.8628 160.383 91.056 160.138L91.8111 160.695C91.6296 160.957 91.4365 161.197 91.2492 161.442ZM128.955 160.444C128.756 160.21 128.561 159.982 128.37 159.759L129.096 159.151C129.312 159.385 129.523 159.625 129.728 159.865L128.955 160.444ZM94.0353 158.382L93.368 157.719C93.608 157.502 93.848 157.29 94.0938 157.084L94.7318 157.769C94.5094 157.97 94.2752 158.17 94.0353 158.382ZM125.976 157.541C125.736 157.34 125.49 157.15 125.244 156.983L125.83 156.264C126.087 156.459 126.339 156.654 126.591 156.861L125.976 157.541ZM97.354 155.869L96.8214 155.105L97.6525 154.598L98.1559 155.384C97.8984 155.517 97.6291 155.679 97.3657 155.846L97.354 155.869ZM122.523 155.2L121.697 154.76L122.148 153.951C122.441 154.102 122.733 154.252 123.008 154.414L122.523 155.2ZM101.106 153.912L100.725 153.071C101.024 152.948 101.311 152.831 101.633 152.72L101.984 153.572C101.685 153.684 101.393 153.795 101.106 153.912ZM118.665 153.45C118.367 153.344 118.08 153.249 117.764 153.154L118.063 152.279C118.373 152.38 118.689 152.48 118.993 152.586L118.665 153.45ZM105.156 152.653L104.94 151.761C105.256 151.689 105.578 151.627 105.905 151.566L106.081 152.469C105.742 152.525 105.455 152.586 105.156 152.653ZM114.562 152.402C114.252 152.352 113.942 152.307 113.626 152.268L113.749 151.36C114.077 151.399 114.404 151.449 114.726 151.499L114.562 152.402ZM109.371 152.101L109.324 151.187C109.652 151.187 109.979 151.187 110.313 151.159V152.079C109.997 152.079 109.681 152.084 109.365 152.101H109.371Z" fill="white"/>
<path d="M107.188 187.435H113.854V177.86H123.91V171.512H113.854V161.938H107.188V171.512H97.1318V177.86H107.188V187.435Z" fill="white"/>
<path d="M292.359 90.2596C288.75 94.8532 284.147 98.6546 278.861 101.406C273.587 98.6514 268.996 94.8502 265.399 90.2596C260.646 84.274 260.88 74.8997 267.676 72.8711C275.191 70.6418 278.885 81.4037 278.885 81.4037C278.885 81.4037 282.631 70.5637 290.099 72.8711C296.848 74.9945 297.105 84.274 292.359 90.2596Z" fill="white"/>
<path d="M273.564 96.6747L271.515 88.5544L270.175 91.4191H261.904V90.4995H269.554L271.784 85.7121L273.382 92.0433L275.642 78.9238L277.638 89.3012L279.212 84.9708L281.694 92.0656L282.244 90.4995H295.835V91.4135H282.941L281.694 94.9581L279.195 87.8188L277.345 92.9016L275.694 84.2909L273.564 96.6747Z" fill="white"/>
<path d="M278.884 105.258C274.601 105.258 270.414 104.048 266.852 101.782C263.291 99.5166 260.515 96.296 258.876 92.528C257.237 88.76 256.808 84.6138 257.644 80.6137C258.479 76.6136 260.542 72.9393 263.571 70.0554C266.599 67.1715 270.458 65.2075 274.659 64.4119C278.86 63.6162 283.215 64.0246 287.172 65.5853C291.129 67.1461 294.512 69.7891 296.891 73.1802C299.271 76.5714 300.541 80.5582 300.541 84.6367C300.541 90.1057 298.259 95.3508 294.198 99.218C290.136 103.085 284.628 105.258 278.884 105.258ZM278.884 64.9742C274.795 64.9742 270.798 66.1287 267.399 68.2917C263.999 70.4547 261.349 73.529 259.785 77.126C258.22 80.7229 257.81 84.6808 258.608 88.4993C259.406 92.3178 261.375 95.8253 264.266 98.5782C267.157 101.331 270.841 103.206 274.851 103.966C278.861 104.725 283.018 104.335 286.796 102.845C290.573 101.355 293.802 98.8324 296.074 95.5953C298.345 92.3581 299.558 88.5523 299.558 84.659C299.556 79.4377 297.378 74.4305 293.502 70.7375C289.625 67.0444 284.368 64.9675 278.884 64.9631V64.9742Z" fill="white"/>
<path d="M277.825 108.173C277.497 108.173 277.169 108.139 276.841 108.112L276.923 107.198C277.233 107.225 277.549 107.242 277.871 107.259L277.825 108.173ZM281.272 108.089L281.178 107.175C281.494 107.147 281.811 107.114 282.121 107.075L282.25 107.983C281.922 108.022 281.571 108.061 281.243 108.089H281.272ZM273.435 107.616C273.113 107.549 272.797 107.471 272.481 107.393L272.726 106.506C273.031 106.584 273.341 106.657 273.651 106.724L273.435 107.616ZM285.627 107.315L285.363 106.434C285.668 106.35 285.949 106.267 286.271 106.172L286.569 107.047C286.23 107.142 285.914 107.231 285.598 107.32L285.627 107.315ZM269.238 106.317C268.934 106.194 268.653 106.066 268.337 105.932L268.746 105.102L269.613 105.475L269.238 106.317ZM289.783 105.81L289.361 104.985C289.642 104.857 289.946 104.717 290.198 104.578L290.655 105.381C290.321 105.531 290.028 105.676 289.736 105.81H289.783ZM265.334 104.316C265.059 104.143 264.79 103.965 264.52 103.759L265.106 103.012C265.363 103.19 265.621 103.358 265.884 103.525L265.334 104.316ZM293.564 103.625L292.978 102.889C293.236 102.711 293.482 102.527 293.728 102.332L294.313 103.051C294.044 103.252 293.786 103.419 293.517 103.625H293.564ZM261.869 101.691C261.629 101.474 261.395 101.251 261.166 101.028L261.863 100.393C262.081 100.604 262.304 100.816 262.53 101.028L261.869 101.691ZM296.882 100.838L296.186 100.203C296.402 99.9857 296.613 99.7628 296.824 99.5399L297.55 100.142C297.286 100.376 297.064 100.632 296.836 100.838H296.882ZM258.948 98.52C258.755 98.2636 258.568 98.0128 258.363 97.7509L259.159 97.2381C259.334 97.4889 259.516 97.7341 259.703 97.9794L258.948 98.52ZM299.633 97.5279L298.826 97.0263C298.995 96.77 299.165 96.5192 299.329 96.2572L300.154 96.7309C299.938 96.9985 299.762 97.2883 299.587 97.5279H299.633ZM256.671 94.9029C256.525 94.6243 256.39 94.3456 256.261 94.0558L257.139 93.6879C257.268 93.961 257.397 94.2453 257.537 94.5072L256.671 94.9029ZM301.741 93.7883L300.857 93.4316C300.98 93.1585 301.097 92.8743 301.208 92.5956L302.109 92.9188C301.916 93.2198 301.823 93.5152 301.664 93.7994L301.741 93.7883ZM255.138 90.9515C255.05 90.6505 254.968 90.344 254.892 90.043L255.828 89.8312C255.899 90.1266 255.981 90.4164 256.062 90.7063L255.138 90.9515ZM302.993 89.7811L302.051 89.5805C302.121 89.2851 302.185 88.9897 302.238 88.6943L303.186 88.8559C303.151 89.168 303.087 89.4857 302.993 89.7811ZM254.242 86.8105C254.211 86.5022 254.187 86.1901 254.172 85.8742L255.132 85.8297C255.132 86.1306 255.173 86.4316 255.202 86.7269L254.242 86.8105ZM303.578 85.5844L302.613 85.551C302.613 85.25 302.613 84.9491 302.613 84.6481V84.5534H303.578V84.6425C303.578 84.9714 303.578 85.2835 303.578 85.5844ZM255.208 82.664L254.254 82.586C254.254 82.2739 254.312 81.9618 254.353 81.6497L255.313 81.7667C255.278 82.0733 255.243 82.3742 255.214 82.6752L255.208 82.664ZM302.408 81.4212C302.367 81.1202 302.314 80.8249 302.256 80.5295L303.204 80.3623C303.262 80.6688 303.315 80.9809 303.362 81.2874L302.408 81.4212ZM255.975 78.6847L255.044 78.4451C255.132 78.1385 255.225 77.8432 255.325 77.5422L256.244 77.8209C256.168 78.1051 256.045 78.3949 255.963 78.6847H255.975ZM301.43 77.4753C301.331 77.1911 301.22 76.918 301.108 76.6282L302.01 76.2994C302.127 76.5966 302.238 76.892 302.343 77.1855L301.43 77.4753ZM257.461 74.8838L256.595 74.4881C256.736 74.2038 256.888 73.9307 257.04 73.6521L257.889 74.0812C257.731 74.3432 257.59 74.6162 257.45 74.8838H257.461ZM299.721 73.7691C299.569 73.5016 299.411 73.2452 299.247 72.9889L300.072 72.5151C300.242 72.7771 300.406 73.0725 300.564 73.3233L299.721 73.7691ZM259.645 71.4005L258.86 70.8432C259.055 70.5868 259.25 70.336 259.446 70.0908L260.201 70.6481C260.007 70.9156 259.814 71.1608 259.633 71.4005H259.645ZM297.345 70.4084C297.146 70.1744 296.941 69.9459 296.73 69.7174L297.456 69.1154C297.673 69.3495 297.883 69.5836 298.088 69.8288L297.345 70.4084ZM262.437 68.3408L261.769 67.6831C262.009 67.4658 262.249 67.254 262.495 67.0478L263.121 67.75C262.887 67.9339 262.653 68.1345 262.425 68.3408H262.437ZM294.377 67.4992C294.137 67.3041 293.891 67.1146 293.646 66.9419L294.231 66.2229C294.489 66.418 294.74 66.6186 294.992 66.8248L294.377 67.4992ZM265.761 65.8272L265.223 65.0693C265.498 64.8909 265.773 64.7237 266.054 64.5621L266.557 65.3479C266.276 65.4817 266.007 65.6433 265.749 65.8049L265.761 65.8272ZM290.93 65.164C290.661 65.0135 290.385 64.863 290.104 64.7237L290.555 63.9156C290.848 64.0605 291.14 64.2165 291.416 64.3726L290.93 65.164ZM269.513 63.8989L269.133 63.0573C269.429 62.9347 269.733 62.8177 270.046 62.7062L270.391 63.5589C270.063 63.6425 269.776 63.7595 269.484 63.8766L269.513 63.8989ZM287.073 63.4307C286.774 63.3304 286.487 63.2301 286.177 63.1409L286.47 62.2659C286.786 62.3606 287.096 62.461 287.406 62.5724L287.073 63.4307ZM273.552 62.6393L273.335 61.742C273.651 61.6751 273.973 61.6083 274.301 61.5525L274.477 62.4498C274.143 62.4833 273.833 62.5501 273.528 62.617L273.552 62.6393ZM282.958 62.3885C282.648 62.3384 282.337 62.2938 282.021 62.2548L282.144 61.3463C282.472 61.3853 282.8 61.4299 283.122 61.4856L282.958 62.3885ZM277.766 62.0876L277.725 61.168C278.047 61.168 278.375 61.168 278.708 61.168V62.082C278.375 62.043 278.059 62.0485 277.743 62.0653L277.766 62.0876Z" fill="white"/>
<path d="M134.664 81.753C138.649 67.9396 130.119 53.6655 115.612 49.871C101.105 46.0765 86.1137 54.1985 82.1287 68.012C78.1436 81.8254 86.6735 96.0995 101.181 99.894C115.688 103.688 130.679 95.5665 134.664 81.753Z" fill="white"/>
<path d="M119.458 98.3854C132.752 93.225 139.135 78.7802 133.716 66.1222C128.296 53.4642 113.126 47.3863 99.8322 52.5467C86.5384 57.7072 80.1552 72.152 85.5749 84.81C90.9945 97.468 106.165 103.546 119.458 98.3854Z" fill="#DBDBDB"/>
<path d="M109.646 98.6479C123.094 98.6479 133.995 88.2677 133.995 75.4631C133.995 62.6585 123.094 52.2783 109.646 52.2783C96.1984 52.2783 85.2969 62.6585 85.2969 75.4631C85.2969 88.2677 96.1984 98.6479 109.646 98.6479Z" fill="white"/>
<path opacity="0.5" d="M133.451 70.5358C122.33 76.9339 104.133 87.4284 93.948 93.18C91.0691 90.8684 88.7913 87.9537 87.293 84.664L120.96 54.9307C124.113 56.5056 126.865 58.7189 129.022 61.4148C131.18 64.1108 132.692 67.2241 133.451 70.5358Z" fill="white"/>
<path opacity="0.5" d="M133.984 76.2715C133.895 78.8514 133.351 81.3988 132.374 83.8065L102.002 97.4833C100.678 97.0696 99.3951 96.5455 98.168 95.9172C107.34 90.8679 124.103 81.6831 133.984 76.2715Z" fill="white"/>
<path d="M109.88 53.9609H109.412V57.4777H109.88V53.9609Z" fill="#C7C7C7"/>
<path d="M98.5579 56.7234L98.1523 56.9463L99.999 59.9919L100.405 59.7689L98.5579 56.7234Z" fill="#C7C7C7"/>
<path d="M90.2039 64.5123L89.9697 64.8984L93.1683 66.6568L93.4024 66.2707L90.2039 64.5123Z" fill="#C7C7C7"/>
<path d="M90.7578 75.2402H87.0645V75.6861H90.7578V75.2402Z" fill="#C7C7C7"/>
<path d="M93.1683 84.2621L89.9697 86.0205L90.2039 86.4066L93.4024 84.6483L93.1683 84.2621Z" fill="#C7C7C7"/>
<path d="M99.9987 90.9239L98.1543 93.9707L98.56 94.1934L100.404 91.1466L99.9987 90.9239Z" fill="#C7C7C7"/>
<path d="M109.88 93.4531H109.412V96.9699H109.88V93.4531Z" fill="#C7C7C7"/>
<path d="M119.294 90.9284L118.889 91.1514L120.735 94.1969L121.141 93.974L119.294 90.9284Z" fill="#C7C7C7"/>
<path d="M126.396 83.9617L126.162 84.3496L129.375 86.108L129.609 85.7201L126.396 83.9617Z" fill="#C7C7C7"/>
<path d="M132.233 75.2402H128.54V75.6861H132.233V75.2402Z" fill="#C7C7C7"/>
<path d="M129.091 64.5229L125.893 66.2812L126.127 66.6674L129.325 64.909L129.091 64.5229Z" fill="#C7C7C7"/>
<path d="M120.736 56.7263L118.891 59.7725L119.296 59.9953L121.142 56.9491L120.736 56.7263Z" fill="#C7C7C7"/>
<path d="M110.003 55.5495L110.805 77.0289L108.493 77.001L109.377 55.5439L110.003 55.5495Z" fill="#C7C7C7"/>
<path d="M124.051 67.9721L108.88 77.1959L107.773 75.262L123.753 67.4482L124.051 67.9721Z" fill="#A6A6A6"/>
<path d="M110.424 75.4633C110.424 75.6121 110.378 75.7576 110.291 75.8813C110.204 76.0051 110.081 76.1015 109.936 76.1584C109.792 76.2154 109.633 76.2303 109.48 76.2013C109.326 76.1722 109.186 76.1006 109.075 75.9953C108.965 75.8901 108.889 75.7561 108.859 75.6101C108.828 75.4642 108.844 75.3129 108.904 75.1754C108.964 75.0379 109.065 74.9204 109.195 74.8377C109.325 74.7551 109.478 74.7109 109.634 74.7109C109.843 74.7109 110.044 74.7902 110.193 74.9313C110.341 75.0724 110.424 75.2638 110.424 75.4633Z" fill="#C7C7C7"/>
<path d="M96.7225 200.427L89.0432 200.577L85.1449 200.644C83.8397 200.644 82.5286 200.644 81.2233 200.672H80.9658V200.427L80.9307 194.19V193.906H81.2233L88.9729 193.94C91.56 193.94 94.1413 194.001 96.7225 194.029H96.8864V194.179C96.8864 195.233 96.8337 196.286 96.8103 197.328L96.7225 200.427ZM96.7225 200.427L96.6406 197.273C96.6406 196.236 96.5762 195.21 96.5645 194.19L96.7225 194.341C94.1413 194.369 91.56 194.43 88.9729 194.43L81.2233 194.469L81.516 194.19V200.427L81.2526 200.176C82.5286 200.176 83.8046 200.176 85.0864 200.204L88.9378 200.271L96.7225 200.427Z" fill="white"/>
<path d="M88.077 208.291L80.3976 208.441L76.4994 208.508C75.1942 208.508 73.8831 208.508 72.5778 208.536H72.3203V208.291L72.2852 202.065V201.781H72.5778L80.3274 201.815C82.9087 201.815 85.4958 201.876 88.077 201.904H88.2409V202.065C88.2409 203.119 88.1941 204.172 88.1648 205.214L88.077 208.291ZM88.077 208.291L87.9951 205.136C87.9658 204.1 87.9307 203.074 87.919 202.054L88.077 202.205C85.4958 202.233 82.9087 202.294 80.3274 202.294L72.5778 202.327L72.8705 202.054L72.8412 208.291L72.5778 208.04C73.8538 208.04 75.1298 208.04 76.4116 208.04L80.263 208.107L88.077 208.291Z" fill="white"/>
<path d="M246.569 131L238.884 131.157L234.986 131.218C233.686 131.246 232.375 131.218 231.07 131.251H230.812V131L230.783 124.764V124.485H231.076L238.825 124.524C241.407 124.524 243.994 124.586 246.575 124.614H246.739V124.764C246.739 125.823 246.692 126.876 246.663 127.918L246.569 131ZM246.569 131L246.487 127.852C246.487 126.815 246.423 125.784 246.411 124.764L246.569 124.92C243.988 124.92 241.401 125.004 238.82 125.009L231.07 125.043L231.363 124.764L231.328 131L231.07 130.755C232.346 130.755 233.622 130.755 234.898 130.755L238.749 130.817L246.569 131Z" fill="white"/>
<path d="M237.924 138.864L230.238 139.02L226.317 139.087C225.017 139.087 223.706 139.087 222.401 139.12H222.138V138.87V132.633V132.354H222.43L230.18 132.394C232.761 132.394 235.342 132.455 237.93 132.483H238.088V132.633C238.088 133.692 238.035 134.745 238.012 135.788L237.924 138.864ZM237.924 138.864L237.842 135.715C237.812 134.679 237.772 133.647 237.76 132.628L237.924 132.784C235.337 132.812 232.755 132.867 230.174 132.873L222.425 132.906L222.717 132.628L222.682 138.864L222.425 138.619C223.701 138.619 224.976 138.619 226.252 138.647L230.104 138.708L237.924 138.864Z" fill="white"/>
<path d="M229.308 131L221.629 131.157L217.731 131.218C216.426 131.246 215.12 131.218 213.809 131.251H213.552V131L213.517 124.764V124.485H213.809L221.559 124.524C224.146 124.524 226.727 124.586 229.308 124.614H229.472V124.764C229.472 125.823 229.42 126.876 229.396 127.918L229.308 131ZM229.308 131L229.227 127.852C229.227 126.815 229.162 125.784 229.15 124.764L229.308 124.92C226.727 124.92 224.146 125.004 221.559 125.009L213.809 125.043L214.102 124.764L214.073 131L213.809 130.755C215.091 130.755 216.361 130.755 217.643 130.755L221.494 130.817L229.308 131Z" fill="white"/>
<path d="M316.843 208.291L309.157 208.441L305.259 208.508C303.96 208.508 302.649 208.508 301.343 208.536H301.08V208.291L301.051 202.065V201.781H301.343L309.093 201.815C311.674 201.815 314.261 201.876 316.843 201.904H317.001V202.065C317.001 203.119 316.954 204.172 316.925 205.214L316.843 208.291ZM316.843 208.291L316.761 205.136C316.761 204.1 316.69 203.074 316.685 202.054L316.843 202.205C314.261 202.233 311.674 202.294 309.093 202.294L301.343 202.327L301.636 202.054L301.601 208.291L301.343 208.04C302.619 208.04 303.895 208.04 305.171 208.04L309.023 208.107L316.843 208.291Z" fill="white"/>
<path d="M308.197 55.7616L300.512 55.9121L296.614 55.979C295.314 55.979 294.003 55.979 292.698 56.0069H292.458V55.7561V49.5196V49.2354H292.757L300.506 49.2688C303.087 49.2688 305.669 49.3301 308.256 49.358H308.414V49.5084C308.414 50.5674 308.361 51.6151 308.338 52.6573L308.197 55.7616ZM308.197 55.7616L308.115 52.6072C308.086 51.5705 308.045 50.5451 308.033 49.5252L308.197 49.6756C305.61 49.6756 303.029 49.7648 300.448 49.7648L292.698 49.8038L292.991 49.5252L292.956 55.7616L292.698 55.5108C293.974 55.5108 295.244 55.5108 296.526 55.5443L300.377 55.6056L308.197 55.7616Z" fill="white"/>
<path d="M316.843 63.6252L309.157 63.7757L305.259 63.8426C303.96 63.8426 302.649 63.8426 301.343 63.8704H301.08V63.6252L301.051 57.3887V57.1045H301.343L309.093 57.1379C311.674 57.1379 314.261 57.1992 316.843 57.2271H317.001V57.3776C317.001 58.4309 316.954 59.4843 316.925 60.5265L316.843 63.6252ZM316.843 63.6252L316.761 60.4707C316.761 59.4341 316.69 58.4086 316.685 57.3887L316.843 57.5392C314.261 57.5392 311.674 57.6284 309.093 57.6284L301.343 57.6674L301.636 57.3887L301.601 63.6252L301.343 63.3744C302.619 63.3744 303.895 63.3744 305.171 63.4078L309.023 63.4692L316.843 63.6252Z" fill="white"/>
<path d="M96.7225 55.7609L89.0432 55.9114L85.1449 55.9783C83.8397 55.9783 82.5286 55.9783 81.2233 56.0062H80.9658V55.7554L80.9307 49.5245V49.2402H81.2233L88.9729 49.2737C91.56 49.2737 94.1413 49.335 96.7225 49.3628H96.8864V49.5133C96.8864 50.5722 96.8337 51.62 96.8103 52.6622L96.7225 55.7609ZM96.7225 55.7609L96.6406 52.6065C96.6406 51.5699 96.5762 50.5444 96.5645 49.5245L96.7225 49.6749C94.1413 49.6749 91.56 49.7641 88.9729 49.7641L81.2233 49.8031L81.516 49.5245V55.7609L81.2233 55.4879C82.4993 55.4879 83.7753 55.4879 85.0571 55.5213L88.9085 55.5826L96.7225 55.7609Z" fill="white"/>
<path d="M194.71 273.42C258.719 273.42 310.609 267.701 310.609 260.646C310.609 253.591 258.719 247.872 194.71 247.872C130.701 247.872 78.8115 253.591 78.8115 260.646C78.8115 267.701 130.701 273.42 194.71 273.42Z" fill="white"/>
<path d="M112.543 140.882H105.157V133.319H97.2314V126.308H105.157V118.739H112.52V126.308H120.463V133.319H112.543V140.882ZM106.228 139.884H111.496V132.321H119.438V127.305H111.496V119.737H106.228V127.305H98.2792V132.321H106.228V139.884Z" fill="#3C8AFF"/>
<path d="M291.082 190.874H283.713V183.311H275.771V176.3H283.713V168.731H291.082V176.3H299.025V183.311H291.082V190.874ZM284.767 189.876H290.035V182.313H297.977V177.298H290.035V169.74H284.767V177.309H276.818V182.325H284.767V189.876Z" fill="#3C8AFF"/>
<path d="M252.387 61.9477V68.9588H244.445V76.5273H237.081V68.9588H229.133V61.9477H237.081V54.3848H244.445V61.9477H252.387Z" fill="#3C8AFF"/>
<path d="M181.312 63.391C182.839 63.3465 189.237 61.6355 194.528 66.6124C199.539 71.3218 203.712 87.3393 205.181 90.7446C206.65 94.1499 211.619 93.9437 213.44 97.845C215.02 101.228 212.538 102.939 212.691 105.569C212.814 107.615 215.447 110.307 214.019 113.573C212.726 116.543 209.547 116.443 207.827 117.574C206.106 118.706 205.638 122.98 202.377 124.613C199.117 126.246 195.576 123.716 193.75 124.011C191.924 124.307 190.653 129.975 184.613 130.415C178.572 130.855 176.044 126.313 173.422 125.739C170.799 125.165 164.894 127.745 161.581 125.243C158.268 122.741 157.126 118.906 155.61 117.663C154.095 116.421 151.478 117.05 149.342 113.957C147.205 110.864 150.097 108.256 150.073 105.296C150.073 103.234 147.867 101.668 148.669 98.3911C149.775 93.8879 155.359 93.966 156.705 89.3067C157.759 85.6562 158.631 70.3576 167.416 65.2581C173.504 61.7748 181.312 63.391 181.312 63.391Z" fill="#263238"/>
<path d="M204.859 89.9199C205.344 90.6178 206.001 91.1918 206.773 91.5919L208.98 92.8905C210.472 93.6628 211.827 94.6539 212.995 95.8276C213.539 96.3877 213.939 97.06 214.165 97.7919C214.39 98.5239 214.435 99.2955 214.295 100.047C214.107 100.808 213.797 101.537 213.376 102.209C212.886 102.946 212.514 103.748 212.269 104.589C212.188 105.514 212.431 106.439 212.96 107.219C213.364 107.966 213.797 108.668 214.16 109.393C214.892 110.82 215.284 112.397 214.745 113.852C214.509 114.574 214.025 115.2 213.37 115.629C212.67 116.052 211.891 116.341 211.075 116.482C210.244 116.666 209.39 116.772 208.529 116.911C207.652 116.982 206.818 117.302 206.135 117.831C206.863 117.396 207.705 117.164 208.564 117.162C209.425 117.09 210.291 117.056 211.163 116.934C212.059 116.827 212.924 116.554 213.709 116.131C214.516 115.658 215.134 114.942 215.465 114.097C216.209 112.425 215.705 110.519 214.968 109.019C214.605 108.25 214.172 107.52 213.797 106.79C213.375 106.18 213.17 105.457 213.212 104.728C213.504 103.357 214.845 101.941 215.149 100.191C215.31 99.3152 215.246 98.4151 214.964 97.5673C214.681 96.7195 214.189 95.9488 213.528 95.3204C212.25 94.158 210.786 93.1966 209.191 92.4725L206.849 91.3578C206.084 91.0215 205.405 90.5309 204.859 89.9199Z" fill="#263238"/>
<path d="M160.176 74.9551C158.97 77.6915 158.42 80.6287 157.589 83.4487C157.167 84.8588 156.799 86.2855 156.272 87.6454C156.035 88.3111 155.723 88.9503 155.341 89.5514C155.264 89.6907 155.163 89.8169 155.043 89.9249C154.936 90.0469 154.812 90.1538 154.674 90.2425C154.381 90.4543 154.089 90.6494 153.743 90.8389C152.405 91.6086 151.108 92.4419 149.857 93.3357C148.534 94.2661 147.548 95.5652 147.036 97.0531C146.797 97.8151 146.765 98.6223 146.942 99.3994C147.156 100.145 147.518 100.845 148.007 101.462C148.938 102.649 149.827 103.841 150.12 105.318C150.062 103.813 149.195 102.454 148.411 101.211C148.002 100.622 147.713 99.9664 147.556 99.2768C147.445 98.6 147.518 97.9074 147.767 97.2648C148.302 95.9574 149.223 94.8252 150.419 94.0045C151.663 93.1511 152.953 92.3586 154.282 91.6303C154.61 91.4241 154.937 91.2123 155.259 90.9726C155.594 90.7166 155.872 90.4003 156.079 90.0419C156.49 89.377 156.822 88.6703 157.068 87.9352C157.563 86.5225 157.966 85.0818 158.274 83.6215L159.163 79.2744C159.412 77.817 159.75 76.3748 160.176 74.9551Z" fill="#263238"/>
<path d="M154.007 116.916C154.797 117.652 155.066 118.727 155.482 119.703C155.897 120.678 156.284 121.676 156.74 122.651C157.184 123.646 157.737 124.593 158.391 125.477C159.061 126.41 159.959 127.175 161.007 127.706C163.308 128.659 165.754 128.129 167.832 127.433C168.891 127.076 169.91 126.669 170.952 126.318C171.966 125.919 173.065 125.754 174.159 125.839C173.062 125.57 171.909 125.581 170.817 125.872C169.723 126.117 168.669 126.43 167.604 126.719C165.532 127.277 163.272 127.628 161.429 126.831C160.519 126.366 159.735 125.706 159.14 124.903C158.493 124.077 157.918 123.203 157.419 122.289C156.892 121.369 156.418 120.422 155.921 119.502C155.663 119.028 155.4 118.56 155.113 118.103C154.856 117.624 154.476 117.216 154.007 116.916Z" fill="#263238"/>
<path d="M211.479 244.472H160.779L157.765 184.76H203.068L211.479 244.472Z" fill="#37474F"/>
<path d="M188.88 184.76L183.524 225.199L183.519 225.261L183.402 226.102L183.185 227.757L182.939 229.602L182.851 230.26L182.781 230.789L180.972 244.472H160.779L157.765 184.76H188.88Z" fill="#263238"/>
<path d="M201.184 244.472H199.844C199.773 243.943 199.709 243.419 199.639 242.889C197.836 228.956 196.086 215.023 194.564 201.09C194.424 199.814 194.283 198.532 194.148 197.255C194.148 197.055 194.488 197.016 194.517 197.216C194.64 198.075 194.769 198.933 194.886 199.791C197.052 214.672 199.112 229.575 201.184 244.472Z" fill="#263238"/>
<path d="M198.467 184.715C198.469 184.73 198.469 184.745 198.467 184.759C198.333 185.356 196.852 191.899 194.897 199.807C194.792 200.236 194.686 200.671 194.575 201.106C193.709 204.556 192.766 208.206 191.812 211.695C189.752 219.269 187.639 226.057 186.199 228.292C186.042 228.569 185.825 228.81 185.561 229C185.093 229.262 184.098 229.73 182.863 230.282L182.043 230.644L181.341 230.951C178.531 232.177 175.154 233.581 173.591 234.2V234.317L173.047 244.482H125.291L130.348 215.502L136.453 184.743L198.467 184.715Z" fill="#37474F"/>
<path d="M189.688 227.01C184.132 228.936 178.762 231.317 173.638 234.128C173.599 234.149 173.57 234.184 173.556 234.225C173.543 234.266 173.546 234.311 173.565 234.35C173.584 234.389 173.617 234.42 173.659 234.436C173.701 234.453 173.748 234.454 173.79 234.44C179.193 232.21 184.707 230.115 189.974 227.624C190.06 227.587 190.127 227.52 190.16 227.437C190.193 227.354 190.191 227.262 190.153 227.18C190.115 227.099 190.044 227.036 189.957 227.004C189.87 226.972 189.773 226.974 189.688 227.01Z" fill="#263238"/>
<path d="M191.316 191.765C191.316 191.587 190.976 191.548 190.976 191.765C191.017 197.896 190.607 203.246 190.069 208.958C189.817 211.606 187.581 226.236 182.752 225.188C181.945 225.009 181.529 224.252 181.406 223.092C181.254 221.693 181.804 219.988 182.044 218.6C182.583 215.535 183.01 212.47 183.285 209.36C183.85 203.593 183.785 197.786 183.092 192.032C183.085 191.998 183.066 191.967 183.037 191.945C183.009 191.923 182.973 191.911 182.937 191.911C182.9 191.911 182.865 191.923 182.836 191.945C182.808 191.967 182.789 191.998 182.782 192.032C182.782 200.036 182.565 208.022 181.313 215.953C180.727 219.759 178.69 225.494 182.875 226.085C187.06 226.676 189.899 217.073 190.414 214.443C191.866 207.08 191.924 199.189 191.316 191.765Z" fill="#263238"/>
<path d="M182.881 225.561C182.448 226.548 182.084 227.561 181.792 228.593C181.484 229.392 181.331 230.238 181.341 231.09C181.341 231.251 181.587 231.268 181.675 231.157C182.177 230.408 182.556 229.59 182.799 228.732C183.167 227.79 183.554 226.86 183.893 225.912C183.942 225.784 183.936 225.643 183.875 225.52C183.815 225.397 183.706 225.301 183.571 225.255C183.437 225.208 183.289 225.214 183.159 225.272C183.03 225.329 182.93 225.433 182.881 225.561Z" fill="#263238"/>
<path d="M147.159 228.604C146.679 233.899 146.111 239.194 145.514 244.471H144.993C145.578 239.177 146.246 233.882 146.966 228.599C146.983 228.482 147.171 228.482 147.159 228.604Z" fill="#263238"/>
<path d="M179.931 131.318C184.303 144.895 203.226 193.388 215.916 200.778C224.222 205.61 265.937 208.357 273.962 204.813C278.416 202.84 277.029 170.76 271.779 170.582C265.229 170.359 233.031 169.534 229.466 167.912C225.902 166.29 201.851 135.665 192.685 126.386C176.887 110.379 177.016 122.278 179.931 131.318Z" fill="#AD6359"/>
<path d="M261.799 168.174L255.852 207.41C255.852 207.41 221.974 208.357 212.738 201.162C199.574 190.918 180.697 139.087 178.555 130.978C173.48 111.75 184.789 114.96 193.686 124.29C199.463 130.365 222.19 161.441 230.607 167.165C232.995 168.809 261.799 168.174 261.799 168.174Z" fill="white"/>
<path d="M247.506 205.487C248.202 199.663 251.966 175.949 253.142 170.86C253.224 170.509 253.482 170.47 253.447 170.86C251.802 188.355 248.764 199.841 247.752 205.515C247.722 205.648 247.488 205.637 247.506 205.487Z" fill="#263238"/>
<path d="M203.086 170.191L208.746 207.254C208.746 207.254 145.309 208.145 129.559 207.092C129.559 207.092 142.406 137.8 159.34 120.288C167.809 111.533 177.754 112.19 184.093 118.31C185.696 119.859 204.83 143.947 206.844 153.137C208.6 161.252 203.086 170.191 203.086 170.191Z" fill="#3C8AFF"/>
<path d="M178.368 166.056C181.75 165.765 185.15 165.711 188.541 165.894C190.221 166.011 191.889 166.195 193.557 166.418C194.388 166.529 195.225 166.613 196.056 166.691C196.931 166.794 197.816 166.794 198.69 166.691C198.766 166.691 198.784 166.791 198.69 166.808C197.88 166.985 197.059 167.111 196.232 167.187C195.429 167.24 194.623 167.24 193.82 167.187C192.111 167.087 190.408 166.914 188.699 166.797C185.257 166.563 181.816 166.323 178.362 166.329C178.216 166.329 178.21 166.072 178.368 166.056Z" fill="#263238"/>
<path d="M170.712 170.297C173.406 169.55 176.142 168.947 178.907 168.491C180.288 168.269 181.675 168.124 183.074 168.012C183.736 167.962 184.409 167.917 185.076 167.884C185.743 167.851 186.551 167.884 187.283 167.884C187.359 167.884 187.382 167.99 187.283 168.001C186.592 168.062 185.907 168.235 185.222 168.341L183.15 168.642C181.775 168.848 180.399 169.071 179.012 169.266C176.249 169.651 173.498 170.063 170.747 170.542C170.572 170.526 170.548 170.325 170.712 170.297Z" fill="#263238"/>
<path d="M170.349 244.472H120.299C126.152 209.461 133.176 173.602 139.936 155.556C154.487 116.649 166.363 115.161 166.363 115.161V115.206C166.428 116.85 168.119 160.951 169.419 207.594C169.77 219.955 170.092 232.495 170.349 244.472Z" fill="white"/>
<path d="M162.084 223.578C162.084 222.218 161.768 215.775 161.64 214.476C161.64 214.326 161.581 214.025 161.452 214.025C159.585 214.025 153.106 214.655 146.579 214.655C141.913 214.571 137.255 214.225 132.631 213.618C132.415 213.679 132.415 220.758 132.298 224.179C132.064 231.319 132.409 239.394 134.007 240.899C136.992 243.686 144.946 243.446 147.469 243.424C149.992 243.402 158.883 243.396 160.972 239.027C161.862 237.07 162.108 227.105 162.084 223.578ZM160.914 230.823C160.808 234.345 160.691 237.511 159.269 239.367C158.052 240.933 154.616 242.51 146.708 242.504C140.995 242.504 136.172 241.507 134.855 240.058C133.275 238.324 133.1 233.342 133.1 230.366C133.1 226.258 133.1 222.976 133.1 218.874C144.144 221.315 156.296 220.111 160.902 219.225C160.92 219.398 161.019 228.064 160.931 230.823H160.914ZM160.943 218.562C146.597 220.317 137.718 218.851 133.117 218.004C133.117 216.689 133.117 215.664 133.117 214.343C135.09 214.816 141.727 215.569 146.702 215.569C151.332 215.569 158.134 214.956 161.019 214.627C160.937 215.708 160.996 218.06 160.961 218.556L160.943 218.562Z" fill="#DBDBDB"/>
<path d="M164.859 133.452C162.043 144.549 147.563 184.019 143.963 187.441C139.673 191.52 120.966 204.066 114.445 187.363C109.927 175.798 140.633 135.258 155.143 122.155C162.225 115.796 169.571 114.86 164.859 133.452Z" fill="white"/>
<path d="M159.907 153.672C159.029 155.216 158.063 156.715 157.115 158.22C157.337 157.663 157.554 157.106 157.764 156.548C158.677 154.146 159.52 151.716 160.451 149.303C160.486 149.225 160.357 149.197 160.322 149.27C159.345 151.36 158.309 153.433 157.355 155.539C156.401 157.646 155.599 159.675 154.732 161.765C153.029 165.973 151.302 170.175 149.722 174.427C148.787 176.777 147.986 179.173 147.322 181.606C147.322 181.672 147.41 181.723 147.445 181.656C148.493 179.644 149.318 177.526 150.161 175.43C151.004 173.335 151.847 171.262 152.666 169.166C153.486 167.071 154.358 164.903 155.224 162.779C155.657 161.709 156.108 160.65 156.547 159.586C157.891 157.727 159.034 155.744 159.959 153.667C159.971 153.667 159.918 153.645 159.907 153.672Z" fill="#263238"/>
<path d="M165.836 115.211C164.275 118.347 162.761 121.505 161.294 124.685C159.831 127.862 158.321 131.017 156.904 134.216L156.729 134.617L157.109 134.862L163.249 138.814L163.103 137.972C161.434 140.346 159.819 142.748 158.192 145.145L158.034 145.379L158.122 145.635C159.766 150.49 161.353 155.361 163.079 160.193C164.806 165.025 166.497 169.862 168.312 174.683C166.919 169.749 165.459 164.839 163.934 159.953C162.459 155.049 160.843 150.189 159.286 145.307L159.216 145.797C160.867 143.417 162.529 141.043 164.144 138.635L164.478 138.134L163.969 137.816L157.753 133.971L157.964 134.617C159.357 131.412 160.644 128.169 161.991 124.947C163.337 121.726 164.583 118.466 165.836 115.211Z" fill="#DBDBDB"/>
<path d="M214.862 244.472H196.788C195.716 232.417 194.616 219.816 193.527 207.427C191.976 189.72 190.443 172.443 189.014 157.786C187.738 144.145 185.483 130.604 182.266 117.257C182.184 116.917 182.131 116.699 182.119 116.672C182.108 116.644 182.119 116.672 182.119 116.672C182.842 117.1 183.489 117.637 184.033 118.26C184.051 118.28 184.071 118.299 184.092 118.316L184.285 118.522C184.337 118.571 184.386 118.623 184.431 118.678C187.539 121.927 192.737 128.57 197.361 135.398C201.821 141.974 205.755 148.712 206.726 152.714L206.779 152.937C206.808 153.065 206.832 153.188 206.855 153.31C207.046 154.371 207.154 155.444 207.177 156.52C207.22 160.918 206.026 165.246 203.718 169.055C203.702 169.087 203.685 169.119 203.665 169.149C203.513 169.395 203.419 169.523 203.419 169.523V169.584L209.343 208.196L214.862 244.472Z" fill="white"/>
<path d="M200.599 141.049C198.843 138.363 197.011 135.704 195.272 132.996C195.219 132.918 195.348 132.828 195.407 132.901C197.163 135.13 198.919 137.359 200.622 139.628C200.037 138.418 199.504 137.203 198.995 135.966C198.936 135.827 199.141 135.71 199.211 135.849C200.002 137.437 200.71 139.054 201.412 140.681C202.941 142.699 204.295 144.831 205.463 147.057C207.88 151.789 208.922 156.961 207.611 162.133C207.255 163.561 206.725 164.946 206.03 166.257C205.562 167.148 204.034 169.088 204.046 169.144C205.041 174.427 205.802 179.772 206.569 185.089C207.336 190.406 208.161 195.845 208.822 201.251C209.191 204.305 209.408 207.382 209.899 210.43C209.899 210.542 209.735 210.586 209.718 210.475C209.314 207.822 208.711 205.197 208.214 202.555C207.716 199.914 207.254 197.272 206.803 194.619C205.902 189.269 205.094 183.896 204.28 178.529C203.824 175.497 203.32 172.46 202.957 169.411C202.916 169.077 204.356 166.914 204.784 166.067C205.353 164.945 205.819 163.777 206.177 162.578C206.909 160.141 207.136 157.591 206.844 155.071C206.229 149.933 203.431 145.357 200.599 141.049Z" fill="#263238"/>
<path d="M182.267 117.257C184.132 119.954 186.03 122.628 187.962 125.277C189.905 127.918 191.801 130.594 193.78 133.208L193.821 132.583L189.068 137.326L188.676 137.716L189.091 138.101C191.093 139.946 193.13 141.757 195.161 143.574L194.991 143.106C194.254 148.021 193.464 152.926 192.808 157.852C192.153 162.779 191.456 167.7 190.888 172.638C191.872 167.756 192.767 162.868 193.628 157.97C194.488 153.071 195.29 148.166 196.109 143.267L196.156 142.989L195.94 142.794C193.932 140.954 191.924 139.11 189.887 137.304V138.079L194.57 133.252L194.863 132.951L194.611 132.628C192.615 130.025 190.514 127.478 188.5 124.898C186.487 122.317 184.38 119.787 182.267 117.257Z" fill="#DBDBDB"/>
<path d="M159.416 123.521C158.942 116.928 167.329 114.308 172.515 113.628C178.655 112.826 182.747 113.311 185.702 118.984C188.816 124.964 190.449 131.903 191.673 138.452C191.901 139.672 193.903 139.366 193.674 138.14C192.264 130.599 190.239 116.526 182.349 112.436C175.085 108.663 156.595 112.659 157.414 123.827C157.502 125.07 159.504 124.753 159.416 123.521Z" fill="#455A64"/>
<path d="M197.882 141.188C198.036 142.06 197.914 142.956 197.532 143.762C197.15 144.567 196.525 145.247 195.736 145.713C194.948 146.18 194.031 146.413 193.103 146.382C192.175 146.352 191.278 146.06 190.525 145.542C189.772 145.025 189.197 144.306 188.874 143.477C188.551 142.648 188.495 141.747 188.711 140.887C188.928 140.027 189.408 139.248 190.09 138.649C190.773 138.05 191.627 137.657 192.544 137.521C193.148 137.428 193.765 137.449 194.359 137.583C194.954 137.717 195.516 137.961 196.011 138.301C196.507 138.642 196.927 139.072 197.249 139.568C197.57 140.063 197.785 140.614 197.882 141.188Z" fill="#263238"/>
<path d="M196.05 141.473C196.135 141.994 196.055 142.527 195.821 143.005C195.588 143.483 195.211 143.885 194.738 144.159C194.265 144.434 193.717 144.568 193.163 144.547C192.61 144.525 192.076 144.348 191.628 144.037C191.181 143.726 190.84 143.297 190.648 142.802C190.457 142.307 190.424 141.769 190.553 141.256C190.682 140.743 190.968 140.279 191.375 139.92C191.781 139.562 192.29 139.326 192.837 139.243C193.202 139.187 193.575 139.2 193.934 139.282C194.294 139.364 194.633 139.513 194.932 139.72C195.231 139.927 195.483 140.189 195.675 140.49C195.867 140.79 195.995 141.125 196.05 141.473Z" fill="white"/>
<path d="M166.456 144.175C171.578 162.695 170.788 167.22 169.172 169.349C167.955 170.839 166.392 172.04 164.607 172.86L164.021 171.64L164.314 172.247L164.021 171.64C165.581 170.91 166.951 169.86 168.031 168.563C169.202 167.025 170.161 162.856 165.104 144.515L166.456 144.175Z" fill="#C7C7C7"/>
<path d="M161.523 172.764L162.351 174.187C162.525 174.486 162.92 174.594 163.234 174.429L166.378 172.771C166.692 172.605 166.806 172.229 166.632 171.93L165.804 170.506C165.63 170.207 165.234 170.099 164.921 170.265L161.777 171.923C161.463 172.088 161.349 172.465 161.523 172.764Z" fill="#263238"/>
<path d="M153.738 144.66C149.88 158.593 148.95 166.262 150.811 168.709C151.891 170.004 153.261 171.053 154.82 171.78L154.235 173.006C152.45 172.186 150.887 170.984 149.67 169.495C147.457 166.585 148.241 159.29 152.38 144.32L153.738 144.66Z" fill="#C7C7C7"/>
<path d="M153.053 170.647L152.226 172.071C152.052 172.37 152.166 172.746 152.48 172.912L155.625 174.568C155.939 174.733 156.334 174.624 156.508 174.325L157.335 172.901C157.508 172.602 157.395 172.226 157.081 172.061L153.936 170.405C153.621 170.239 153.226 170.348 153.053 170.647Z" fill="#263238"/>
<path d="M151.906 143.712C152.55 140.623 153.392 137.574 154.429 134.583C155.043 133.263 156.017 132.124 157.25 131.284C157.531 131.256 157.408 128.904 157.25 126.987C157.121 125.315 156.934 123.32 157.361 122.774C157.608 122.521 157.948 122.37 158.31 122.352C158.672 122.335 159.026 122.452 159.299 122.679C159.785 123.175 159.814 125.159 159.884 126.859C159.954 128.782 160.095 131.128 160.376 131.128C161.624 131.898 162.658 132.944 163.39 134.176C164.755 137.128 165.882 140.174 166.762 143.289C167.212 145.273 166.528 145.518 165.931 145.719C165.088 145.992 164.549 145.44 163.888 143.244C162.834 139.766 161.506 133.909 158.959 133.926C156.437 134.171 155.412 140.374 154.605 143.835C154.095 146.003 153.615 146.209 152.743 146.02C152.135 145.88 151.508 145.635 151.906 143.712Z" fill="#263238"/>
<path d="M182.682 115.562C182.682 115.562 183.267 126.301 181.184 126.48C174.868 127.037 167.844 118.766 167.458 117.457C167.358 117.122 167.868 108.785 168.283 102.303C168.547 98.1341 168.775 94.7344 168.775 94.7344L184.912 103.54L182.834 114.759L182.682 115.562Z" fill="#AD6359"/>
<path d="M184.912 103.54L182.834 114.759C179.626 113.773 176.672 112.153 174.165 110.007C171.658 107.861 169.654 105.236 168.283 102.303C168.547 98.1341 168.775 94.7344 168.775 94.7344L170.806 95.7599L184.912 103.54Z" fill="#263238"/>
<path d="M201.523 85.6722C204.888 105.413 192.848 109.559 188.376 110.245C184.32 110.869 170.419 112.502 164.929 93.1961C159.438 73.8903 168.013 66.1658 177.22 64.2709C186.427 62.376 198.157 65.9317 201.523 85.6722Z" fill="#AD6359"/>
<path d="M196.466 83.2369C195.982 83.2081 195.499 83.1541 195.02 83.0752C194.506 83.0862 194.002 82.9353 193.586 82.6461C193.475 82.5307 193.407 82.3835 193.392 82.2274C193.377 82.0712 193.417 81.9148 193.504 81.7822C193.72 81.5502 193.995 81.3764 194.304 81.2786C194.612 81.1807 194.942 81.1622 195.26 81.2249C195.937 81.2553 196.577 81.528 197.051 81.9885C197.149 82.0974 197.212 82.2303 197.233 82.3718C197.254 82.5133 197.233 82.6576 197.172 82.7882C197.11 82.9187 197.012 83.0301 196.887 83.1095C196.762 83.1889 196.616 83.233 196.466 83.2369Z" fill="#263238"/>
<path d="M182.418 84.954C182.904 84.8536 183.332 84.6864 183.8 84.5471C184.311 84.4689 184.78 84.2318 185.134 83.8727C185.222 83.7399 185.262 83.5829 185.246 83.4265C185.23 83.2701 185.16 83.1232 185.047 83.0089C184.789 82.8125 184.481 82.6855 184.155 82.6414C183.828 82.5973 183.496 82.6376 183.191 82.7581C182.533 82.9076 181.957 83.2852 181.576 83.817C181.497 83.9436 181.459 84.089 181.466 84.2358C181.472 84.3826 181.523 84.5245 181.612 84.6445C181.701 84.7646 181.824 84.8576 181.967 84.9125C182.11 84.9674 182.267 84.9818 182.418 84.954Z" fill="#263238"/>
<path d="M186.357 89.4512C186.357 89.4011 186.258 89.5237 186.264 89.5794C186.474 90.9282 186.474 92.5054 185.239 93.0962C185.204 93.0962 185.239 93.1798 185.239 93.1686C186.802 92.7896 186.784 90.6941 186.357 89.4512Z" fill="#263238"/>
<path d="M184.918 88.1747C182.617 88.2583 182.963 92.6333 185.099 92.5664C187.236 92.4996 186.849 88.1023 184.918 88.1747Z" fill="#263238"/>
<path d="M184.034 88.4703C183.653 88.749 183.29 89.2171 182.811 89.2952C182.331 89.3732 181.792 88.9608 181.394 88.5428C181.353 88.5038 181.312 88.5428 181.318 88.6041C181.371 89.4401 181.78 90.2761 182.734 90.3374C183.688 90.3987 184.168 89.6017 184.321 88.7378C184.35 88.5818 184.174 88.37 184.034 88.4703Z" fill="#263238"/>
<path d="M194.195 88.4429C194.195 88.3872 194.312 88.4987 194.312 88.5544C194.365 89.9143 194.663 91.4636 195.986 91.8315C196.027 91.8315 196.027 91.9151 195.986 91.9095C194.388 91.8036 194.014 89.7359 194.195 88.4429Z" fill="#263238"/>
<path d="M195.366 86.9378C197.649 86.6257 198.14 90.9952 196.027 91.285C193.914 91.5748 193.452 87.2053 195.366 86.9378Z" fill="#263238"/>
<path d="M196.354 87.1275C196.747 87.3226 197.15 87.6848 197.589 87.6848C198.028 87.6848 198.409 87.1275 198.678 86.6705C198.707 86.6203 198.748 86.6705 198.754 86.7095C198.877 87.5455 198.684 88.4428 197.859 88.688C197.033 88.9332 196.46 88.2533 196.155 87.4452C196.103 87.3003 196.196 87.0495 196.354 87.1275Z" fill="#263238"/>
<path d="M187.546 100.074C187.897 100.381 188.254 100.81 188.775 100.838C189.307 100.813 189.827 100.682 190.303 100.453C190.312 100.449 190.323 100.447 190.333 100.449C190.344 100.451 190.353 100.456 190.36 100.464C190.367 100.472 190.371 100.482 190.371 100.492C190.371 100.502 190.368 100.512 190.361 100.52C190.169 100.789 189.905 101.004 189.596 101.143C189.287 101.282 188.945 101.34 188.605 101.311C188.31 101.249 188.041 101.105 187.833 100.896C187.624 100.688 187.486 100.425 187.435 100.141C187.388 100.074 187.493 100.074 187.546 100.074Z" fill="#263238"/>
<path d="M193.054 94.6901C193.054 94.6901 193.534 96.6909 193.639 97.6495C193.639 97.7387 193.405 97.8 193.054 97.8501C193.054 97.8501 193.054 97.8501 193.019 97.8501C192.171 98.0724 191.276 98.0678 190.431 97.8367C189.586 97.6056 188.825 97.1571 188.231 96.5404C188.149 96.4512 188.266 96.3453 188.365 96.3955C189.722 97.1209 191.288 97.4102 192.831 97.2204C192.878 96.9528 191.889 93.8207 192.047 93.7984C192.838 93.7948 193.626 93.8961 194.388 94.0993C193.516 89.9027 191.942 85.8732 191.14 81.6821C191.137 81.6525 191.145 81.623 191.163 81.5982C191.18 81.5735 191.205 81.5548 191.234 81.5452C191.264 81.5357 191.296 81.5357 191.325 81.5453C191.355 81.555 191.38 81.5737 191.397 81.5985C193.358 85.7116 194.476 90.5157 195.495 94.8294C195.6 95.3645 193.469 94.8183 193.054 94.6901Z" fill="#263238"/>
<path d="M191.912 97.6607C191.441 98.3054 190.802 98.8222 190.057 99.1599C189.646 99.3361 189.186 99.383 188.746 99.2937C187.786 99.0986 187.727 98.2682 187.868 97.5492C187.945 97.1646 188.071 96.7904 188.242 96.4346C189.295 97.209 190.582 97.639 191.912 97.6607Z" fill="#263238"/>
<path d="M190.057 99.1595C189.646 99.3357 189.186 99.3826 188.746 99.2933C187.786 99.0982 187.727 98.2678 187.868 97.5488C188.886 97.6101 189.928 98.2232 190.057 99.1595Z" fill="#FF99BA"/>
<path d="M164.929 93.9434C166.281 93.3264 167.441 92.3855 168.296 91.2131C169.15 90.0407 169.67 88.6769 169.805 87.2555C173.482 85.7412 176.668 83.321 179.035 80.2443C178.895 80.6568 177.865 83.6273 177.28 85.121C190.601 82.8136 194.769 73.1329 194.769 73.1329C199.071 77.2515 199.92 79.8821 200.534 81.1918C200.534 81.1918 200.675 73.3892 196.495 68.1894C195.09 66.3846 193.161 65.0116 190.945 64.2399C188.729 63.4683 186.325 63.332 184.028 63.8478C180.893 62.8166 177.507 62.6897 174.296 63.4828C171.085 64.2759 168.191 65.9539 165.977 68.3064C157.285 77.2236 164.929 93.9434 164.929 93.9434Z" fill="#263238"/>
<path d="M187.417 83.0982C185.273 84.2023 182.969 84.9968 180.58 85.4556C180.551 85.4556 180.58 85.4556 180.58 85.4556C184.326 84.4986 187.718 82.569 190.379 79.8824C191.508 78.7337 192.48 77.4527 193.27 76.0703C194.197 74.5899 194.808 72.9497 195.067 71.2438C195.073 71.2219 195.086 71.2024 195.104 71.1885C195.123 71.1746 195.146 71.167 195.169 71.167C195.193 71.167 195.216 71.1746 195.235 71.1885C195.253 71.2024 195.266 71.2219 195.272 71.2438C195.21 72.9619 194.844 74.6578 194.189 76.2598C193.464 77.8013 192.45 79.2044 191.198 80.4007C190.076 81.4654 188.801 82.3735 187.411 83.0982" fill="#263238"/>
<path d="M183.759 96.7305C182.532 96.7573 181.322 96.4558 180.266 95.8602C179.211 95.2646 178.352 94.3989 177.788 93.3615C177.223 92.3241 176.976 91.1568 177.074 89.9921C177.172 88.8275 177.611 87.7124 178.341 86.7737C179.072 85.835 180.064 85.1104 181.206 84.6823C182.348 84.2541 183.593 84.1397 184.799 84.3519C186.006 84.5642 187.126 85.0946 188.031 85.8829C188.937 86.6712 189.592 87.6856 189.922 88.8109C190.388 90.4058 190.17 92.1115 189.316 93.5536C188.463 94.9956 187.043 96.056 185.368 96.502C184.844 96.6402 184.303 96.7169 183.759 96.7305ZM183.478 85.0824C183.004 85.0922 182.534 85.1596 182.079 85.283C180.69 85.6555 179.503 86.518 178.758 87.6949C178.014 88.8718 177.768 90.2746 178.072 91.6177C178.375 92.9609 179.205 94.1433 180.392 94.9243C181.579 95.7053 183.035 96.0261 184.461 95.8215C185.888 95.6169 187.179 94.9021 188.072 93.8228C188.965 92.7435 189.392 91.3808 189.267 90.0121C189.141 88.6434 188.473 87.3717 187.397 86.4558C186.322 85.5399 184.92 85.0488 183.478 85.0824Z" fill="#3C8AFF"/>
<path d="M198.643 94.6681C196.138 94.7238 193.803 92.3273 193.323 89.0948C193.068 87.5573 193.326 85.9824 194.06 84.5916C194.339 83.9792 194.779 83.4453 195.337 83.0408C195.894 82.6363 196.552 82.3749 197.246 82.2815C197.94 82.1881 198.648 82.2659 199.301 82.5074C199.955 82.7489 200.533 83.1461 200.979 83.6609C202.089 84.8065 202.793 86.2549 202.992 87.8018C203.496 91.2071 201.74 94.2724 199.071 94.6291C198.93 94.6534 198.787 94.6664 198.643 94.6681ZM197.701 83.0757C197.59 83.0702 197.479 83.0702 197.367 83.0757C196.817 83.1755 196.3 83.399 195.86 83.7276C195.419 84.0563 195.067 84.4806 194.833 84.965C194.188 86.2011 193.965 87.5983 194.195 88.9611C194.628 91.9149 196.759 94.0829 198.948 93.7875C201.137 93.4921 202.559 90.8504 202.126 87.9022C201.953 86.533 201.34 85.2482 200.37 84.2238C200.035 83.865 199.624 83.5774 199.164 83.3796C198.704 83.1818 198.206 83.0783 197.701 83.0757Z" fill="#3C8AFF"/>
<path d="M189.811 89.5632L189.155 89.0059C190.027 88.0863 192.146 86.7264 193.967 88.1253L193.416 88.7774C191.783 87.5179 189.887 89.4852 189.811 89.5632Z" fill="#3C8AFF"/>
<path d="M161.118 95.0584L160.293 94.7798C160.428 94.4119 161.668 91.1739 163.559 90.6165C165.315 90.0982 177.121 89.5743 177.607 89.5576L177.648 90.388C174.27 90.5329 165.175 91.0122 163.811 91.4135C162.57 91.7591 161.446 94.1444 161.118 95.0584Z" fill="#3C8AFF"/>
<path d="M168.482 94.2056C168.482 94.2056 163.425 88.3035 160.574 90.0703C157.724 91.837 161.874 100.632 165.444 101.596C165.893 101.753 166.372 101.821 166.849 101.798C167.327 101.774 167.795 101.658 168.225 101.458C168.655 101.257 169.038 100.976 169.351 100.631C169.663 100.286 169.899 99.8843 170.045 99.4501L168.482 94.2056Z" fill="#AD6359"/>
<path d="M161.833 92.5557C161.821 92.5557 161.809 92.5604 161.8 92.5687C161.791 92.5771 161.786 92.5884 161.786 92.6003C161.786 92.6121 161.791 92.6234 161.8 92.6318C161.809 92.6401 161.821 92.6448 161.833 92.6448C164.344 93.4139 165.801 95.4816 166.878 97.6608C166.082 96.8527 165.058 96.4514 163.911 97.3598C163.852 97.41 163.911 97.4992 163.987 97.4824C164.406 97.3216 164.867 97.2888 165.307 97.3887C165.746 97.4886 166.142 97.7161 166.439 98.0398C166.936 98.5828 167.37 99.1751 167.733 99.8065C167.862 100.007 168.248 99.8678 168.149 99.6337V99.578C167.944 96.5963 165.199 92.617 161.833 92.5557Z" fill="#263238"/>
<path d="M167.352 100.576C167.365 100.672 167.356 100.769 167.327 100.862C167.298 100.955 167.25 101.041 167.184 101.115C167.119 101.189 167.038 101.249 166.947 101.292C166.856 101.335 166.757 101.359 166.656 101.364C166.554 101.368 166.453 101.353 166.358 101.318C166.263 101.284 166.177 101.231 166.104 101.164C166.032 101.096 165.975 101.015 165.937 100.925C165.898 100.836 165.88 100.74 165.883 100.643C165.888 100.466 165.963 100.297 166.094 100.171C166.224 100.044 166.399 99.9692 166.585 99.9608C166.771 99.9523 166.953 100.011 167.095 100.125C167.238 100.239 167.329 100.4 167.352 100.576Z" fill="white"/>
<path d="M165.234 99.4606C165.237 99.5184 165.228 99.5762 165.208 99.6307C165.187 99.6853 165.156 99.7355 165.115 99.7784C165.074 99.8214 165.025 99.8563 164.97 99.8811C164.915 99.9059 164.856 99.9202 164.795 99.9231C164.734 99.9261 164.674 99.9176 164.616 99.8981C164.559 99.8787 164.506 99.8488 164.461 99.8099C164.416 99.7711 164.379 99.7242 164.353 99.6719C164.327 99.6196 164.312 99.563 164.309 99.5051C164.303 99.3884 164.346 99.274 164.428 99.1873C164.51 99.1005 164.626 99.0485 164.748 99.0426C164.871 99.0366 164.991 99.0774 165.082 99.1558C165.173 99.2341 165.228 99.3438 165.234 99.4606Z" fill="white"/>
<path d="M182.688 116.103L179.176 124.864L167.61 114.068L164.467 117.658C164.467 117.658 175.916 134.935 175.968 134.143L179.58 126.58L185.117 131.697L184.414 118.616L182.688 116.103Z" fill="#3C8AFF"/>
<path d="M185.169 125.209C184.982 123.053 184.847 120.879 184.584 118.733C184.584 118.655 184.443 118.622 184.426 118.733C184.016 120.823 184.794 129.066 184.824 131.045C184.595 130.822 179.696 126.547 179.649 126.619C178.859 127.823 176.208 133.307 176.026 133.831C174.218 131.089 166.55 120.277 164.42 117.669C164.409 117.652 164.391 117.64 164.371 117.635C164.351 117.63 164.329 117.633 164.311 117.644C164.293 117.654 164.281 117.671 164.276 117.69C164.271 117.709 164.274 117.73 164.285 117.747C165.895 120.651 175.81 134.918 175.944 134.873C177.346 132.273 178.606 129.605 179.72 126.881C180.551 127.818 185.503 132.65 185.514 132.332C185.532 129.954 185.416 127.576 185.169 125.209Z" fill="#263238"/>
<path d="M183.508 144.437C183.508 144.437 178.983 138.752 183.303 136.127C187.622 133.502 191.128 139.805 191.128 139.805L183.508 144.437Z" fill="#455A64"/>
<path d="M219.293 181.845L219.919 188.795L220.142 191.091L218.029 189.948L211.684 186.46L183.36 144.192L190.969 139.561L219.293 181.845Z" fill="#455A64"/>
<path d="M219.937 188.806L220.148 191.096L218.041 189.954L219.937 188.806Z" fill="#37474F"/>
<path d="M191.458 138.955L182.562 144.36L183.689 146.042L192.585 140.637L191.458 138.955Z" fill="#263238"/>
<path d="M192.698 140.821L183.802 146.226L184.929 147.908L193.825 142.503L192.698 140.821Z" fill="#263238"/>
<path d="M184.93 147.898L187.798 146.153L196.466 162.411L195.372 162.99L184.93 147.898Z" fill="#263238"/>
<path d="M167.2 159.357C171.549 158.538 184.759 193.939 178.409 195.438C150.22 202.126 127.141 197.913 121.674 195.438C114.504 192.167 113.907 183.4 116.903 179.354C122.13 172.337 160.457 160.633 167.2 159.357Z" fill="#AD6359"/>
<path d="M221.336 157.479C221.266 161.564 210.701 160.55 210.701 160.55C212.226 161.549 213.334 163.026 213.833 164.724C214.564 167.75 209.905 170.169 209.905 170.169C211.256 171.52 212.149 173.227 212.469 175.068C212.861 178.033 208.524 181.109 208.524 181.109C209.05 183.002 208.842 185.013 207.938 186.772C205.322 191.375 176.126 195.823 172.492 196.453L165.468 160.226C165.468 160.226 188.406 147.876 194.734 148.288C200.054 148.595 221.442 151.22 221.336 157.479Z" fill="#AD6359"/>
<path d="M210.619 160.415C205.047 158.743 199.065 158.359 193.294 158.041C193.267 158.041 193.242 158.051 193.223 158.069C193.205 158.087 193.194 158.111 193.194 158.136C193.194 158.161 193.205 158.185 193.223 158.203C193.242 158.221 193.267 158.231 193.294 158.231C199.042 158.481 204.854 160.203 210.578 160.677C210.612 160.677 210.645 160.666 210.67 160.645C210.696 160.624 210.713 160.595 210.718 160.563C210.723 160.531 210.716 160.499 210.698 160.472C210.679 160.444 210.652 160.424 210.619 160.415Z" fill="#263238"/>
<path d="M209.759 169.74C208.455 169.479 207.121 169.381 205.79 169.45C204.378 169.45 202.967 169.461 201.559 169.483C198.734 169.55 195.912 169.686 193.095 169.89C192.972 169.89 192.954 170.08 193.095 170.08C195.904 170.018 198.72 169.996 201.535 170.046C202.946 170.046 204.351 170.108 205.761 170.152C207.086 170.277 208.42 170.262 209.741 170.108C209.782 170.096 209.818 170.073 209.844 170.041C209.87 170.009 209.885 169.97 209.887 169.93C209.889 169.889 209.878 169.849 209.855 169.815C209.832 169.781 209.798 169.755 209.759 169.74Z" fill="#263238"/>
<path d="M208.4 181.092C207.312 180.758 205.948 180.964 204.818 181.014L200.955 181.165C198.386 181.248 195.816 181.332 193.241 181.332C193.112 181.332 193.1 181.521 193.241 181.521C195.857 181.521 198.473 181.583 201.084 181.571C202.372 181.571 203.653 181.571 204.941 181.538C206.03 181.538 207.399 181.622 208.453 181.215C208.468 181.207 208.479 181.194 208.484 181.178C208.49 181.163 208.489 181.147 208.483 181.132C208.476 181.117 208.464 181.104 208.449 181.097C208.434 181.09 208.417 181.088 208.4 181.092Z" fill="#263238"/>
<path d="M162.915 159.825L175.54 199.713C175.54 199.713 129.558 201.848 119.695 195.02C112.841 190.272 113.409 181.338 116.505 178.262C123.266 171.546 162.915 159.825 162.915 159.825Z" fill="white"/>
<path d="M163.425 198.163C161.441 192.59 154.189 169.628 152.971 164.562C152.89 164.211 153.1 164.077 153.241 164.428C159.609 180.92 162.02 192.546 163.654 198.08C163.689 198.23 163.478 198.314 163.425 198.163Z" fill="#263238"/>
<path d="M162.927 159.413C162.675 159.363 158.244 160.455 156.828 160.851C154.061 161.635 151.314 162.486 148.587 163.403C143.155 165.225 137.825 167.313 132.619 169.656L131.841 170.013C129.938 170.448 128.083 171.072 126.233 171.652C126.181 171.652 126.233 171.746 126.233 171.73C127.714 171.262 129.218 170.894 130.723 170.515C129.892 170.899 129.055 171.289 128.235 171.696C126.778 172.415 125.355 173.19 123.91 173.926C123.904 173.928 123.9 173.931 123.896 173.935C123.892 173.939 123.889 173.944 123.887 173.949C123.885 173.954 123.884 173.96 123.885 173.966C123.886 173.971 123.887 173.976 123.89 173.981C123.893 173.986 123.897 173.99 123.902 173.993C123.907 173.996 123.912 173.999 123.918 174C123.923 174.001 123.929 174.001 123.935 173.999C123.941 173.998 123.946 173.996 123.951 173.992C126.38 172.794 128.902 171.73 131.396 170.649C133.889 169.567 136.488 168.514 139.063 167.522C144.138 165.566 149.312 163.816 154.551 162.277C156.026 161.848 157.478 161.436 158.988 161.035C159.713 160.84 162.734 159.864 162.862 159.853C162.933 159.956 162.986 160.069 163.021 160.187C163.056 160.305 163.196 160.305 163.167 160.187C163.119 159.921 163.038 159.661 162.927 159.413Z" fill="#263238"/>
<path d="M169.155 199.891C167.82 199.802 162.898 200.031 161.581 200.031C158.923 200.031 156.272 200.031 153.614 199.986C148.276 199.852 142.962 199.484 137.647 199C136.178 198.866 134.72 198.715 133.234 198.565C131.747 198.414 130.149 198.303 128.639 198.041C128.58 198.041 128.557 198.119 128.639 198.13C129.962 198.314 131.261 198.609 132.578 198.827C133.895 199.044 135.218 199.234 136.547 199.412C139.204 199.769 141.873 200.02 144.548 200.231C149.886 200.649 155.259 200.789 160.615 200.694C162.125 200.666 167.762 200.443 169.225 200.137C169.371 200.131 169.307 199.902 169.155 199.891Z" fill="#263238"/>
<path d="M257.555 207.733L209.267 211.066L227.318 150.529L275.606 147.196L257.555 207.733Z" fill="white"/>
<path d="M260.857 207.505L212.574 210.837L230.625 150.301L278.908 146.968L260.857 207.505Z" fill="#37474F"/>
<path d="M235.752 149.955C235.63 150.476 235.401 150.969 235.077 151.405C234.754 151.841 234.342 152.212 233.868 152.496C233.429 152.763 233.282 152.201 233.698 151.939C234.306 151.556 234.761 150.988 234.985 150.328C235.015 150.222 235.05 150.099 235.067 149.994C235.171 149.629 235.171 149.244 235.067 148.879C235.017 148.722 234.912 148.586 234.769 148.494C234.755 148.488 234.743 148.478 234.734 148.466C234.734 148.466 234.681 148.466 234.675 148.466C234.644 148.47 234.613 148.47 234.582 148.466C234.466 148.453 234.348 148.471 234.242 148.517C234.037 148.601 233.857 148.731 233.715 148.896C233.541 149.092 233.396 149.309 233.282 149.542C233.213 149.656 233.15 149.773 233.095 149.893V149.977C233.073 150.015 233.058 150.057 233.048 150.099C233.048 150.099 233.013 150.15 233.019 150.177L232.334 150.228C232.474 149.811 232.67 149.414 232.919 149.046C233.101 148.73 233.351 148.454 233.654 148.238C233.957 148.021 234.305 147.869 234.675 147.792C234.951 147.764 235.227 147.838 235.446 148.001C235.664 148.163 235.808 148.4 235.846 148.662C235.929 149.093 235.896 149.538 235.752 149.955Z" fill="#3C8AFF"/>
<path d="M239.534 149.676C239.282 150.727 238.604 151.64 237.649 152.218C237.204 152.485 237.063 151.922 237.479 151.66C238.088 151.279 238.54 150.711 238.761 150.05C238.798 149.94 238.828 149.828 238.849 149.715C238.952 149.35 238.952 148.965 238.849 148.6C238.797 148.443 238.689 148.307 238.544 148.216C238.535 148.218 238.525 148.218 238.515 148.216C238.515 148.216 238.462 148.216 238.451 148.216H238.363C238.247 148.203 238.13 148.22 238.023 148.266C237.819 148.351 237.638 148.481 237.497 148.645C237.319 148.838 237.173 149.056 237.063 149.292C236.994 149.407 236.932 149.526 236.876 149.648V149.726C236.851 149.764 236.833 149.805 236.824 149.849C236.824 149.877 236.794 149.905 236.824 149.927L236.139 149.977C236.276 149.559 236.473 149.162 236.724 148.796C236.905 148.479 237.155 148.203 237.458 147.986C237.761 147.77 238.11 147.618 238.48 147.542C238.755 147.514 239.031 147.59 239.249 147.752C239.467 147.914 239.611 148.15 239.651 148.411C239.718 148.836 239.678 149.269 239.534 149.676Z" fill="#3C8AFF"/>
<path d="M243.291 149.431C243.039 150.484 242.359 151.399 241.401 151.978C240.962 152.24 240.815 151.677 241.231 151.42C241.841 151.04 242.296 150.471 242.519 149.81C242.519 149.704 242.589 149.587 242.607 149.481C242.706 149.115 242.706 148.732 242.607 148.366C242.559 148.208 242.453 148.072 242.308 147.982H242.273C242.273 147.982 242.226 147.982 242.214 147.982H242.121C242.007 147.965 241.891 147.981 241.787 148.026C241.58 148.111 241.398 148.241 241.254 148.405C241.08 148.602 240.935 148.819 240.821 149.052C240.751 149.163 240.698 149.286 240.634 149.409V149.487C240.613 149.526 240.598 149.567 240.587 149.609C240.587 149.637 240.558 149.665 240.587 149.687L239.902 149.737C240.039 149.32 240.236 148.922 240.488 148.556C240.669 148.24 240.919 147.964 241.222 147.749C241.526 147.534 241.874 147.383 242.244 147.307C242.519 147.277 242.795 147.351 243.014 147.512C243.233 147.674 243.376 147.91 243.414 148.171C243.479 148.594 243.437 149.026 243.291 149.431Z" fill="#3C8AFF"/>
<path d="M247.09 149.169C246.967 149.69 246.737 150.184 246.414 150.621C246.091 151.058 245.68 151.43 245.205 151.716C244.766 151.983 244.62 151.415 245.036 151.158C245.643 150.775 246.097 150.207 246.323 149.548C246.353 149.436 246.388 149.319 246.405 149.213C246.508 148.848 246.508 148.464 246.405 148.099C246.354 147.942 246.249 147.807 246.107 147.714H246.072C246.072 147.714 246.019 147.714 246.013 147.714H245.919C245.804 147.696 245.685 147.713 245.58 147.764C245.374 147.845 245.193 147.973 245.053 148.138C244.879 148.334 244.734 148.551 244.62 148.784C244.551 148.9 244.488 149.019 244.433 149.141V149.219C244.413 149.258 244.397 149.299 244.386 149.342C244.386 149.369 244.351 149.397 244.357 149.425L243.672 149.47C243.811 149.053 244.008 148.656 244.257 148.288C244.439 147.972 244.689 147.697 244.992 147.482C245.295 147.266 245.643 147.116 246.013 147.04C246.288 147.01 246.565 147.083 246.783 147.245C247.002 147.406 247.146 147.643 247.184 147.904C247.262 148.326 247.229 148.761 247.09 149.169Z" fill="#3C8AFF"/>
<path d="M250.901 148.907C250.648 149.959 249.971 150.874 249.016 151.454C248.571 151.722 248.431 151.153 248.846 150.897C249.454 150.515 249.906 149.946 250.128 149.286C250.166 149.177 250.195 149.065 250.216 148.952C250.32 148.587 250.32 148.202 250.216 147.837C250.164 147.678 250.056 147.54 249.912 147.447C249.902 147.449 249.892 147.449 249.882 147.447C249.882 147.447 249.83 147.447 249.818 147.447H249.73C249.614 147.431 249.496 147.449 249.391 147.497C249.186 147.58 249.005 147.708 248.864 147.871C248.687 148.067 248.541 148.286 248.431 148.523C248.36 148.636 248.298 148.753 248.243 148.874V148.952C248.219 148.99 248.202 149.031 248.191 149.074C248.191 149.102 248.161 149.13 248.191 149.158L247.506 149.203C247.643 148.785 247.84 148.387 248.091 148.021C248.273 147.705 248.524 147.431 248.827 147.215C249.13 147 249.478 146.849 249.847 146.773C250.122 146.744 250.397 146.818 250.616 146.979C250.834 147.14 250.978 147.376 251.018 147.637C251.086 148.063 251.046 148.499 250.901 148.907Z" fill="#3C8AFF"/>
<path d="M254.653 148.651C254.398 149.702 253.719 150.615 252.762 151.192C252.323 151.46 252.177 150.891 252.592 150.635C253.201 150.253 253.656 149.685 253.88 149.024C253.909 148.918 253.95 148.796 253.968 148.69C254.069 148.324 254.069 147.94 253.968 147.575C253.919 147.416 253.813 147.278 253.669 147.185H253.634C253.634 147.185 253.587 147.185 253.576 147.185C253.545 147.189 253.513 147.189 253.482 147.185C253.368 147.17 253.252 147.187 253.148 147.235C252.941 147.317 252.758 147.448 252.616 147.614C252.442 147.81 252.296 148.028 252.183 148.261C252.112 148.366 252.06 148.489 251.995 148.612V148.695C251.975 148.732 251.959 148.772 251.949 148.812C251.941 148.84 251.941 148.869 251.949 148.896L251.264 148.94C251.402 148.525 251.599 148.129 251.849 147.765C252.031 147.448 252.281 147.173 252.584 146.956C252.887 146.74 253.235 146.588 253.605 146.511C253.88 146.48 254.156 146.554 254.375 146.715C254.594 146.877 254.738 147.113 254.776 147.374C254.842 147.803 254.8 148.241 254.653 148.651Z" fill="#3C8AFF"/>
<path d="M258.427 148.388C258.305 148.909 258.075 149.402 257.752 149.838C257.428 150.275 257.017 150.646 256.542 150.93C256.103 151.197 255.957 150.634 256.373 150.372C256.981 149.99 257.435 149.422 257.66 148.762C257.69 148.656 257.725 148.533 257.742 148.427C257.846 148.062 257.846 147.677 257.742 147.312C257.692 147.155 257.587 147.02 257.444 146.928C257.43 146.921 257.418 146.912 257.409 146.9C257.409 146.9 257.356 146.9 257.35 146.9C257.319 146.904 257.288 146.904 257.256 146.9C257.141 146.887 257.023 146.904 256.917 146.95C256.712 147.035 256.531 147.165 256.39 147.329C256.214 147.524 256.068 147.742 255.957 147.976C255.888 148.089 255.825 148.206 255.77 148.327V148.41C255.749 148.45 255.731 148.491 255.717 148.533C255.717 148.533 255.688 148.583 255.717 148.611L255.032 148.661C255.172 148.245 255.369 147.847 255.618 147.48C255.799 147.163 256.05 146.887 256.352 146.671C256.655 146.455 257.004 146.303 257.373 146.226C257.649 146.197 257.926 146.272 258.144 146.434C258.363 146.597 258.506 146.834 258.544 147.095C258.619 147.529 258.579 147.973 258.427 148.388Z" fill="#3C8AFF"/>
<path d="M262.209 148.127C261.958 149.177 261.28 150.091 260.325 150.668C259.88 150.936 259.739 150.373 260.155 150.111C260.763 149.731 261.215 149.165 261.437 148.506C261.474 148.396 261.503 148.284 261.524 148.171C261.625 147.806 261.625 147.422 261.524 147.057C261.472 146.899 261.365 146.763 261.22 146.672C261.21 146.674 261.201 146.674 261.191 146.672C261.191 146.672 261.138 146.672 261.126 146.672H261.039C260.923 146.659 260.805 146.676 260.699 146.722C260.494 146.807 260.314 146.937 260.172 147.101C259.994 147.294 259.848 147.512 259.739 147.748C259.67 147.863 259.607 147.982 259.552 148.104V148.182C259.527 148.22 259.509 148.261 259.499 148.305C259.499 148.333 259.47 148.361 259.499 148.383L258.814 148.433C258.952 148.016 259.148 147.618 259.4 147.252C259.581 146.935 259.831 146.659 260.134 146.442C260.437 146.226 260.786 146.074 261.156 145.998C261.431 145.97 261.707 146.046 261.925 146.208C262.143 146.37 262.287 146.606 262.326 146.867C262.393 147.29 262.353 147.722 262.209 148.127Z" fill="#3C8AFF"/>
<path d="M265.99 147.864C265.737 148.918 265.057 149.833 264.099 150.411C263.66 150.673 263.514 150.11 263.929 149.854C264.54 149.474 264.994 148.905 265.217 148.243C265.246 148.137 265.287 148.02 265.305 147.915C265.404 147.549 265.404 147.165 265.305 146.8C265.257 146.642 265.151 146.505 265.006 146.415H264.971C264.971 146.415 264.924 146.415 264.913 146.415H264.819C264.706 146.399 264.59 146.414 264.485 146.46C264.279 146.544 264.096 146.674 263.953 146.839C263.779 147.035 263.633 147.253 263.52 147.485C263.449 147.597 263.397 147.72 263.332 147.842V147.92C263.312 147.959 263.297 148.001 263.285 148.043C263.285 148.071 263.285 148.098 263.285 148.121L262.601 148.171C262.737 147.753 262.934 147.356 263.186 146.989C263.367 146.673 263.618 146.398 263.921 146.183C264.224 145.967 264.572 145.817 264.942 145.741C265.217 145.711 265.493 145.784 265.712 145.946C265.931 146.107 266.075 146.344 266.112 146.605C266.177 147.028 266.135 147.46 265.99 147.864Z" fill="#3C8AFF"/>
<path d="M269.765 147.602C269.642 148.124 269.412 148.617 269.089 149.054C268.765 149.492 268.355 149.864 267.88 150.149C267.441 150.417 267.295 149.848 267.71 149.592C268.317 149.207 268.77 148.64 268.998 147.981C269.027 147.87 269.063 147.753 269.08 147.647C269.183 147.282 269.183 146.897 269.08 146.532C269.029 146.376 268.924 146.24 268.782 146.148H268.747C268.747 146.148 268.694 146.148 268.688 146.148H268.594C268.478 146.129 268.359 146.147 268.255 146.198C268.049 146.278 267.868 146.407 267.728 146.571C267.552 146.766 267.406 146.984 267.295 147.218C267.226 147.333 267.163 147.452 267.108 147.575V147.653C267.086 147.692 267.068 147.733 267.055 147.775C267.055 147.803 267.026 147.831 267.055 147.859L266.37 147.903C266.51 147.487 266.706 147.089 266.955 146.722C267.137 146.406 267.388 146.131 267.691 145.915C267.994 145.7 268.342 145.549 268.711 145.473C268.986 145.443 269.263 145.517 269.482 145.678C269.7 145.84 269.844 146.076 269.882 146.337C269.952 146.762 269.912 147.196 269.765 147.602Z" fill="#3C8AFF"/>
<path d="M273.546 147.341C273.294 148.393 272.617 149.307 271.661 149.888C271.217 150.155 271.076 149.587 271.492 149.33C272.099 148.948 272.551 148.38 272.774 147.72C272.811 147.61 272.84 147.499 272.861 147.385C272.962 147.02 272.962 146.636 272.861 146.271C272.809 146.112 272.702 145.974 272.557 145.881C272.547 145.882 272.537 145.882 272.528 145.881C272.528 145.881 272.475 145.881 272.463 145.881H272.376C272.26 145.865 272.141 145.882 272.036 145.931C271.832 146.013 271.651 146.141 271.509 146.304C271.333 146.502 271.185 146.721 271.07 146.956C271.002 147.069 270.941 147.187 270.889 147.307V147.385C270.865 147.424 270.847 147.465 270.836 147.508C270.836 147.536 270.807 147.564 270.836 147.592L270.151 147.636C270.288 147.219 270.485 146.821 270.737 146.455C270.918 146.139 271.169 145.864 271.472 145.649C271.775 145.433 272.123 145.282 272.493 145.206C272.767 145.178 273.043 145.252 273.261 145.413C273.48 145.574 273.624 145.81 273.663 146.07C273.732 146.496 273.692 146.932 273.546 147.341Z" fill="#3C8AFF"/>
<path d="M277.327 147.084C277.073 148.135 276.393 149.048 275.437 149.626C274.998 149.893 274.852 149.325 275.267 149.068C275.876 148.686 276.33 148.118 276.555 147.458C276.584 147.352 276.619 147.229 276.643 147.123C276.744 146.758 276.744 146.374 276.643 146.009C276.593 145.85 276.488 145.712 276.344 145.618H276.309C276.309 145.618 276.262 145.618 276.25 145.618C276.219 145.622 276.188 145.622 276.157 145.618C276.043 145.604 275.927 145.621 275.823 145.669C275.615 145.751 275.432 145.881 275.291 146.048C275.117 146.244 274.971 146.461 274.857 146.694C274.787 146.8 274.735 146.923 274.67 147.045V147.129C274.649 147.166 274.634 147.205 274.623 147.246C274.615 147.273 274.615 147.302 274.623 147.329L273.938 147.374C274.078 146.957 274.274 146.56 274.524 146.193C274.707 145.878 274.958 145.604 275.261 145.388C275.563 145.173 275.911 145.022 276.28 144.944C276.555 144.914 276.831 144.987 277.05 145.149C277.269 145.31 277.412 145.547 277.45 145.808C277.517 146.237 277.475 146.674 277.327 147.084Z" fill="#3C8AFF"/>
<path d="M276.532 160.577C279.09 165.554 285.446 171.724 286.014 175.787C286.19 176.788 286.023 177.816 285.537 178.72C285.051 179.624 284.272 180.354 283.316 180.803C283.316 180.803 287.629 182.792 287.501 186.576C287.43 188.527 284.106 190.132 284.106 190.132C284.106 190.132 287.483 191.871 287.155 195.232C286.886 197.907 283.597 199.133 283.597 199.133C283.597 199.133 286.02 202.226 284.849 204.851C282.444 210.213 258.206 210.48 254.36 202.02C252.563 198.08 258.486 198.319 258.486 198.319C258.486 198.319 250.058 196.018 249.871 191.258C249.683 186.498 257.363 187.256 257.363 187.256C257.363 187.256 249.215 184.955 249.543 180.011C249.888 174.861 257.433 176.868 257.433 176.868C257.433 176.868 252.001 173.446 253.166 169.712C255.086 163.548 265.382 171.161 270.725 169.901L273.564 161.502L276.532 160.577Z" fill="#AD6359"/>
<path d="M281.477 167.795C279.493 162.879 285.838 156.715 284.643 151.761C283.034 145.073 275.161 151.727 273.522 161.514L273.64 169.316L281.477 167.795Z" fill="#AD6359"/>
<path d="M283.093 199.384C283.169 199.384 283.198 199.484 283.093 199.501C275.144 201.44 265.785 201.251 258.112 198.386C257.86 198.291 257.913 197.862 258.211 197.918C266.757 199.423 274.436 200.142 283.093 199.384Z" fill="#263238"/>
<path d="M284.222 190.183C284.316 190.183 284.334 190.322 284.222 190.344C276.028 192.301 265.492 191.81 257.052 187.485C256.759 187.34 256.66 186.928 257.005 187.078C262.852 189.542 276.426 190.918 284.222 190.183Z" fill="#263238"/>
<path d="M256.9 176.378C265.159 180.223 273.875 181.165 282.988 180.903C283.105 180.903 283.099 181.059 282.988 181.087C278.569 182.369 272.751 181.962 268.25 181.277C264.06 180.719 260.097 179.126 256.754 176.656C256.625 176.556 256.754 176.3 256.9 176.378Z" fill="#263238"/>
<path d="M76.6865 244.472L106.192 244.338L135.698 244.288L194.71 244.193L253.721 244.288L283.227 244.338L312.733 244.472L283.227 244.611L253.721 244.656L194.71 244.751L135.698 244.656L106.192 244.606L76.6865 244.472Z" fill="#263238"/>
<path d="M112.888 220.813H86.8887V257.954H112.888V220.813Z" fill="#3C8AFF"/>
<path d="M116.032 210.837H83.752V220.807H116.032V210.837Z" fill="#455A64"/>
<path d="M108.546 231.497H91.2383V247.977H108.546V231.497Z" fill="white"/>
<path opacity="0.1" d="M86.8887 220.813V223.706L101.527 228.973V257.948H108.545V220.813H86.8887Z" fill="black"/>
<path d="M78.8174 257.1C78.8174 256.691 78.9021 256.286 79.0666 255.909C79.2311 255.531 79.4722 255.188 79.7761 254.899C80.08 254.61 80.4407 254.381 80.8376 254.225C81.2346 254.069 81.6599 253.99 82.0893 253.99H88.598C89.0277 253.99 89.4533 254.069 89.8506 254.225C90.2478 254.381 90.609 254.61 90.9133 254.899C91.2177 255.188 91.4594 255.531 91.6245 255.908C91.7896 256.286 91.875 256.691 91.8758 257.1C91.8743 257.927 91.5282 258.719 90.9137 259.303C90.2992 259.888 89.4663 260.216 88.598 260.216H82.1127C81.6813 260.218 81.2537 260.139 80.8543 259.983C80.455 259.828 80.0918 259.599 79.7857 259.309C79.4795 259.02 79.2364 258.676 79.0702 258.297C78.9041 257.918 78.8181 257.511 78.8174 257.1Z" fill="#455A64"/>
<path d="M78.8174 257.1C78.8174 256.691 78.9021 256.286 79.0666 255.909C79.2311 255.531 79.4722 255.188 79.7761 254.899C80.08 254.61 80.4407 254.381 80.8376 254.225C81.2346 254.069 81.6599 253.99 82.0893 253.99H85.3378V260.227H82.1127C81.6803 260.229 81.2517 260.15 80.8516 259.993C80.4515 259.837 80.0879 259.607 79.7815 259.317C79.4752 259.026 79.2324 258.68 79.0669 258.3C78.9014 257.92 78.8166 257.512 78.8174 257.1Z" fill="#3C8AFF"/>
<path d="M123.302 257.101C123.301 257.51 123.215 257.915 123.05 258.292C122.885 258.67 122.644 259.013 122.339 259.302C122.035 259.591 121.674 259.82 121.276 259.975C120.879 260.131 120.454 260.211 120.024 260.21H113.568C113.138 260.211 112.713 260.131 112.315 259.975C111.918 259.82 111.557 259.591 111.253 259.302C110.948 259.013 110.706 258.67 110.541 258.292C110.376 257.915 110.291 257.51 110.29 257.101C110.29 256.273 110.635 255.479 111.25 254.894C111.865 254.308 112.698 253.979 113.568 253.979H120.047C120.913 253.985 121.74 254.317 122.35 254.901C122.96 255.486 123.302 256.277 123.302 257.101Z" fill="#455A64"/>
<path d="M123.302 257.101C123.301 257.51 123.216 257.915 123.05 258.292C122.885 258.67 122.644 259.013 122.339 259.302C122.035 259.591 121.674 259.82 121.276 259.975C120.879 260.131 120.454 260.211 120.024 260.21H116.805V253.979H120.047C120.913 253.985 121.74 254.317 122.35 254.901C122.96 255.486 123.302 256.277 123.302 257.101Z" fill="#3C8AFF"/>
<path d="M130.682 258.354C130.379 258.644 130.019 258.874 129.622 259.03C129.225 259.187 128.8 259.268 128.37 259.268C127.941 259.268 127.516 259.187 127.119 259.03C126.722 258.874 126.362 258.644 126.058 258.354L121.469 253.991C120.857 253.406 120.513 252.615 120.513 251.789C120.513 250.964 120.857 250.172 121.469 249.588C122.085 249.004 122.918 248.676 123.787 248.676C124.656 248.676 125.49 249.004 126.105 249.588L130.688 253.952C131.299 254.537 131.641 255.329 131.64 256.154C131.638 256.979 131.294 257.77 130.682 258.354Z" fill="#455A64"/>
<path d="M130.682 258.355C130.379 258.644 130.018 258.874 129.622 259.031C129.225 259.188 128.8 259.268 128.37 259.268C127.941 259.268 127.515 259.188 127.119 259.031C126.722 258.874 126.361 258.644 126.058 258.355L123.764 256.17L128.394 251.762L130.688 253.946C131.3 254.532 131.643 255.325 131.642 256.152C131.641 256.978 131.296 257.771 130.682 258.355Z" fill="#3C8AFF"/>
<path d="M101.024 263.337C101.025 262.928 101.111 262.523 101.276 262.146C101.441 261.768 101.683 261.425 101.987 261.136C102.291 260.847 102.652 260.618 103.05 260.463C103.447 260.307 103.873 260.227 104.302 260.228H110.782C111.211 260.227 111.637 260.307 112.034 260.463C112.431 260.618 112.793 260.847 113.097 261.136C113.401 261.425 113.643 261.768 113.808 262.146C113.973 262.523 114.059 262.928 114.059 263.337C114.058 264.164 113.712 264.957 113.097 265.541C112.483 266.125 111.65 266.453 110.782 266.453H104.302C103.434 266.453 102.601 266.125 101.987 265.541C101.372 264.957 101.026 264.164 101.024 263.337Z" fill="#455A64"/>
<path d="M101.024 263.337C101.025 262.928 101.111 262.523 101.276 262.146C101.441 261.768 101.683 261.425 101.987 261.136C102.291 260.847 102.652 260.618 103.05 260.463C103.447 260.307 103.873 260.227 104.302 260.228H107.545V266.464H104.302C103.871 266.464 103.445 266.383 103.046 266.226C102.648 266.069 102.287 265.838 101.982 265.548C101.678 265.258 101.437 264.913 101.272 264.534C101.108 264.154 101.024 263.748 101.024 263.337Z" fill="#3C8AFF"/>
<path d="M235.191 256.51L235.027 258.695C235.027 258.728 235.027 258.767 235.027 258.806C234.904 259.497 234.079 260.072 232.844 260.428C231.529 260.777 230.162 260.912 228.8 260.829L228.214 260.79C228.015 260.79 227.81 260.757 227.629 260.729C224.503 260.345 222.197 259.118 222.291 257.842L222.449 255.663C222.355 256.939 224.661 258.165 227.787 258.55L228.372 258.606C228.571 258.606 228.776 258.639 228.958 258.645C230.32 258.73 231.688 258.595 233.002 258.243C234.237 257.892 235.057 257.324 235.185 256.627C235.185 256.583 235.185 256.555 235.191 256.51Z" fill="#DBDBDB"/>
<path d="M224.62 253.93C225.931 253.581 227.294 253.446 228.653 253.529L227.757 258.544C227.95 258.544 228.155 258.589 228.343 258.6C228.53 258.611 228.741 258.634 228.928 258.645L229.823 253.629C233.043 254.019 235.39 255.301 235.15 256.622C235.033 257.318 234.208 257.887 232.972 258.249C231.657 258.598 230.29 258.733 228.928 258.65C228.729 258.65 228.524 258.65 228.343 258.606C228.161 258.561 227.939 258.572 227.757 258.55C224.538 258.16 222.191 256.878 222.431 255.557C222.554 254.861 223.391 254.286 224.62 253.93Z" fill="white"/>
<path d="M228.659 253.528L229.245 253.567L229.83 253.629L228.934 258.645C228.735 258.645 228.53 258.645 228.349 258.6C228.168 258.555 227.945 258.567 227.764 258.544L228.659 253.528Z" fill="#DBDBDB"/>
<path d="M234.828 260.534V262.719C234.825 262.756 234.825 262.793 234.828 262.83C234.892 263.527 235.67 264.168 236.864 264.614C238.146 265.062 239.497 265.301 240.862 265.322H241.448C241.647 265.322 241.851 265.322 242.033 265.322C245.182 265.177 247.588 264.129 247.599 262.847V260.662C247.599 261.939 245.182 262.986 242.033 263.137H241.448C241.253 263.147 241.057 263.147 240.862 263.137C239.498 263.118 238.146 262.88 236.864 262.435C235.659 261.989 234.892 261.353 234.828 260.651C234.824 260.612 234.824 260.573 234.828 260.534Z" fill="#DBDBDB"/>
<path d="M245.586 258.762C244.307 258.314 242.957 258.074 241.594 258.054L242.069 263.125C241.869 263.125 241.665 263.125 241.483 263.125H240.898L240.424 258.054C237.181 258.199 234.734 259.302 234.863 260.629C234.928 261.336 235.7 261.966 236.9 262.418C238.182 262.865 239.533 263.105 240.898 263.125H241.483C241.682 263.125 241.887 263.125 242.069 263.125C245.305 262.98 247.758 261.877 247.629 260.551C247.565 259.843 246.804 259.213 245.586 258.762Z" fill="white"/>
<path d="M241.593 258.054H241.008C240.809 258.054 240.614 258.054 240.423 258.054L240.897 263.125H241.482C241.681 263.125 241.886 263.125 242.068 263.125L241.593 258.054Z" fill="#DBDBDB"/>
<path d="M217.731 259.832C216.332 260.585 214.765 261.009 213.159 261.069C211.786 261.158 210.409 260.958 209.126 260.484C208.986 260.428 208.84 260.355 208.699 260.289C208.559 260.222 208.43 260.144 208.307 260.066C207.957 259.877 207.658 259.615 207.432 259.299C207.205 258.983 207.058 258.622 207.002 258.243L206.791 256.254C206.851 256.637 207.005 257.001 207.238 257.318C207.472 257.636 207.78 257.897 208.137 258.082C208.254 258.152 208.383 258.225 208.524 258.299C208.66 258.372 208.801 258.437 208.945 258.494C210.228 258.969 211.605 259.169 212.978 259.079C214.582 259.02 216.149 258.6 217.549 257.853C218.971 257.039 219.639 256.008 219.533 255.066L219.744 257.056C219.82 257.992 219.153 259.023 217.731 259.832Z" fill="#DBDBDB"/>
<path d="M208.922 258.494L209.039 259.654L217.538 254.799L217.333 252.81L208.097 258.082C208.208 258.154 208.343 258.227 208.483 258.299C208.623 258.372 208.758 258.433 208.922 258.494Z" fill="#3C8AFF"/>
<path d="M217.345 252.81C217.491 252.871 217.637 252.932 217.778 253.005C217.918 253.077 218.041 253.144 218.164 253.222L208.922 258.494C208.77 258.433 208.635 258.372 208.495 258.299C208.354 258.227 208.22 258.154 208.108 258.082L217.345 252.81Z" fill="#DBDBDB"/>
<path d="M218.164 253.222L218.375 255.206L209.127 260.478L208.922 258.494L218.164 253.222Z" fill="#DBDBDB"/>
<path d="M213.312 252.224C214.685 252.137 216.061 252.336 217.344 252.809L208.108 258.082C208.219 258.154 208.354 258.227 208.494 258.299C208.635 258.372 208.77 258.433 208.922 258.494L218.164 253.222C220.177 254.459 219.92 256.471 217.52 257.848C216.122 258.596 214.557 259.018 212.955 259.079C211.582 259.167 210.205 258.968 208.922 258.494C208.77 258.433 208.635 258.372 208.494 258.299C208.354 258.227 208.219 258.154 208.108 258.082C206.095 256.839 206.352 254.832 208.752 253.456C210.149 252.709 211.711 252.287 213.312 252.224Z" fill="white"/>
<path d="M251.515 258.226C252.912 258.978 254.477 259.403 256.081 259.463C257.456 259.554 258.835 259.354 260.12 258.878C260.26 258.822 260.406 258.75 260.547 258.683C260.687 258.616 260.816 258.538 260.933 258.46C261.289 258.275 261.595 258.015 261.828 257.699C262.06 257.382 262.213 257.019 262.274 256.638L262.484 254.648C262.423 255.031 262.27 255.395 262.036 255.712C261.802 256.029 261.495 256.291 261.138 256.476C261.021 256.547 260.892 256.619 260.752 256.693C260.615 256.766 260.475 256.831 260.33 256.888C259.046 257.364 257.667 257.564 256.292 257.474C254.689 257.417 253.124 256.996 251.726 256.248C250.304 255.434 249.637 254.403 249.736 253.461L249.525 255.451C249.426 256.392 250.093 257.418 251.515 258.226Z" fill="#DBDBDB"/>
<path d="M260.325 256.889L260.202 258.048L251.691 253.194L251.902 251.21L261.138 256.477C261.014 256.556 260.885 256.629 260.752 256.694C260.612 256.767 260.471 256.828 260.325 256.889Z" fill="#3C8AFF"/>
<path d="M251.901 251.21C251.755 251.266 251.609 251.333 251.468 251.399C251.328 251.466 251.205 251.539 251.076 251.617L260.324 256.889C260.471 256.828 260.611 256.767 260.751 256.694C260.884 256.629 261.013 256.556 261.138 256.477L251.901 251.21Z" fill="#DBDBDB"/>
<path d="M251.082 251.616L250.871 253.6L260.119 258.873L260.324 256.889L251.082 251.616Z" fill="#DBDBDB"/>
<path d="M255.928 250.625C254.557 250.532 253.181 250.732 251.901 251.21L261.137 256.477C261.013 256.556 260.884 256.629 260.751 256.694C260.611 256.767 260.47 256.828 260.324 256.889L251.076 251.617C249.068 252.86 249.32 254.866 251.726 256.243C253.124 256.991 254.688 257.413 256.291 257.474C257.664 257.568 259.042 257.368 260.324 256.889C260.47 256.828 260.611 256.767 260.751 256.694C260.884 256.629 261.013 256.556 261.137 256.477C263.151 255.234 262.893 253.227 260.494 251.851C259.096 251.102 257.531 250.682 255.928 250.625Z" fill="white"/>
<path d="M212.586 250.775L212.557 253.088C212.549 253.239 212.482 253.382 212.369 253.489C211.948 253.946 210.871 254.308 209.472 254.514C208.06 254.71 206.63 254.772 205.205 254.698L204.62 254.659L204.035 254.604C201.424 254.331 199.721 253.651 199.727 252.932L199.762 250.63C199.762 251.343 201.465 252.023 204.07 252.302C204.251 252.33 204.456 252.346 204.655 252.358L205.24 252.402C206.665 252.481 208.095 252.419 209.507 252.218C210.9 252.006 211.983 251.661 212.434 251.187C212.539 251.074 212.593 250.926 212.586 250.775Z" fill="#DBDBDB"/>
<path d="M204.66 252.353L204.625 254.66L204.04 254.604L204.069 252.297L204.66 252.353Z" fill="#DBDBDB"/>
<path d="M207.125 249.009L207.71 249.048C207.909 249.048 208.104 249.065 208.295 249.098L205.252 252.386L204.666 252.353L204.081 252.297L207.125 249.009Z" fill="#DBDBDB"/>
<path d="M208.29 249.098L208.255 251.405L205.211 254.699L205.246 252.386L208.29 249.098Z" fill="#DBDBDB"/>
<path d="M202.869 249.187C204.278 248.988 205.704 248.928 207.125 249.008L204.075 252.296L204.661 252.352L205.246 252.386L208.289 249.097C211.374 249.421 213.2 250.324 212.387 251.182C211.965 251.639 210.888 251.996 209.46 252.207C208.052 252.406 206.626 252.466 205.205 252.386L204.62 252.352L204.034 252.296C200.944 251.973 199.123 251.076 199.937 250.212C200.388 249.755 201.465 249.398 202.869 249.187Z" fill="white"/>
<path d="M228.407 250.953L228.442 253.26C228.443 253.336 228.461 253.41 228.493 253.479C228.525 253.548 228.572 253.61 228.63 253.662C229.051 254.119 230.128 254.481 231.527 254.693C232.937 254.888 234.365 254.95 235.788 254.877L236.373 254.832C236.561 254.832 236.76 254.804 236.959 254.776C239.569 254.503 241.272 253.823 241.261 253.104V250.797C241.261 251.516 239.558 252.196 236.953 252.469L236.368 252.525L235.782 252.564C234.359 252.648 232.93 252.586 231.521 252.38C230.122 252.173 229.045 251.822 228.624 251.354C228.56 251.305 228.508 251.244 228.471 251.175C228.434 251.106 228.412 251.03 228.407 250.953Z" fill="#DBDBDB"/>
<path d="M236.344 252.525L236.373 254.832C236.566 254.832 236.765 254.799 236.958 254.782L236.923 252.475L236.344 252.525Z" fill="#DBDBDB"/>
<path d="M233.874 249.181L233.288 249.22L232.703 249.27L235.747 252.564L236.332 252.525L236.917 252.474L233.874 249.181Z" fill="#DBDBDB"/>
<path d="M232.709 249.271L232.738 251.583L235.788 254.872L235.753 252.564L232.709 249.271Z" fill="#DBDBDB"/>
<path d="M238.123 249.36C236.717 249.164 235.293 249.104 233.874 249.181L236.917 252.475L236.332 252.525L235.747 252.564L232.703 249.27C229.613 249.599 227.792 250.497 228.606 251.355C229.027 251.812 230.104 252.174 231.503 252.38C232.913 252.581 234.341 252.643 235.764 252.564L236.35 252.525L236.935 252.475C240.031 252.152 241.852 251.249 241.032 250.391C240.611 249.934 239.528 249.571 238.123 249.36Z" fill="white"/>
<path d="M213.651 262.334L213.681 264.647C213.682 264.723 213.699 264.797 213.731 264.866C213.763 264.935 213.81 264.997 213.868 265.049C214.289 265.506 215.366 265.862 216.765 266.074C218.176 266.269 219.603 266.331 221.026 266.258L221.612 266.219L222.197 266.163C224.808 265.89 226.511 265.205 226.505 264.491L226.47 262.189C226.47 262.903 224.767 263.583 222.162 263.861L221.577 263.917L220.991 263.956C219.566 264.04 218.136 263.979 216.724 263.772C215.325 263.566 214.248 263.215 213.827 262.747C213.714 262.637 213.651 262.488 213.651 262.334Z" fill="#DBDBDB"/>
<path d="M221.582 263.928L221.617 266.241L222.202 266.185L222.167 263.878L221.582 263.928Z" fill="#DBDBDB"/>
<path d="M219.112 260.584L218.527 260.623L217.941 260.679L220.985 263.967L221.57 263.928L222.156 263.878L219.112 260.584Z" fill="#DBDBDB"/>
<path d="M217.947 260.656L217.977 262.964L221.026 266.252L220.991 263.944L217.947 260.656Z" fill="#DBDBDB"/>
<path d="M223.391 260.745C221.983 260.544 220.557 260.483 219.136 260.561L222.18 263.855L221.594 263.905L221.009 263.944L217.965 260.656C214.881 260.979 213.055 261.877 213.868 262.741C214.29 263.192 215.367 263.554 216.766 263.766C218.176 263.962 219.604 264.022 221.027 263.944L221.612 263.905L222.197 263.855C225.294 263.532 227.114 262.629 226.295 261.771C225.85 261.314 224.767 260.957 223.391 260.745Z" fill="white"/>
<path d="M275.05 211.985H295.332C296.648 211.985 297.911 212.483 298.841 213.37C299.772 214.256 300.295 215.458 300.295 216.711V259.213C300.295 259.682 300.1 260.131 299.752 260.462C299.404 260.794 298.932 260.98 298.44 260.98H271.972C271.48 260.98 271.008 260.794 270.66 260.462C270.312 260.131 270.116 259.682 270.116 259.213V216.706C270.118 215.458 270.637 214.262 271.562 213.377C272.486 212.493 273.74 211.993 275.05 211.985Z" fill="#3C8AFF"/>
<path d="M293.938 205.766H276.449V213.395H293.938V205.766Z" fill="#3C8AFF"/>
<path d="M300.295 227.942H270.093V247.332H300.295V227.942Z" fill="white"/>
<path d="M300.295 243.369H270.093V245.125H300.295V243.369Z" fill="#455A64"/>
<path d="M300.295 230.154H270.093V231.91H300.295V230.154Z" fill="#455A64"/>
<path d="M295.156 200.427H275.231V207.494H295.156V200.427Z" fill="#455A64"/>
<path d="M296.198 207.488H274.185V209.578H296.198V207.488Z" fill="#37474F"/>
<path d="M276.824 201.413H276.566C276.385 201.413 276.238 201.553 276.238 201.725V206.195C276.238 206.367 276.385 206.507 276.566 206.507H276.824C277.005 206.507 277.151 206.367 277.151 206.195V201.725C277.151 201.553 277.005 201.413 276.824 201.413Z" fill="#37474F"/>
<path d="M278.522 201.413H278.264C278.083 201.413 277.937 201.553 277.937 201.725V206.195C277.937 206.367 278.083 206.507 278.264 206.507H278.522C278.703 206.507 278.85 206.367 278.85 206.195V201.725C278.85 201.553 278.703 201.413 278.522 201.413Z" fill="#37474F"/>
<path d="M279.962 201.413H280.225C280.31 201.413 280.392 201.445 280.453 201.503C280.513 201.56 280.547 201.638 280.547 201.72V206.178C280.547 206.261 280.512 206.34 280.451 206.399C280.389 206.457 280.306 206.49 280.219 206.49H279.956C279.869 206.49 279.785 206.457 279.724 206.399C279.662 206.34 279.628 206.261 279.628 206.178V201.72C279.629 201.679 279.638 201.638 279.655 201.601C279.672 201.563 279.697 201.529 279.728 201.501C279.759 201.472 279.796 201.45 279.836 201.435C279.876 201.42 279.919 201.412 279.962 201.413Z" fill="#37474F"/>
<path d="M281.922 201.413H281.665C281.484 201.413 281.337 201.553 281.337 201.725V206.195C281.337 206.367 281.484 206.507 281.665 206.507H281.922C282.103 206.507 282.25 206.367 282.25 206.195V201.725C282.25 201.553 282.103 201.413 281.922 201.413Z" fill="#37474F"/>
<path d="M283.625 201.413H283.368C283.187 201.413 283.04 201.553 283.04 201.725V206.195C283.04 206.367 283.187 206.507 283.368 206.507H283.625C283.806 206.507 283.953 206.367 283.953 206.195V201.725C283.953 201.553 283.806 201.413 283.625 201.413Z" fill="#37474F"/>
<path d="M285.059 201.413H285.323C285.41 201.413 285.493 201.446 285.554 201.505C285.616 201.563 285.65 201.642 285.65 201.725V206.184C285.65 206.267 285.616 206.346 285.554 206.404C285.493 206.463 285.41 206.496 285.323 206.496H285.059C284.974 206.496 284.892 206.464 284.832 206.406C284.771 206.349 284.737 206.271 284.737 206.189V201.731C284.737 201.69 284.744 201.649 284.76 201.611C284.776 201.573 284.799 201.538 284.829 201.508C284.859 201.479 284.895 201.455 284.934 201.439C284.974 201.423 285.016 201.414 285.059 201.413Z" fill="#37474F"/>
<path d="M287.02 201.413H286.762C286.581 201.413 286.435 201.553 286.435 201.725V206.195C286.435 206.367 286.581 206.507 286.762 206.507H287.02C287.201 206.507 287.348 206.367 287.348 206.195V201.725C287.348 201.553 287.201 201.413 287.02 201.413Z" fill="#37474F"/>
<path d="M288.724 201.413H288.466C288.285 201.413 288.139 201.553 288.139 201.725V206.195C288.139 206.367 288.285 206.507 288.466 206.507H288.724C288.905 206.507 289.052 206.367 289.052 206.195V201.725C289.052 201.553 288.905 201.413 288.724 201.413Z" fill="#37474F"/>
<path d="M290.164 201.413H290.427C290.514 201.413 290.597 201.446 290.659 201.505C290.72 201.563 290.755 201.642 290.755 201.725V206.184C290.755 206.267 290.72 206.346 290.659 206.404C290.597 206.463 290.514 206.496 290.427 206.496H290.164C290.078 206.496 289.997 206.464 289.936 206.406C289.876 206.349 289.842 206.271 289.842 206.189V201.731C289.841 201.69 289.849 201.649 289.865 201.611C289.88 201.573 289.904 201.538 289.934 201.508C289.964 201.479 289.999 201.455 290.039 201.439C290.078 201.423 290.121 201.414 290.164 201.413Z" fill="#37474F"/>
<path d="M292.119 201.413H291.861C291.68 201.413 291.533 201.553 291.533 201.725V206.195C291.533 206.367 291.68 206.507 291.861 206.507H292.119C292.3 206.507 292.446 206.367 292.446 206.195V201.725C292.446 201.553 292.3 201.413 292.119 201.413Z" fill="#37474F"/>
<path d="M293.822 201.413H293.564C293.383 201.413 293.236 201.553 293.236 201.725V206.195C293.236 206.367 293.383 206.507 293.564 206.507H293.822C294.003 206.507 294.149 206.367 294.149 206.195V201.725C294.149 201.553 294.003 201.413 293.822 201.413Z" fill="#37474F"/>
<path d="M149.279 272.646L149.447 256.49L147.206 256.469L147.037 272.625L149.279 272.646Z" fill="#3C8AFF"/>
<path opacity="0.1" d="M149.279 272.646L149.447 256.49L147.206 256.469L147.037 272.625L149.279 272.646Z" fill="black"/>
<path d="M134.08 269.647L134.184 259.755L131.942 259.734L131.839 269.626L134.08 269.647Z" fill="#3C8AFF"/>
<path opacity="0.1" d="M134.08 269.647L134.184 259.755L131.942 259.734L131.839 269.626L134.08 269.647Z" fill="black"/>
<path d="M147.098 267.44L147.153 262.19L134.16 262.067L134.105 267.317L147.098 267.44Z" fill="#3C8AFF"/>
<path opacity="0.2" d="M144.993 267.417L145.76 262.173L147.147 262.19L147.089 267.434L144.993 267.417Z" fill="black"/>
<path d="M197.005 265.043C199.258 264.993 201.512 264.982 203.771 264.971H210.532L217.292 265.077L220.669 265.16C221.799 265.199 222.923 265.227 224.052 265.283C222.923 265.311 221.799 265.316 220.669 265.339H217.286H210.526L203.765 265.233C201.512 265.171 199.258 265.116 197.005 265.043Z" fill="#263238"/>
<path d="M195.395 270.793L195.516 259.229L149.424 258.793L149.303 270.357L195.395 270.793Z" fill="#3C8AFF"/>
<path opacity="0.6" d="M195.395 270.793L195.516 259.229L149.424 258.793L149.303 270.357L195.395 270.793Z" fill="white"/>
<path d="M195.411 269.273L195.5 260.752L151.592 260.336L151.503 268.857L195.411 269.273Z" fill="#3C8AFF"/>
<path d="M190.728 261.777L190.75 259.626L190.481 259.623L190.458 261.775L190.728 261.777Z" fill="#263238"/>
<path d="M189.829 261.783L189.852 259.632L189.582 259.629L189.56 261.78L189.829 261.783Z" fill="#263238"/>
<path d="M188.919 261.772L188.941 259.621L188.672 259.619L188.65 261.77L188.919 261.772Z" fill="#263238"/>
<path d="M188.015 261.767L188.037 259.616L187.768 259.614L187.745 261.765L188.015 261.767Z" fill="#263238"/>
<path d="M187.091 263.325L187.13 259.597L186.861 259.594L186.822 263.322L187.091 263.325Z" fill="#263238"/>
<path d="M186.247 261.751L186.27 259.6L186 259.597L185.978 261.748L186.247 261.751Z" fill="#263238"/>
<path d="M185.338 261.739L185.36 259.588L185.091 259.585L185.069 261.737L185.338 261.739Z" fill="#263238"/>
<path d="M184.434 261.722L184.456 259.571L184.187 259.569L184.164 261.72L184.434 261.722Z" fill="#263238"/>
<path d="M183.51 261.711L183.532 259.56L183.263 259.557L183.24 261.708L183.51 261.711Z" fill="#263238"/>
<path d="M182.6 263.287L182.639 259.559L182.369 259.556L182.33 263.284L182.6 263.287Z" fill="#263238"/>
<path d="M181.762 261.707L181.784 259.556L181.515 259.553L181.492 261.704L181.762 261.707Z" fill="#263238"/>
<path d="M180.846 261.684L180.868 259.533L180.599 259.531L180.576 261.682L180.846 261.684Z" fill="#263238"/>
<path d="M179.942 261.679L179.965 259.527L179.696 259.525L179.673 261.676L179.942 261.679Z" fill="#263238"/>
<path d="M179.038 261.684L179.061 259.533L178.791 259.531L178.769 261.682L179.038 261.684Z" fill="#263238"/>
<path d="M178.113 263.249L178.152 259.521L177.883 259.518L177.844 263.246L178.113 263.249Z" fill="#263238"/>
<path d="M177.27 261.663L177.293 259.512L177.024 259.509L177.001 261.66L177.27 261.663Z" fill="#263238"/>
<path d="M176.36 261.646L176.383 259.495L176.114 259.493L176.091 261.644L176.36 261.646Z" fill="#263238"/>
<path d="M175.456 261.646L175.479 259.495L175.209 259.493L175.187 261.644L175.456 261.646Z" fill="#263238"/>
<path d="M174.546 261.624L174.568 259.473L174.299 259.47L174.277 261.621L174.546 261.624Z" fill="#263238"/>
<path d="M173.628 263.199L173.667 259.471L173.398 259.468L173.359 263.196L173.628 263.199Z" fill="#263238"/>
<path d="M172.778 261.619L172.801 259.468L172.532 259.465L172.509 261.616L172.778 261.619Z" fill="#263238"/>
<path d="M171.868 261.602L171.891 259.451L171.621 259.449L171.599 261.6L171.868 261.602Z" fill="#263238"/>
<path d="M170.971 261.602L170.993 259.451L170.724 259.449L170.701 261.6L170.971 261.602Z" fill="#263238"/>
<path d="M170.061 261.58L170.083 259.429L169.814 259.426L169.791 261.577L170.061 261.58Z" fill="#263238"/>
<path d="M169.137 263.161L169.176 259.433L168.907 259.43L168.868 263.158L169.137 263.161Z" fill="#263238"/>
<path d="M168.293 261.575L168.315 259.424L168.046 259.421L168.024 261.572L168.293 261.575Z" fill="#263238"/>
<path d="M167.389 261.569L167.411 259.418L167.142 259.415L167.119 261.567L167.389 261.569Z" fill="#263238"/>
<path d="M166.485 261.558L166.508 259.407L166.239 259.405L166.216 261.556L166.485 261.558Z" fill="#263238"/>
<path d="M165.569 261.542L165.592 259.391L165.323 259.388L165.3 261.539L165.569 261.542Z" fill="#263238"/>
<path d="M164.65 263.122L164.689 259.394L164.42 259.391L164.381 263.119L164.65 263.122Z" fill="#263238"/>
<path d="M163.802 261.525L163.824 259.374L163.555 259.371L163.532 261.523L163.802 261.525Z" fill="#263238"/>
<path d="M162.897 261.519L162.92 259.368L162.651 259.366L162.628 261.517L162.897 261.519Z" fill="#263238"/>
<path d="M161.987 261.509L162.01 259.357L161.741 259.355L161.718 261.506L161.987 261.509Z" fill="#263238"/>
<path d="M161.083 261.503L161.105 259.352L160.836 259.349L160.814 261.5L161.083 261.503Z" fill="#263238"/>
<path d="M160.165 263.073L160.204 259.345L159.935 259.342L159.896 263.071L160.165 263.073Z" fill="#263238"/>
<path d="M159.315 261.487L159.338 259.336L159.069 259.333L159.046 261.485L159.315 261.487Z" fill="#263238"/>
<path d="M158.405 261.475L158.428 259.324L158.158 259.322L158.136 261.473L158.405 261.475Z" fill="#263238"/>
<path d="M157.496 261.459L157.519 259.308L157.249 259.305L157.227 261.456L157.496 261.459Z" fill="#263238"/>
<path d="M156.598 261.471L156.62 259.319L156.351 259.317L156.328 261.468L156.598 261.471Z" fill="#263238"/>
<path d="M155.668 263.029L155.707 259.301L155.438 259.298L155.399 263.027L155.668 263.029Z" fill="#263238"/>
<path d="M154.824 261.443L154.847 259.292L154.577 259.289L154.555 261.441L154.824 261.443Z" fill="#263238"/>
<path d="M153.92 261.443L153.942 259.292L153.673 259.289L153.651 261.441L153.92 261.443Z" fill="#263238"/>
<path d="M153.016 261.427L153.038 259.275L152.769 259.273L152.746 261.424L153.016 261.427Z" fill="#263238"/>
<path d="M152.106 261.427L152.129 259.275L151.86 259.273L151.837 261.424L152.106 261.427Z" fill="#263238"/>
<path d="M151.182 262.99L151.221 259.262L150.951 259.259L150.913 262.987L151.182 262.99Z" fill="#263238"/>
<path d="M195.394 270.79L195.515 259.226L192.038 259.193L191.917 270.757L195.394 270.79Z" fill="#263238"/>
<path d="M199.398 268.958L199.479 261.145L195.5 261.107L195.418 268.92L199.398 268.958Z" fill="#3C8AFF"/>
<path d="M204.192 266.091L204.21 264.079L199.445 263.672L199.416 266.408L204.192 266.091Z" fill="#3C8AFF"/>
<path opacity="0.1" d="M199.416 266.409L199.445 263.678L200.797 263.789L200.563 266.331L199.416 266.409Z" fill="black"/>
</svg>
