<svg width="375" height="439" viewBox="0 0 375 439" fill="none" xmlns="http://www.w3.org/2000/svg">
<path d="M311.226 114.97C341.903 112.613 381.191 76.6747 397 59V380.091C269.852 480.247 135.641 431.151 90.2306 389.91C44.8207 348.669 21.6111 242.621 96.2853 163.084C170.959 83.5482 272.879 117.916 311.226 114.97Z" fill="#E2EDFF"/>
<path d="M84.0221 29.866C50.6363 -10.6207 3.50846 -1.34251 -15.8823 8.35744C-90.7473 108.562 -35.273 141.204 1.82232 145C-4.24782 120.708 22.8992 101.139 37.2315 94.3916C66.7391 89.7525 117.408 70.3527 84.0221 29.866Z" fill="#E2EDFF"/>
<g opacity="0.3">
<path d="M115.551 217.139H74.2471L74.6652 209.167H115.969L115.551 217.139Z" stroke="#2E2E42" stroke-width="0.809315" stroke-linecap="round" stroke-linejoin="round"/>
<path d="M115.551 228.304H74.2471L74.6652 220.331H115.969L115.551 228.304Z" stroke="#2E2E42" stroke-width="0.809315" stroke-linecap="round" stroke-linejoin="round"/>
<path d="M115.551 239.467H74.2471L74.6652 231.494H115.969L115.551 239.467Z" stroke="#2E2E42" stroke-width="0.809315" stroke-linecap="round" stroke-linejoin="round"/>
<path d="M115.551 250.631H74.2471L74.6652 242.658H115.969L115.551 250.631Z" stroke="#2E2E42" stroke-width="0.809315" stroke-linecap="round" stroke-linejoin="round"/>
<path d="M115.551 261.799H74.2471L74.6652 253.821H115.969L115.551 261.799Z" stroke="#2E2E42" stroke-width="0.809315" stroke-linecap="round" stroke-linejoin="round"/>
<path d="M115.551 272.963H74.2471L74.6652 264.985H115.969L115.551 272.963Z" stroke="#2E2E42" stroke-width="0.809315" stroke-linecap="round" stroke-linejoin="round"/>
<path d="M115.551 284.126H74.2471L74.6652 276.148H115.969L115.551 284.126Z" stroke="#2E2E42" stroke-width="0.809315" stroke-linecap="round" stroke-linejoin="round"/>
<path d="M115.551 295.29H74.2471L74.6652 287.312H115.969L115.551 295.29Z" stroke="#2E2E42" stroke-width="0.809315" stroke-linecap="round" stroke-linejoin="round"/>
<path d="M115.551 306.455H74.2471L74.6652 298.477H115.969L115.551 306.455Z" stroke="#2E2E42" stroke-width="0.809315" stroke-linecap="round" stroke-linejoin="round"/>
<path d="M115.551 317.618H74.2471L74.6652 309.64H115.969L115.551 317.618Z" stroke="#2E2E42" stroke-width="0.809315" stroke-linecap="round" stroke-linejoin="round"/>
<path d="M115.551 328.781H74.2471L74.6652 320.809H115.969L115.551 328.781Z" stroke="#2E2E42" stroke-width="0.809315" stroke-linecap="round" stroke-linejoin="round"/>
<path d="M159.226 217.139H117.922L118.34 209.167H159.644L159.226 217.139Z" stroke="#2E2E42" stroke-width="0.809315" stroke-linecap="round" stroke-linejoin="round"/>
<path d="M159.226 228.304H117.922L118.34 220.331H159.644L159.226 228.304Z" stroke="#2E2E42" stroke-width="0.809315" stroke-linecap="round" stroke-linejoin="round"/>
<path d="M159.226 239.467H117.922L118.34 231.494H159.644L159.226 239.467Z" stroke="#2E2E42" stroke-width="0.809315" stroke-linecap="round" stroke-linejoin="round"/>
<path d="M159.226 250.631H117.922L118.34 242.658H159.644L159.226 250.631Z" stroke="#2E2E42" stroke-width="0.809315" stroke-linecap="round" stroke-linejoin="round"/>
<path d="M159.226 261.799H117.922L118.34 253.821H159.644L159.226 261.799Z" stroke="#2E2E42" stroke-width="0.809315" stroke-linecap="round" stroke-linejoin="round"/>
<path d="M159.226 272.963H117.922L118.34 264.985H159.644L159.226 272.963Z" stroke="#2E2E42" stroke-width="0.809315" stroke-linecap="round" stroke-linejoin="round"/>
<path d="M159.226 284.126H117.922L118.34 276.148H159.644L159.226 284.126Z" stroke="#2E2E42" stroke-width="0.809315" stroke-linecap="round" stroke-linejoin="round"/>
<path d="M159.226 295.29H117.922L118.34 287.312H159.644L159.226 295.29Z" stroke="#2E2E42" stroke-width="0.809315" stroke-linecap="round" stroke-linejoin="round"/>
<path d="M159.226 306.455H117.922L118.34 298.477H159.644L159.226 306.455Z" stroke="#2E2E42" stroke-width="0.809315" stroke-linecap="round" stroke-linejoin="round"/>
<path d="M159.226 317.618H117.922L118.34 309.64H159.644L159.226 317.618Z" stroke="#2E2E42" stroke-width="0.809315" stroke-linecap="round" stroke-linejoin="round"/>
<path d="M159.226 328.781H117.922L118.34 320.809H159.644L159.226 328.781Z" stroke="#2E2E42" stroke-width="0.809315" stroke-linecap="round" stroke-linejoin="round"/>
</g>
<g opacity="0.3">
<path d="M286.23 225.393H232.915V265.728H286.23V225.393Z" stroke="#2E2E42" stroke-width="0.809315" stroke-linecap="round" stroke-linejoin="round"/>
<path d="M283.33 228.727H235.804V262.399H283.33V228.727Z" stroke="#2E2E42" stroke-width="0.809315" stroke-linecap="round" stroke-linejoin="round"/>
<path d="M251.303 234.031H267.836" stroke="#2E2E42" stroke-width="0.809315" stroke-linecap="round" stroke-linejoin="round"/>
<path d="M240.596 238.917H278.543" stroke="#2E2E42" stroke-width="0.809315" stroke-linecap="round" stroke-linejoin="round"/>
<path d="M249.053 248.683H270.087" stroke="#2E2E42" stroke-width="0.809315" stroke-linecap="round" stroke-linejoin="round"/>
<path d="M240.97 258.454H249.239" stroke="#2E2E42" stroke-width="0.809315" stroke-linecap="round" stroke-linejoin="round"/>
<path d="M269.899 258.454H278.163" stroke="#2E2E42" stroke-width="0.809315" stroke-linecap="round" stroke-linejoin="round"/>
</g>
<g opacity="0.3">
<path d="M300.705 274.234H261.465V303.923H300.705V274.234Z" stroke="#2E2E42" stroke-width="0.809315" stroke-linecap="round" stroke-linejoin="round"/>
<path d="M298.576 276.688H263.594V301.475H298.576V276.688Z" stroke="#2E2E42" stroke-width="0.809315" stroke-linecap="round" stroke-linejoin="round"/>
<path d="M275.006 280.595H287.171" stroke="#2E2E42" stroke-width="0.809315" stroke-linecap="round" stroke-linejoin="round"/>
<path d="M267.121 284.188H295.055" stroke="#2E2E42" stroke-width="0.809315" stroke-linecap="round" stroke-linejoin="round"/>
<path d="M273.344 291.379H288.832" stroke="#2E2E42" stroke-width="0.809315" stroke-linecap="round" stroke-linejoin="round"/>
<path d="M267.396 298.57H273.482" stroke="#2E2E42" stroke-width="0.809315" stroke-linecap="round" stroke-linejoin="round"/>
<path d="M288.688 298.57H294.774" stroke="#2E2E42" stroke-width="0.809315" stroke-linecap="round" stroke-linejoin="round"/>
</g>
<path d="M255.248 295.12L198.286 293.139C195.938 293.058 193.59 293.058 191.243 293.139L138.176 295.12L140.531 220.611C140.619 217.791 140.619 214.966 140.531 212.138L138.176 141.833H255.248V295.12Z" fill="#2E2E42" stroke="#2E2E42" stroke-width="0.809315" stroke-linecap="round" stroke-linejoin="round"/>
<path d="M257.13 139.203H140.058V292.49H257.13V139.203Z" fill="white" stroke="#2E2E42" stroke-width="0.809315" stroke-linecap="round" stroke-linejoin="round"/>
<path d="M249.344 180.98H147.837V283.737H249.344V180.98Z" fill="white" stroke="#2E2E42" stroke-width="0.809315" stroke-linecap="round" stroke-linejoin="round"/>
<path d="M148.789 165.624V146.834H154.291C155.248 146.792 156.198 147.009 157.042 147.461C157.747 147.881 158.295 148.521 158.599 149.283C158.952 150.204 159.121 151.185 159.094 152.171C159.138 153.193 158.923 154.21 158.467 155.126C158.083 155.854 157.467 156.435 156.718 156.776C155.879 157.136 154.972 157.31 154.06 157.288H152.206V165.624H148.789ZM152.222 154.862H153.521C154.019 154.884 154.516 154.792 154.973 154.592C155.145 154.506 155.297 154.385 155.42 154.238C155.544 154.09 155.635 153.918 155.689 153.734C155.837 153.217 155.904 152.681 155.887 152.144C155.898 151.59 155.848 151.036 155.738 150.493C155.7 150.3 155.622 150.117 155.511 149.956C155.399 149.794 155.256 149.657 155.089 149.552C154.601 149.319 154.061 149.215 153.521 149.25H152.222V154.862Z" fill="#3C8AFF"/>
<path d="M152.965 174.686L156.745 164.716L153.08 155.913H156.283L158.714 161.734L160.849 155.913H163.82L160.184 165.366L164.079 174.686H160.899L158.23 168.375L155.908 174.681L152.965 174.686Z" fill="#3C8AFF"/>
<path d="M205.614 152.628H249.009" stroke="#2E2E42" stroke-width="0.809315" stroke-linecap="round" stroke-linejoin="round"/>
<path d="M205.614 161.992H249.009" stroke="#2E2E42" stroke-width="0.809315" stroke-linecap="round" stroke-linejoin="round"/>
<path d="M214.984 157.938H249.009" stroke="#2E2E42" stroke-width="0.809315" stroke-linecap="round" stroke-linejoin="round"/>
<path d="M214.984 166.367H249.009" stroke="#2E2E42" stroke-width="0.809315" stroke-linecap="round" stroke-linejoin="round"/>
<path d="M151.293 192.275H185.323" stroke="#2E2E42" stroke-width="0.809315" stroke-linecap="round" stroke-linejoin="round"/>
<path d="M151.293 201.161H185.323" stroke="#2E2E42" stroke-width="0.809315" stroke-linecap="round" stroke-linejoin="round"/>
<path d="M151.293 196.87H202.809" stroke="#2E2E42" stroke-width="0.809315" stroke-linecap="round" stroke-linejoin="round"/>
<path d="M151.293 211.989H185.323" stroke="#2E2E42" stroke-width="0.809315" stroke-linecap="round" stroke-linejoin="round"/>
<path d="M151.293 220.875H185.323" stroke="#2E2E42" stroke-width="0.809315" stroke-linecap="round" stroke-linejoin="round"/>
<path d="M151.293 216.584H202.809" stroke="#2E2E42" stroke-width="0.809315" stroke-linecap="round" stroke-linejoin="round"/>
<path d="M150.566 278.195H182.825" stroke="#2E2E42" stroke-width="0.809315" stroke-linecap="round" stroke-linejoin="round"/>
<path d="M211.738 278.195H243.997" stroke="#2E2E42" stroke-width="0.809315" stroke-linecap="round" stroke-linejoin="round"/>
<path d="M155.116 242.779C153.187 244.003 151.665 245.771 150.74 247.86C149.816 249.949 149.531 252.266 149.923 254.516C150.315 256.767 151.365 258.851 152.94 260.505C154.516 262.159 156.547 263.309 158.775 263.809C161.004 264.31 163.332 264.138 165.463 263.316C167.595 262.494 169.435 261.059 170.751 259.192C172.067 257.324 172.8 255.109 172.857 252.825C172.914 250.542 172.293 248.292 171.072 246.361C170.261 245.077 169.204 243.966 167.962 243.091C166.721 242.216 165.319 241.595 163.837 241.262C162.355 240.929 160.822 240.892 159.326 241.152C157.829 241.413 156.399 241.966 155.116 242.779ZM166.203 260.259C164.678 261.225 162.901 261.718 161.097 261.674C159.292 261.63 157.541 261.053 156.065 260.014C154.588 258.975 153.453 257.522 152.803 255.838C152.152 254.154 152.016 252.315 152.41 250.554C152.805 248.792 153.713 247.187 155.02 245.942C156.326 244.696 157.973 243.866 159.751 243.556C161.53 243.247 163.36 243.471 165.011 244.202C166.661 244.932 168.059 246.135 169.026 247.66C169.668 248.672 170.104 249.801 170.31 250.983C170.516 252.164 170.487 253.374 170.225 254.544C169.963 255.714 169.472 256.821 168.782 257.802C168.092 258.782 167.216 259.618 166.203 260.259Z" fill="#3C8AFF"/>
<path d="M165.605 248.786L155.766 255.021L156.77 256.605L166.609 250.371L165.605 248.786Z" fill="#3C8AFF"/>
<path d="M155.732 274.564C155.732 274.564 155.892 278.229 160.684 271.692C165.477 265.156 164.833 265.64 163.556 269.304C162.578 271.841 161.284 274.244 159.705 276.457C159.705 276.457 165.449 267.368 165.449 269.915C165.449 272.463 160.024 283.313 161.141 282.355C162.258 281.398 165.768 276.617 165.768 276.617C165.768 276.617 165.289 279.802 166.56 278.366C167.831 276.93 169.273 274.064 169.113 275.659C168.954 277.255 166.88 279.164 168.954 277.255C171.028 275.346 172.624 272.947 172.145 274.702C171.666 276.457 170.39 277.095 171.666 276.457C172.943 275.819 180.117 263.857 177.884 265.293C175.65 266.729 171.507 279.164 173.421 278.207C175.336 277.249 177.565 272.468 177.405 274.861C177.245 277.255 177.884 277.255 178.505 276.457" stroke="#2E2E42" stroke-width="0.809315" stroke-linecap="round" stroke-linejoin="round"/>
<path d="M313.19 375.389H62" stroke="#2E2E42" stroke-width="0.809315" stroke-linecap="round" stroke-linejoin="round"/>
<path d="M313.19 380.648H62" stroke="#2E2E42" stroke-width="0.809315" stroke-linecap="round" stroke-linejoin="round"/>
<path d="M299.43 317.37H246.17C245.33 317.369 244.517 317.672 243.881 318.221C243.246 318.771 242.83 319.532 242.709 320.363L234.742 374.833H298.076L302.912 321.167C302.954 320.684 302.896 320.198 302.74 319.739C302.584 319.28 302.334 318.859 302.006 318.502C301.679 318.145 301.281 317.86 300.837 317.665C300.393 317.47 299.914 317.37 299.43 317.37Z" fill="#2E2E42" stroke="#2E2E42" stroke-width="0.809315" stroke-linecap="round" stroke-linejoin="round"/>
<path d="M227.309 308.479C227.309 308.479 212.899 315.631 207.953 317.607C203.006 319.582 201.79 320.468 201.35 321.678C200.91 322.889 181.664 353.133 179.469 355.884C177.273 358.635 172.536 364.572 173.196 368.638C173.857 372.704 179.139 376.231 184.2 376.121C189.262 376.011 192.453 375.021 193.004 373.59C193.554 372.159 207.524 347.18 207.524 347.18L211.925 375.004H268.129C268.129 375.004 272.53 336.952 272.53 331.34C272.53 325.728 273.631 319.131 271.32 317.7C269.009 316.27 259.441 312.974 252.398 310.663C245.356 308.352 243.16 307.912 241.515 307.912C239.87 307.912 227.309 308.479 227.309 308.479Z" fill="white" stroke="#2E2E42" stroke-width="0.809315" stroke-linecap="round" stroke-linejoin="round"/>
<path d="M225.785 308.677C225.785 308.677 223.914 312.198 223.804 315.059C223.694 317.92 223.254 323.197 221.604 326.388C219.953 329.579 218.743 331.34 219.623 331.004C220.503 330.669 225.56 325.067 226.11 323.851C226.66 322.636 227.54 324.952 227.54 324.952C227.54 324.952 225.89 329.678 225.67 330.338C225.45 330.999 232.597 340.127 232.597 340.127C232.597 340.127 238.759 335.29 240.189 334.19C241.62 333.089 241.18 332.209 241.29 330.779C241.4 329.348 241.84 327.263 242.605 326.052C243.37 324.842 245.581 329.585 247.117 331.785C248.652 333.986 250.198 334.757 249.978 333.106C249.758 331.455 248.987 328.264 248.437 322.652C247.887 317.04 247.997 310.333 246.566 308.242C245.136 306.151 237.631 305.739 232.707 305.387C231.361 305.237 230 305.465 228.777 306.046C227.555 306.628 226.518 307.539 225.785 308.677Z" fill="white" stroke="#2E2E42" stroke-width="0.809315" stroke-linecap="round" stroke-linejoin="round"/>
<path d="M203.568 327.411L207.529 347.196L202.412 334.041" stroke="#2E2E42" stroke-width="0.809315" stroke-linecap="round" stroke-linejoin="round"/>
<path d="M226.335 313.982C226.335 313.982 227.876 322.559 229.306 329.156C230.093 332.911 231.197 336.592 232.607 340.16C232.607 340.16 239.87 327.951 241.961 321.574C243.148 318.056 244.068 314.453 244.712 310.796H226.335V313.982Z" stroke="#2E2E42" stroke-width="0.809315" stroke-linecap="round" stroke-linejoin="round"/>
<path d="M234.362 316.931L230.406 321.883L233.157 327.164L230.45 333.717C231.047 335.897 231.767 338.04 232.607 340.138C232.607 340.138 234.874 336.331 237.234 331.885L235.248 327.302L237.669 321.8L234.362 316.931Z" fill="#3C8AFF" stroke="#2E2E42" stroke-width="0.809315" stroke-linecap="round" stroke-linejoin="round"/>
<path d="M226.335 310.79V313.981C226.335 313.981 227.397 319.901 228.574 325.684L234.142 319.808L240.013 326.311C240.747 324.767 241.396 323.184 241.955 321.569C243.143 318.05 244.062 314.447 244.706 310.79H226.335Z" fill="white" stroke="#2E2E42" stroke-width="0.809315" stroke-linecap="round" stroke-linejoin="round"/>
<path d="M178.385 359.142C178.385 359.142 188.657 355.389 194.198 364.517" stroke="#2E2E42" stroke-width="0.809315" stroke-linecap="round" stroke-linejoin="round"/>
<path d="M194.379 361.7C194.379 361.7 188.64 362.999 185.576 367.89C182.511 372.781 188.745 373.326 190.467 373.326C192.189 373.326 193.818 372.171 193.911 371.571C194.005 370.971 196.261 365.172 196.173 363.818C196.163 363.313 195.979 362.827 195.652 362.441C195.325 362.055 194.876 361.794 194.379 361.7Z" fill="white" stroke="#2E2E42" stroke-width="0.809315" stroke-linecap="round" stroke-linejoin="round"/>
<path d="M191.738 363.725C191.738 363.725 188.563 366.476 188.778 367.576C188.993 368.676 193.702 372.913 194.61 372.302C194.774 372.219 194.92 372.104 195.039 371.964C195.158 371.825 195.249 371.663 195.306 371.488C195.362 371.313 195.384 371.129 195.37 370.946C195.355 370.763 195.305 370.584 195.221 370.421C194.962 370.008 191.738 363.725 191.738 363.725Z" fill="white" stroke="#2E2E42" stroke-width="0.809315" stroke-linecap="round" stroke-linejoin="round"/>
<path d="M188.794 367.549C188.794 367.549 186.929 369.535 187.54 370.443C188.151 371.351 192.415 373.667 193.521 372.968C194.626 372.27 193.911 371.554 193.911 371.554L188.794 367.549Z" fill="white" stroke="#2E2E42" stroke-width="0.809315" stroke-linecap="round" stroke-linejoin="round"/>
<path d="M199.722 363.62L195.903 362.96L196.8 368.456L200.701 368.578L199.722 363.62Z" fill="white" stroke="#2E2E42" stroke-width="0.809315" stroke-linecap="round" stroke-linejoin="round"/>
<path d="M192.85 354.976L197.323 370.652L199.496 372.627V369.837L194.765 354.432C194.726 354.304 194.662 354.184 194.576 354.082C194.49 353.979 194.385 353.895 194.265 353.834C194.146 353.773 194.016 353.738 193.882 353.729C193.748 353.72 193.614 353.738 193.488 353.782C193.251 353.864 193.053 354.033 192.935 354.254C192.817 354.476 192.786 354.734 192.85 354.976Z" fill="#2E2E42" stroke="#2E2E42" stroke-width="0.809315" stroke-linecap="round" stroke-linejoin="round"/>
<path d="M194.379 361.701C194.379 361.701 191.738 363.247 192.002 364.419C192.266 365.591 195.116 371.071 196.145 371.142C197.174 371.214 197.796 370.592 197.647 369.403C197.499 368.215 196.547 363.901 195.903 362.961C195.259 362.02 195.188 361.646 194.379 361.701Z" fill="white" stroke="#2E2E42" stroke-width="0.809315" stroke-linecap="round" stroke-linejoin="round"/>
<path d="M199.722 363.62C199.722 363.62 202.533 363.972 203.023 364.831C203.513 365.689 201.549 369.111 200.921 369.892C200.294 370.674 199.172 370.641 199.139 368.66C199.191 366.967 199.387 365.281 199.722 363.62Z" fill="white" stroke="#2E2E42" stroke-width="0.809315" stroke-linecap="round" stroke-linejoin="round"/>
<path d="M184.514 370.239H215.364C216.226 370.241 217.052 370.584 217.662 371.193C218.271 371.803 218.614 372.629 218.616 373.491C218.616 374.221 218.326 374.92 217.81 375.436C217.294 375.952 216.594 376.242 215.865 376.242H184.943C184.272 376.242 183.628 375.975 183.153 375.501C182.679 375.026 182.412 374.382 182.412 373.711V372.336C182.412 372.06 182.467 371.787 182.572 371.532C182.678 371.277 182.833 371.046 183.028 370.851C183.223 370.657 183.455 370.502 183.71 370.397C183.965 370.292 184.238 370.239 184.514 370.239Z" fill="white" stroke="#2E2E42" stroke-width="0.809315" stroke-linecap="round" stroke-linejoin="round"/>
<path d="M239.414 363.148C239.414 363.148 231.386 362.267 229.406 361.607C227.425 360.947 224.234 360.397 223.133 361.277C222.033 362.157 216.646 368.429 216.531 369.194C216.415 369.959 215.32 372.496 215.871 373.156C216.332 373.616 216.898 373.956 217.521 374.146C217.521 374.146 224.674 376.127 225.439 376.237C226.203 376.347 233.576 376.017 233.576 376.017L237.428 374.586L242.814 374.476C242.814 374.476 242.924 376.237 243.034 371.945C243.144 367.654 239.414 363.148 239.414 363.148Z" fill="white" stroke="#2E2E42" stroke-width="0.809315" stroke-linecap="round" stroke-linejoin="round"/>
<path d="M217.537 374.152C217.537 374.152 217.647 371.621 218.197 370.52C218.748 369.42 225.014 363.813 225.014 363.813" stroke="#2E2E42" stroke-width="0.809315" stroke-linecap="round" stroke-linejoin="round"/>
<path d="M219.606 374.801C219.606 374.801 220.707 372.05 221.147 371.83C221.587 371.61 226.754 368.309 226.754 368.309" stroke="#2E2E42" stroke-width="0.809315" stroke-linecap="round" stroke-linejoin="round"/>
<path d="M223.364 375.571C223.364 375.571 223.584 374.47 224.135 374.25C224.685 374.03 229.306 371.939 229.306 371.939" stroke="#2E2E42" stroke-width="0.809315" stroke-linecap="round" stroke-linejoin="round"/>
<path d="M228.315 376.122L230.406 375.571L230.186 374.581L227.985 375.131" stroke="#2E2E42" stroke-width="0.809315" stroke-linecap="round" stroke-linejoin="round"/>
<path d="M264.607 327.725C264.607 327.725 258.78 339.934 259.105 344.231C259.43 348.528 260.871 355.664 260.871 355.664C260.871 355.664 251.633 359.29 248.442 360.616C245.251 361.942 239.413 363.147 239.413 363.147L242.379 374.806L241.944 376.017H273.944C273.944 376.017 276.365 375.576 276.805 375.026C277.245 374.476 277.685 374.256 277.905 372.495C278.125 370.735 279.556 355.34 279.226 351.037C278.896 346.735 274.384 324.424 273.834 322.113C273.284 319.802 272.299 318.262 271.308 317.711C270.318 317.161 266.026 316.727 266.026 316.727" fill="white"/>
<path d="M264.607 327.725C264.607 327.725 258.78 339.934 259.105 344.231C259.43 348.528 260.871 355.664 260.871 355.664C260.871 355.664 251.633 359.29 248.442 360.616C245.251 361.942 239.413 363.147 239.413 363.147L242.379 374.806L241.944 376.017H273.944C273.944 376.017 276.365 375.576 276.805 375.026C277.245 374.476 277.685 374.256 277.905 372.495C278.125 370.735 279.556 355.34 279.226 351.037C278.896 346.735 274.384 324.424 273.834 322.113C273.284 319.802 272.299 318.262 271.308 317.711C270.318 317.161 266.026 316.727 266.026 316.727" stroke="#2E2E42" stroke-width="0.809315" stroke-linecap="round" stroke-linejoin="round"/>
<path d="M261.642 355.885C261.642 355.885 270.109 356.325 274.296 358.96" stroke="#2E2E42" stroke-width="0.809315" stroke-linecap="round" stroke-linejoin="round"/>
<path d="M263.177 354.784C263.177 354.784 269.119 354.454 272.31 355.445" stroke="#2E2E42" stroke-width="0.809315" stroke-linecap="round" stroke-linejoin="round"/>
<path d="M261.531 327.384C261.531 327.384 258.56 334.316 258.45 336.957C258.34 339.598 258.12 341.139 258.12 341.139" stroke="#2E2E42" stroke-width="0.809315" stroke-linecap="round" stroke-linejoin="round"/>
<path d="M248.002 309.029C248.002 309.029 254.709 318.581 249.317 345.216" stroke="#2E2E42" stroke-width="1.61863" stroke-linecap="round" stroke-linejoin="round"/>
<path d="M252.508 345.987C252.508 345.334 252.314 344.696 251.951 344.153C251.589 343.61 251.073 343.187 250.47 342.937C249.867 342.687 249.203 342.622 248.562 342.749C247.922 342.876 247.334 343.191 246.872 343.652C246.411 344.114 246.096 344.702 245.969 345.343C245.841 345.983 245.907 346.647 246.157 347.25C246.406 347.853 246.83 348.369 247.372 348.732C247.915 349.094 248.554 349.288 249.206 349.288C250.082 349.288 250.922 348.94 251.541 348.321C252.16 347.702 252.508 346.862 252.508 345.987Z" fill="white" stroke="#2E2E42" stroke-width="0.809315" stroke-linecap="round" stroke-linejoin="round"/>
<path d="M225.108 310.02C225.108 310.02 221.703 312.22 221.152 321.128" stroke="#2E2E42" stroke-width="1.61863" stroke-linecap="round" stroke-linejoin="round"/>
<path d="M225.884 334.625C225.053 340.633 223.92 347.087 223.683 348.501C223.133 351.527 219.54 352.584 217.229 351.593" stroke="#2E2E42" stroke-width="1.61863" stroke-linecap="round" stroke-linejoin="round"/>
<path d="M217.268 335.021C216.514 331.653 216.052 328.732 216.217 327.395C216.987 321.238 221.169 321.128 221.169 321.128C221.169 321.128 226.121 321.788 226.445 327.07C226.479 329.599 226.295 332.127 225.895 334.624" stroke="#2E2E42" stroke-width="1.61863" stroke-linecap="round" stroke-linejoin="round"/>
<path d="M226.555 351.152C226.555 351.152 224.244 352.473 222.704 351.593C221.664 350.998 218.852 342.041 217.268 335.021" stroke="#2E2E42" stroke-width="1.61863" stroke-linecap="round" stroke-linejoin="round"/>
<path d="M227.36 349.96L226.45 350.352C226.012 350.541 225.81 351.049 225.999 351.488L226.01 351.513C226.199 351.951 226.707 352.153 227.145 351.964L228.055 351.572C228.493 351.383 228.695 350.875 228.506 350.437L228.495 350.412C228.306 349.974 227.798 349.771 227.36 349.96Z" stroke="#2E2E42" stroke-width="0.809315" stroke-linecap="round" stroke-linejoin="round"/>
<path d="M217.514 350.557L216.665 350.047C216.256 349.802 215.726 349.934 215.48 350.343L215.466 350.367C215.22 350.776 215.353 351.306 215.762 351.552L216.611 352.062C217.02 352.307 217.55 352.175 217.796 351.766L217.81 351.743C218.056 351.334 217.923 350.803 217.514 350.557Z" stroke="#2E2E42" stroke-width="0.809315" stroke-linecap="round" stroke-linejoin="round"/>
<path d="M221.169 283.407C221.169 283.407 219.408 287.583 219.738 290.224C220.069 292.865 223.59 295.726 223.59 295.726C223.59 295.726 224.8 283.957 224.8 283.517C224.8 283.077 222.594 282.086 221.169 283.407Z" fill="#2E2E42" stroke="#2E2E42" stroke-width="0.809315" stroke-linecap="round" stroke-linejoin="round"/>
<path d="M219.903 298.367L222.242 296.732" stroke="#2E2E42" stroke-width="1.61863" stroke-linecap="round" stroke-linejoin="round"/>
<path d="M222.484 284.177C222.484 284.177 222.044 295.836 222.264 298.031C222.484 300.226 223.364 307.269 224.134 309.47C224.905 311.671 227.436 318.708 229.416 319.478C231.397 320.248 235.353 320.799 236.674 319.918C237.994 319.038 242.83 315.742 244.151 312.551C244.934 310.69 245.452 308.729 245.691 306.724C246.789 306.139 247.738 305.308 248.463 304.296C249.188 303.285 249.671 302.12 249.873 300.892C250.533 296.711 248.773 295.506 248.773 295.506L248.883 288.243C248.883 288.243 247.672 283.187 244.481 280.436C241.29 277.685 237.554 277.464 233.703 279.555C229.851 281.646 222.484 284.177 222.484 284.177Z" fill="white" stroke="#2E2E42" stroke-width="0.809315" stroke-linecap="round" stroke-linejoin="round"/>
<path d="M243.16 283.516C243.16 283.516 243.27 280.655 240.525 281.646C237.779 282.636 237.113 284.507 233.042 286.157C228.97 287.808 223.584 285.937 221.719 284.837C219.854 283.736 218.528 282.196 221.058 279.335C223.589 276.474 229.526 273.618 235.914 273.618C242.302 273.618 247.243 278.895 249.333 281.095C251.424 283.296 251.754 286.047 250.984 288.023C250.214 289.998 248.783 295.505 248.783 295.505C248.783 295.505 247.903 295.395 247.573 296.71C247.243 298.025 247.353 299.461 245.922 299.571C244.492 299.681 244.602 295.835 244.602 295.835C244.602 295.835 241.086 294.735 240.646 292.204C240.206 289.673 243.16 285.937 243.16 283.516Z" fill="#2E2E42" stroke="#2E2E42" stroke-width="0.809315" stroke-linecap="round" stroke-linejoin="round"/>
<path d="M230.06 300.16L219.887 298.366L220.475 302.927C220.512 303.211 220.638 303.475 220.836 303.682C221.035 303.888 221.294 304.025 221.576 304.072L227.76 305.046C228.1 305.101 228.448 305.021 228.731 304.824C229.013 304.627 229.208 304.327 229.273 303.989L230.06 300.16Z" stroke="#2E2E42" stroke-width="1.61863" stroke-linecap="round" stroke-linejoin="round"/>
<path d="M231.914 300.353L243.71 300.012L242.555 304.281C242.456 304.569 242.266 304.816 242.014 304.987C241.762 305.158 241.461 305.242 241.157 305.228L234.005 305.327C233.634 305.352 233.267 305.243 232.969 305.02C232.672 304.797 232.466 304.474 232.387 304.111L231.914 300.353Z" stroke="#2E2E42" stroke-width="1.61863" stroke-linecap="round" stroke-linejoin="round"/>
<path d="M230.076 300.16L231.914 300.353" stroke="#2E2E42" stroke-width="1.61863" stroke-linecap="round" stroke-linejoin="round"/>
<path d="M243.711 300.011L247.562 296.71" stroke="#2E2E42" stroke-width="1.61863" stroke-linecap="round" stroke-linejoin="round"/>
<path d="M233.482 299.022C233.482 299.022 236.784 296.496 239.865 298.031" stroke="#2E2E42" stroke-width="1.61863" stroke-linecap="round" stroke-linejoin="round"/>
<path d="M228.536 298.471C228.536 298.471 226.005 295.72 223.144 297.59" stroke="#2E2E42" stroke-width="1.61863" stroke-linecap="round" stroke-linejoin="round"/>
<path d="M229.196 308.039C229.196 308.039 228.646 310.35 229.196 310.79C230.132 311.307 231.214 311.501 232.271 311.34" stroke="#2E2E42" stroke-width="0.809315" stroke-linecap="round" stroke-linejoin="round"/>
<path d="M227.546 312.528C227.546 312.528 229.747 314.179 231.837 314.289C233.928 314.399 236.344 312.858 236.344 312.858" stroke="#2E2E42" stroke-width="0.809315" stroke-linecap="round" stroke-linejoin="round"/>
<path d="M235.683 301.332C235.683 301.332 237.003 302.872 239.204 301.222" stroke="#2E2E42" stroke-width="0.809315" stroke-linecap="round" stroke-linejoin="round"/>
<path d="M224.85 300.655C224.85 300.655 225.95 302.361 228.349 301.024" stroke="#2E2E42" stroke-width="0.809315" stroke-linecap="round" stroke-linejoin="round"/>
<path d="M156.607 283.505C156.607 283.505 157.306 293.987 156.777 294.861L155.231 297.48C155.231 297.48 155.93 304.996 154.533 305.866C153.45 306.445 152.262 306.803 151.039 306.916C151.039 306.916 149.641 312.506 149.113 313.205C148.585 313.904 145.443 316.176 144.398 316.506C143.352 316.837 140.029 317.057 132.167 312.314C124.304 307.571 121.333 306.025 121.509 303.406C121.685 300.787 122.06 297.816 122.06 297.816C122.06 297.816 122.934 285.233 124.508 281.392C126.081 277.552 145.999 275.45 150.368 276.501C154.736 277.552 156.607 283.505 156.607 283.505Z" fill="white" stroke="#2E2E42" stroke-width="0.809315" stroke-linecap="round" stroke-linejoin="round"/>
<path d="M136.338 300.798L137.565 301.673C137.565 301.673 136.514 305.865 137.015 307.791" stroke="#2E2E42" stroke-width="0.809315" stroke-linecap="round" stroke-linejoin="round"/>
<path d="M153.807 297.288C153.631 298.091 153.207 298.674 152.866 298.597C152.525 298.52 152.387 297.816 152.569 297.013C152.75 296.209 153.168 295.626 153.509 295.703C153.851 295.78 153.988 296.49 153.807 297.288Z" fill="#2E2E42"/>
<path d="M152.024 294.08C152.024 294.08 153.928 292.176 155.518 293.976" stroke="#2E2E42" stroke-width="0.809315" stroke-linecap="round" stroke-linejoin="round"/>
<path d="M149.62 282.108C149.62 282.108 151.887 286.3 151.716 287.175C151.546 288.05 144.376 290.146 144.376 290.146C144.376 290.146 143.678 294.339 142.627 294.861L141.581 295.384C140.743 294.246 140.04 293.014 139.485 291.714C138.264 289.095 136.514 288.413 134.594 291.016C132.674 293.618 134.242 299.753 135.293 300.275L136.338 300.798C136.338 300.798 135.463 301.673 132.145 302.201C128.828 302.729 126.379 303.423 123.936 302.724C121.493 302.025 117.994 295.384 116.784 286.823C115.573 278.262 119.403 270.928 124.487 268.666C129.57 266.405 141.086 268.49 141.956 269.013C142.825 269.536 148.773 266.746 152.266 268.49C155.76 270.234 155.568 272.16 156.459 273.381C157.35 274.603 161.873 273.035 162.225 277.403C162.577 281.772 160.827 284.391 158.555 284.738C156.283 285.084 149.62 282.108 149.62 282.108Z" fill="#2E2E42" stroke="#2E2E42" stroke-width="0.809315" stroke-linecap="round" stroke-linejoin="round"/>
<path d="M108.25 309.536C108.25 309.536 91.5071 318.466 88.3159 320.232C85.1247 321.998 84.6461 323.583 84.4645 325.184C84.2829 326.785 84.4645 380.672 84.4645 380.672H174.902C174.902 380.672 161.185 339.489 160.734 334.889C160.283 330.29 159.303 322.13 158.027 321.173C156.75 320.215 138.726 312.243 138.726 312.243C138.726 312.243 134.418 307.621 124.217 307.621C114.016 307.621 108.25 309.536 108.25 309.536Z" fill="#3C8AFF" stroke="#2E2E42" stroke-width="0.809315" stroke-linecap="round" stroke-linejoin="round"/>
<path d="M118.615 342.344C119.088 342.531 119.567 342.701 120.046 342.861" stroke="#2E2E42" stroke-width="0.809315" stroke-linecap="round" stroke-linejoin="round"/>
<path d="M100.762 327.555C100.762 327.555 107.364 336.765 116.382 341.31" stroke="#2E2E42" stroke-width="0.809315" stroke-linecap="round" stroke-linejoin="round"/>
<path d="M106.495 338.234C106.495 338.234 110.159 341.904 117.813 343.979" stroke="#2E2E42" stroke-width="0.809315" stroke-linecap="round" stroke-linejoin="round"/>
<path d="M151.931 325.019C149.383 327.913 145.796 332.54 144.607 336.798" stroke="#2E2E42" stroke-width="0.809315" stroke-linecap="round" stroke-linejoin="round"/>
<path d="M154.648 322.13C154.648 322.13 154.142 322.62 153.35 323.461" stroke="#2E2E42" stroke-width="0.809315" stroke-linecap="round" stroke-linejoin="round"/>
<path d="M145.559 331.697C145.559 331.697 143.166 336.319 142.692 339.191" stroke="#2E2E42" stroke-width="0.809315" stroke-linecap="round" stroke-linejoin="round"/>
<path d="M107.292 310.328C107.292 310.328 116.541 310.009 125.311 310.168C134.081 310.328 139.826 313.04 139.826 313.04C139.826 313.04 134.56 306.664 132.172 305.228C129.784 303.792 122.445 301.376 116.387 303.313C112.655 304.567 109.452 307.037 107.292 310.328Z" fill="#3C8AFF" stroke="#2E2E42" stroke-width="0.809315" stroke-linecap="round" stroke-linejoin="round"/>
<path d="M80.9927 380.611L72.5636 348.292C72.4818 347.9 72.4885 347.494 72.5833 347.104C72.6781 346.715 72.8585 346.351 73.1115 346.04C73.3645 345.73 73.6837 345.479 74.0457 345.307C74.4078 345.135 74.8037 345.046 75.2046 345.046H142.269C142.885 345.046 143.483 345.257 143.963 345.643C144.443 346.03 144.777 346.568 144.91 347.17L152.354 380.644" fill="#2E2E42"/>
<path d="M80.9927 380.611L72.5636 348.292C72.4818 347.9 72.4885 347.494 72.5833 347.104C72.6781 346.715 72.8585 346.351 73.1115 346.04C73.3645 345.73 73.6837 345.479 74.0457 345.307C74.4078 345.135 74.8037 345.046 75.2046 345.046H142.269C142.885 345.046 143.483 345.257 143.963 345.643C144.443 346.03 144.777 346.568 144.91 347.17L152.354 380.644" stroke="#2E2E42" stroke-width="0.809315" stroke-linecap="round" stroke-linejoin="round"/>
</svg>
