<svg width="375" height="402" viewBox="0 0 375 402" fill="none" xmlns="http://www.w3.org/2000/svg">
<path d="M232.068 84.7009C100.184 -28.4636 9.0711 -4.28499 -20 21.9499V343.15C-10.4278 328.615 19.5651 297.416 62.959 288.908C117.201 278.272 145.931 294.593 214 326.5C268.455 352.026 327.5 361.5 395.858 370V128.308C315.027 163.193 267 114.675 232.068 84.7009Z" fill="#E2EDFF"/>
<path d="M76.786 341.023C44.4532 319.751 23.6071 337.832 17.2257 349.532C8.71707 373.994 26.7979 389.948 37.4336 383.566C48.0694 377.185 53.3873 386.757 71.4681 399.52C89.5489 412.283 117.202 367.612 76.786 341.023Z" fill="#E2EDFF"/>
<path d="M328.854 59.1753C309.284 57.4736 294.465 47.8305 289.501 43.2216C262.28 29.3952 275.675 79.3833 311.836 86.8283C347.998 94.2733 353.316 61.3025 328.854 59.1753Z" fill="#E2EDFF"/>
<path d="M204.51 122.942C204.507 123.014 204.497 123.086 204.481 123.156C204.458 123.294 204.41 123.499 204.372 123.77C204.243 124.557 204.166 125.351 204.144 126.148C204.106 127.412 204.211 128.676 204.458 129.916C204.792 131.555 205.389 133.129 206.227 134.577C207.293 136.305 208.462 137.966 209.728 139.553C211.176 141.402 212.359 143.443 213.243 145.618C214.199 148.033 214.746 150.591 214.861 153.186C215.104 158.823 213.101 164.327 209.291 168.488C207.546 170.413 205.446 171.983 203.107 173.112C200.885 174.206 198.673 175.015 196.723 175.966C194.888 176.832 193.226 178.025 191.819 179.486C189.795 181.631 188.389 184.284 187.752 187.164C187.623 187.668 187.576 188.115 187.505 188.524C187.433 188.933 187.424 189.261 187.409 189.532C187.395 189.804 187.409 190.008 187.376 190.156C187.381 190.227 187.381 190.298 187.376 190.37C187.371 190.298 187.371 190.227 187.376 190.156C187.376 190.003 187.376 189.794 187.376 189.532C187.376 189.271 187.424 188.919 187.452 188.515C187.481 188.11 187.557 187.654 187.676 187.145C187.932 185.897 188.338 184.685 188.884 183.534C189.603 182.006 190.556 180.6 191.71 179.367C193.121 177.88 194.795 176.666 196.647 175.785C198.612 174.786 200.824 173.983 203.026 172.893C205.325 171.78 207.391 170.236 209.11 168.346C212.873 164.223 214.852 158.778 214.613 153.2C214.504 150.631 213.969 148.098 213.029 145.704C212.155 143.547 210.988 141.521 209.562 139.681C208.298 138.082 207.132 136.408 206.07 134.668C205.231 133.2 204.64 131.604 204.32 129.944C204.078 128.691 203.985 127.414 204.044 126.139C204.075 125.34 204.168 124.545 204.32 123.761C204.367 123.489 204.42 123.285 204.453 123.152L204.51 122.942Z" fill="#3B8AFF"/>
<path d="M224.517 126.296C224.254 127.366 223.927 128.419 223.537 129.45C223.1 130.667 222.569 131.849 221.948 132.984C221.151 134.511 220.09 135.885 218.814 137.041C218.444 137.364 218.051 137.66 217.639 137.926C217.211 138.188 216.764 138.43 216.302 138.668L213.424 140.143C211.436 141.161 209.3 142.226 207.112 143.473C204.833 144.747 202.79 146.402 201.071 148.367C199.217 150.482 197.825 152.961 196.985 155.645C196.159 158.334 195.957 161.176 196.395 163.955C196.792 166.546 197.797 169.007 199.33 171.133C200.8 173.155 202.531 174.82 203.915 176.585C204.6 177.426 205.204 178.331 205.718 179.286C206.18 180.174 206.554 181.104 206.836 182.064C207.31 183.719 207.516 185.439 207.445 187.159C207.39 188.451 207.168 189.73 206.784 190.964C206.545 191.747 206.24 192.508 205.871 193.238C205.742 193.476 205.637 193.661 205.566 193.799C205.495 193.937 205.452 193.985 205.452 193.985C205.452 193.985 205.48 193.913 205.542 193.785C205.604 193.657 205.704 193.457 205.828 193.219C206.174 192.483 206.463 191.721 206.693 190.94C207.059 189.703 207.263 188.424 207.302 187.135C207.358 185.447 207.144 183.761 206.67 182.14C206.385 181.193 206.009 180.275 205.547 179.401C205.036 178.459 204.435 177.568 203.754 176.741C202.374 174.996 200.638 173.34 199.144 171.295C197.586 169.142 196.56 166.649 196.152 164.022C195.709 161.207 195.912 158.327 196.747 155.602C197.6 152.886 199.009 150.376 200.885 148.234C202.623 146.233 204.692 144.546 207.003 143.249C209.2 142.027 211.341 140.971 213.334 139.962L216.212 138.497C216.687 138.264 217.125 138.021 217.544 137.769C217.949 137.51 218.335 137.222 218.7 136.908C219.967 135.77 221.026 134.419 221.83 132.917C222.454 131.792 222.995 130.622 223.447 129.416C223.827 128.427 224.079 127.642 224.251 127.109C224.332 126.852 224.398 126.634 224.441 126.5C224.484 126.367 224.517 126.296 224.517 126.296Z" fill="#3B8AFF"/>
<path d="M216.991 138.202C216.991 138.268 214.68 137.85 211.864 137.25C209.048 136.651 206.774 136.147 206.788 136.08C206.802 136.014 209.095 136.428 211.916 137.032C214.737 137.636 216.991 138.13 216.991 138.202Z" fill="#3B8AFF"/>
<path d="M220.478 134.911C220.478 134.977 216.925 133.998 212.582 132.727C208.239 131.457 204.738 130.349 204.757 130.301C204.776 130.254 208.31 131.215 212.653 132.49C216.996 133.764 220.497 134.844 220.478 134.911Z" fill="#3B8AFF"/>
<path d="M223.033 130.597C223.033 130.658 218.775 129.445 213.572 127.88C208.368 126.315 204.148 124.993 204.177 124.926C204.205 124.86 208.429 126.078 213.662 127.643C218.894 129.208 223.052 130.53 223.033 130.597Z" fill="#3B8AFF"/>
<path d="M206.817 170.624C206.794 170.691 204.52 169.878 201.737 168.807C198.954 167.737 196.723 166.819 196.747 166.757C196.771 166.695 199.045 167.509 201.827 168.574C204.61 169.64 206.841 170.563 206.817 170.624Z" fill="#3B8AFF"/>
<path d="M211.284 165.492C211.077 165.462 210.873 165.413 210.675 165.345C210.285 165.24 209.723 165.069 209.039 164.869C207.669 164.436 205.785 163.799 203.725 163.028C201.666 162.257 199.82 161.511 198.493 160.945C197.832 160.659 197.299 160.421 196.933 160.25C196.738 160.171 196.552 160.074 196.376 159.96C196.58 160.007 196.779 160.074 196.971 160.16L198.559 160.778C199.896 161.306 201.746 162.029 203.792 162.8C205.837 163.57 207.721 164.227 209.077 164.702L210.684 165.273C210.891 165.327 211.091 165.401 211.284 165.492Z" fill="#3B8AFF"/>
<path d="M213.848 159.96C213.621 159.899 213.401 159.816 213.191 159.712L211.431 158.985C209.947 158.366 207.887 157.529 205.59 156.673C203.292 155.817 201.185 155.103 199.658 154.599L197.846 153.999C197.621 153.937 197.401 153.856 197.189 153.757C197.422 153.784 197.652 153.835 197.874 153.909C198.312 154.023 198.935 154.199 199.711 154.432C201.252 154.908 203.369 155.583 205.676 156.44C207.983 157.296 210.033 158.162 211.503 158.818C212.235 159.146 212.825 159.422 213.229 159.622C213.446 159.714 213.653 159.827 213.848 159.96Z" fill="#3B8AFF"/>
<path d="M213.881 153.034C213.701 153.008 213.525 152.958 213.358 152.886L211.969 152.41C210.794 152.001 209.177 151.459 207.374 150.855C205.571 150.251 203.935 149.77 202.746 149.428L201.319 148.995C201.143 148.952 200.972 148.89 200.81 148.81C200.99 148.819 201.169 148.851 201.342 148.905C201.685 148.976 202.17 149.1 202.769 149.257C203.973 149.575 205.623 150.046 207.426 150.636C209.229 151.226 210.846 151.811 212.007 152.263C212.583 152.487 213.049 152.677 213.367 152.815C213.547 152.867 213.719 152.941 213.881 153.034Z" fill="#3B8AFF"/>
<path d="M213.947 147.654C212.448 147.274 210.97 146.815 209.519 146.28C208.041 145.821 206.59 145.282 205.171 144.667C206.67 145.049 208.148 145.508 209.599 146.042C211.076 146.503 212.527 147.041 213.947 147.654Z" fill="#3B8AFF"/>
<path d="M206.527 181.07C206.364 181.045 206.204 181.002 206.051 180.942L204.795 180.518L200.666 179.091L196.528 177.702L195.272 177.269C195.115 177.226 194.963 177.164 194.82 177.084C194.982 177.094 195.143 177.126 195.296 177.179C195.6 177.255 196.038 177.374 196.576 177.531C197.651 177.845 199.125 178.306 200.742 178.858C202.36 179.41 203.811 179.943 204.852 180.352C205.376 180.556 205.804 180.728 206.08 180.828C206.24 180.884 206.391 180.966 206.527 181.07Z" fill="#3B8AFF"/>
<path d="M207.388 187.373C207.364 187.435 203.454 186.169 198.655 184.519C193.855 182.868 189.978 181.517 190.002 181.451C190.026 181.384 193.931 182.654 198.735 184.305C203.54 185.955 207.407 187.283 207.388 187.373Z" fill="#3B8AFF"/>
<path d="M207.307 192.02C207.307 192.087 202.921 190.803 197.56 189.166C192.199 187.53 187.861 186.132 187.88 186.065C187.899 185.998 192.266 187.283 197.631 188.919C202.997 190.555 207.33 191.954 207.307 192.02Z" fill="#3B8AFF"/>
<path d="M286.702 194.322L294.624 195.943L284.499 245.444C284.401 245.924 284.116 246.345 283.708 246.615C283.299 246.884 282.801 246.981 282.321 246.883L278.006 246C277.526 245.902 277.105 245.617 276.835 245.209C276.566 244.8 276.469 244.301 276.567 243.822L286.692 194.32L286.702 194.322Z" fill="#3B8AFF"/>
<path d="M284.95 202.982L292.873 204.601L285.604 240.17C285.506 240.65 285.221 241.071 284.813 241.34C284.404 241.61 283.905 241.707 283.426 241.609L279.11 240.727C278.631 240.629 278.21 240.344 277.94 239.936C277.67 239.527 277.574 239.029 277.672 238.549L284.94 202.98L284.95 202.982Z" fill="#293D51"/>
<path d="M293.627 200.942L288.342 199.862L283.535 223.384L288.82 224.464L293.627 200.942Z" fill="white"/>
<path d="M282.345 246.861C282.694 246.912 283.051 246.873 283.382 246.747C283.778 246.586 284.107 246.292 284.309 245.915C284.426 245.67 284.505 245.408 284.542 245.139C284.599 244.849 284.657 244.54 284.723 244.217C285.251 241.6 286.007 237.819 286.954 233.119C288.857 223.705 291.53 210.619 294.522 195.897L294.617 196.04L288.5 194.794L286.692 194.423L286.84 194.327C283.605 210.058 280.699 224.214 278.596 234.451C278.068 237.005 277.588 239.312 277.169 241.343C277.065 241.848 276.96 242.338 276.865 242.809C276.817 243.042 276.765 243.284 276.722 243.503C276.665 243.718 276.63 243.938 276.618 244.159C276.616 244.574 276.755 244.976 277.012 245.301C277.249 245.594 277.572 245.805 277.935 245.905L281.208 246.604L282.059 246.79C282.25 246.833 282.345 246.861 282.345 246.861L282.055 246.814L281.198 246.652L277.911 245.996C277.504 245.89 277.143 245.653 276.885 245.321C276.627 244.989 276.486 244.58 276.484 244.159C276.494 243.928 276.527 243.699 276.584 243.474C276.627 243.251 276.675 242.999 276.722 242.785C276.817 242.309 276.912 241.833 277.017 241.315C277.426 239.284 277.892 236.972 278.411 234.413C280.494 224.176 283.372 210.015 286.578 194.275V194.156L286.697 194.18L288.509 194.551L294.627 195.802L294.746 195.826V195.945C291.72 210.667 289.038 223.743 287.097 233.152L284.794 244.231C284.723 244.559 284.661 244.863 284.599 245.154C284.559 245.43 284.474 245.699 284.347 245.948C284.139 246.332 283.802 246.63 283.396 246.79C283.146 246.885 282.878 246.924 282.611 246.904C282.521 246.899 282.432 246.884 282.345 246.861Z" fill="#3B8AFF"/>
<path d="M288.978 183.973L296.779 185.567C297.026 185.618 297.243 185.764 297.382 185.975C297.522 186.185 297.571 186.442 297.521 186.69L295.126 198.406L285.451 196.429L287.844 184.722C287.868 184.598 287.917 184.479 287.987 184.374C288.057 184.269 288.148 184.179 288.253 184.109C288.359 184.039 288.477 183.991 288.602 183.968C288.726 183.944 288.854 183.946 288.978 183.973Z" fill="white"/>
<path d="M295.293 197.186C295.293 197.253 293.095 196.863 290.412 196.316C287.729 195.769 285.57 195.269 285.584 195.203C285.598 195.136 287.782 195.526 290.465 196.073C293.147 196.62 295.302 197.12 295.293 197.186Z" fill="#3B8AFF"/>
<path d="M286.517 195.293C286.446 195.293 286.902 192.781 287.53 189.718C288.158 186.654 288.72 184.176 288.786 184.19C288.853 184.205 288.396 186.702 287.773 189.765C287.15 192.829 286.584 195.307 286.517 195.293Z" fill="#3B8AFF"/>
<path d="M287.815 195.559C287.749 195.559 288.2 193.048 288.828 189.984C289.456 186.921 290.017 184.443 290.084 184.457C290.151 184.471 289.699 186.969 289.071 190.032C288.443 193.095 287.867 195.574 287.815 195.559Z" fill="#3B8AFF"/>
<path d="M289.157 195.83C289.09 195.83 289.542 193.323 290.17 190.255C290.798 187.187 291.359 184.718 291.426 184.732C291.492 184.747 291.041 187.239 290.413 190.307C289.785 193.376 289.223 195.844 289.157 195.83Z" fill="#3B8AFF"/>
<path d="M290.456 196.097C290.389 196.097 290.846 193.59 291.469 190.522C292.092 187.454 292.658 184.985 292.729 184.999C292.801 185.013 292.339 187.506 291.716 190.574C291.093 193.642 290.527 196.111 290.456 196.097Z" fill="#3B8AFF"/>
<path d="M291.796 196.373C291.73 196.373 292.187 193.861 292.81 190.798C293.433 187.735 293.999 185.256 294.065 185.271C294.132 185.285 293.68 187.782 293.052 190.846C292.424 193.909 291.863 196.411 291.796 196.373Z" fill="#3B8AFF"/>
<path d="M293.1 196.639C293.034 196.639 293.486 194.128 294.113 191.065C294.741 188.001 295.303 185.523 295.369 185.537C295.436 185.551 294.984 188.049 294.356 191.112C293.728 194.175 293.167 196.654 293.1 196.639Z" fill="#3B8AFF"/>
<path d="M294.442 196.915C294.375 196.915 294.827 194.403 295.455 191.34C296.083 188.277 296.644 185.798 296.711 185.813C296.778 185.827 296.326 188.319 295.698 191.388C295.07 194.456 294.528 196.924 294.442 196.915Z" fill="#3B8AFF"/>
<path d="M303.974 217.67L310.317 217.087L313.929 256.316C313.973 256.804 313.823 257.289 313.51 257.665C313.197 258.042 312.747 258.278 312.26 258.323L309.588 258.569C309.101 258.614 308.616 258.464 308.239 258.151C307.863 257.838 307.626 257.388 307.581 256.901L303.97 217.671L303.974 217.67Z" fill="#3B8AFF"/>
<path d="M304.614 224.641L310.957 224.057L313.541 252.132C313.586 252.619 313.436 253.105 313.123 253.481C312.81 253.857 312.36 254.094 311.873 254.139L309.201 254.385C308.714 254.43 308.228 254.279 307.852 253.966C307.476 253.653 307.239 253.204 307.194 252.716L304.609 224.642L304.614 224.641Z" fill="#293D51"/>
<path d="M310.685 221.125L306.455 221.515L308.188 240.338L312.418 239.949L310.685 221.125Z" fill="white"/>
<path d="M312.26 258.329C312.536 258.284 312.8 258.187 313.04 258.044C313.325 257.864 313.554 257.609 313.701 257.307C313.798 257.115 313.86 256.907 313.882 256.693C313.895 256.448 313.882 256.203 313.844 255.961C313.644 253.849 313.369 250.809 312.988 247.032C312.279 239.455 311.295 228.933 310.191 217.107L310.324 217.217L305.82 217.63L303.983 217.802L304.093 217.669C305.225 230.126 306.243 241.319 306.975 249.41C307.156 251.427 307.318 253.254 307.451 254.857C307.527 255.656 307.58 256.412 307.656 257.083C307.715 257.383 307.849 257.663 308.046 257.897C308.244 258.131 308.497 258.311 308.783 258.42C309.26 258.551 309.762 258.571 310.248 258.477L311.342 258.386L312.018 258.339H312.251L312.022 258.372L311.347 258.444L310.253 258.558L309.554 258.624C309.281 258.649 309.007 258.614 308.75 258.52C308.445 258.408 308.175 258.221 307.963 257.975C307.752 257.729 307.607 257.434 307.541 257.116C307.456 256.422 307.399 255.689 307.318 254.881C307.166 253.278 306.99 251.451 306.795 249.434C306.043 241.348 305.001 230.155 303.836 217.697V217.573H303.96L305.796 217.402L310.3 216.988H310.424V217.112C311.494 228.942 312.45 239.469 313.14 247.046C313.468 250.823 313.735 253.868 313.92 255.98C313.953 256.229 313.963 256.48 313.949 256.731C313.912 257.014 313.812 257.284 313.656 257.523C313.501 257.762 313.293 257.963 313.05 258.111C312.868 258.22 312.668 258.296 312.46 258.334C312.393 258.337 312.327 258.336 312.26 258.329Z" fill="#3B8AFF"/>
<path d="M303.52 209.381L309.361 208.843C309.612 208.82 309.862 208.898 310.056 209.059C310.25 209.221 310.372 209.452 310.395 209.704L311.239 218.864L303.499 219.577L302.656 210.421C302.644 210.296 302.657 210.169 302.694 210.049C302.731 209.929 302.791 209.817 302.871 209.721C302.952 209.624 303.051 209.544 303.162 209.486C303.273 209.428 303.395 209.392 303.52 209.381Z" fill="white"/>
<path d="M311.09 217.902C308.519 218.304 305.924 218.543 303.322 218.615C304.602 218.375 305.895 218.216 307.194 218.14C308.486 217.974 309.788 217.895 311.09 217.902Z" fill="#3B8AFF"/>
<path d="M304.041 218.473C303.778 217.006 303.6 215.526 303.508 214.039C303.327 212.562 303.232 211.075 303.223 209.587C303.48 211.054 303.657 212.534 303.755 214.02C303.931 215.498 304.026 216.984 304.041 218.473Z" fill="#3B8AFF"/>
<path d="M305.088 218.378C304.825 216.912 304.647 215.431 304.555 213.945C304.374 212.467 304.279 210.981 304.27 209.492C304.526 210.958 304.702 212.436 304.798 213.921C304.976 215.4 305.073 216.888 305.088 218.378Z" fill="#3B8AFF"/>
<path d="M306.157 218.292C305.9 216.825 305.722 215.345 305.624 213.859C305.449 212.381 305.354 210.894 305.339 209.406C305.601 210.873 305.779 212.353 305.872 213.84C306.05 215.317 306.145 216.804 306.157 218.292Z" fill="#3B8AFF"/>
<path d="M307.199 218.183C306.942 216.715 306.764 215.235 306.666 213.749C306.491 212.271 306.396 210.785 306.381 209.297C306.634 210.762 306.806 212.241 306.895 213.725C307.076 215.205 307.178 216.692 307.199 218.183Z" fill="#3B8AFF"/>
<path d="M308.274 218.083C308.012 216.617 307.834 215.136 307.741 213.65C307.561 212.172 307.465 210.686 307.456 209.197C307.713 210.664 307.891 212.144 307.989 213.631C308.164 215.108 308.259 216.595 308.274 218.083Z" fill="#3B8AFF"/>
<path d="M309.317 217.988C309.058 216.515 308.885 215.028 308.798 213.535C308.617 212.058 308.522 210.571 308.513 209.083C308.77 210.55 308.948 212.03 309.045 213.516C309.217 215.001 309.307 216.493 309.317 217.988Z" fill="#3B8AFF"/>
<path d="M310.387 217.888C310.13 216.422 309.952 214.944 309.854 213.459C309.678 211.98 309.583 210.492 309.568 209.002C309.831 210.468 310.009 211.948 310.101 213.435C310.282 214.913 310.377 216.399 310.387 217.888Z" fill="#3B8AFF"/>
<path d="M180.627 166.862L179 208.869L157.966 208.189C157.718 205.749 157.442 196.297 157.442 196.297C157.442 196.297 148.661 195.345 148.143 186.641C147.891 182.412 148.081 173.631 148.343 165.711C148.485 161.49 150.273 157.493 153.323 154.573C156.374 151.654 160.445 150.043 164.668 150.085C166.825 150.112 168.956 150.57 170.933 151.433C172.911 152.296 174.696 153.546 176.183 155.11C177.671 156.673 178.83 158.518 179.593 160.537C180.356 162.555 180.708 164.706 180.627 166.862Z" fill="#FFBE9D"/>
<path d="M157.433 196.297C161.461 196.181 165.364 194.87 168.644 192.529C168.644 192.529 166.266 198.927 157.523 198.556L157.433 196.297Z" fill="#EB996E"/>
<path d="M151.201 171.943C151.214 172.267 151.352 172.574 151.588 172.798C151.823 173.022 152.137 173.145 152.462 173.141C152.62 173.146 152.779 173.12 152.927 173.063C153.075 173.006 153.211 172.92 153.326 172.81C153.44 172.701 153.532 172.569 153.595 172.423C153.658 172.277 153.692 172.121 153.694 171.962C153.681 171.637 153.543 171.329 153.307 171.104C153.072 170.88 152.759 170.756 152.433 170.758C152.274 170.754 152.116 170.781 151.968 170.838C151.819 170.896 151.684 170.982 151.569 171.092C151.454 171.203 151.363 171.335 151.3 171.481C151.236 171.627 151.203 171.784 151.201 171.943Z" fill="#263238"/>
<path d="M150.426 170.149C150.588 170.306 151.497 169.564 152.838 169.502C154.179 169.441 155.193 170.069 155.331 169.897C155.397 169.821 155.226 169.536 154.784 169.241C154.183 168.867 153.482 168.687 152.776 168.727C152.082 168.759 151.416 169.011 150.873 169.445C150.474 169.774 150.345 170.083 150.426 170.149Z" fill="#263238"/>
<path d="M163.897 171.9C163.909 172.223 164.045 172.529 164.277 172.754C164.51 172.978 164.82 173.104 165.144 173.103C165.303 173.108 165.461 173.082 165.61 173.025C165.759 172.967 165.894 172.881 166.009 172.771C166.124 172.66 166.216 172.528 166.279 172.382C166.342 172.236 166.375 172.078 166.376 171.919C166.364 171.6 166.229 171.297 165.999 171.075C165.77 170.853 165.463 170.727 165.144 170.725C164.984 170.717 164.824 170.742 164.674 170.797C164.524 170.853 164.387 170.938 164.271 171.048C164.154 171.157 164.061 171.289 163.997 171.436C163.933 171.582 163.899 171.74 163.897 171.9Z" fill="#263238"/>
<path d="M163.607 169.773C163.769 169.925 164.677 169.183 166.019 169.126C167.36 169.069 168.397 169.688 168.511 169.516C168.578 169.44 168.407 169.155 167.964 168.865C167.365 168.491 166.666 168.312 165.962 168.351C165.267 168.381 164.6 168.632 164.059 169.069C163.655 169.407 163.526 169.707 163.607 169.773Z" fill="#263238"/>
<path d="M159.212 179.943C159.212 179.867 158.379 179.762 157.019 179.653C156.676 179.653 156.348 179.582 156.281 179.349C156.234 178.997 156.297 178.64 156.462 178.326C156.743 177.479 157.038 176.599 157.347 175.672C158.579 171.895 159.449 168.798 159.297 168.751C159.145 168.703 158.008 171.724 156.795 175.481C156.5 176.411 156.22 177.298 155.953 178.145C155.756 178.568 155.715 179.047 155.839 179.496C155.894 179.614 155.976 179.719 156.077 179.801C156.178 179.883 156.297 179.942 156.424 179.972C156.616 180.013 156.813 180.03 157.009 180.024C158.37 180.053 159.212 180.019 159.212 179.943Z" fill="#263238"/>
<path d="M163.198 180.681C162.984 180.681 163.046 182.108 161.852 183.226C160.658 184.344 159.102 184.23 159.098 184.434C159.098 184.525 159.459 184.701 160.111 184.686C160.964 184.658 161.779 184.329 162.413 183.759C163.024 183.213 163.396 182.45 163.45 181.632C163.479 181.024 163.298 180.667 163.198 180.681Z" fill="#263238"/>
<path d="M163.012 164.541C163.16 164.902 164.492 164.664 166.071 164.779C167.65 164.893 168.925 165.254 169.134 164.926C169.22 164.764 168.987 164.45 168.454 164.108C167.749 163.708 166.963 163.474 166.155 163.423C165.346 163.372 164.537 163.505 163.788 163.813C163.241 164.065 162.946 164.374 163.012 164.541Z" fill="#263238"/>
<path d="M150.735 166.249C150.987 166.544 151.891 166.182 153.004 166.116C154.117 166.049 155.059 166.225 155.263 165.897C155.349 165.735 155.187 165.421 154.764 165.169C154.195 164.852 153.546 164.709 152.897 164.76C152.247 164.811 151.628 165.052 151.115 165.455C150.74 165.788 150.626 166.106 150.735 166.249Z" fill="#263238"/>
<path d="M170.719 157.881L170.771 157.914C172.211 158.945 173.199 160.49 173.53 162.229C173.53 162.291 173.53 162.348 173.563 162.405C174.039 164.873 174.077 167.409 174.562 169.873C175.047 172.337 176.023 174.825 177.94 176.447C178.729 177.117 180.085 177.536 180.67 176.685C180.861 176.33 180.95 175.93 180.927 175.529C181.108 169.502 182.492 164.112 182.187 157.824C182.15 156.983 181.912 156.162 181.494 155.431C181.076 154.7 180.491 154.079 179.785 153.619C178.425 152.739 176.774 151.84 175.347 152.596C173.92 153.353 172.155 156.183 171.066 157.396" fill="#263238"/>
<path d="M177.887 171.091C178.029 171.02 183.79 169.036 183.88 175.006C183.971 180.976 177.963 179.834 177.949 179.663C177.934 179.491 177.887 171.091 177.887 171.091Z" fill="#FFBE9D"/>
<path d="M179.737 177.384C179.766 177.384 179.842 177.455 180.018 177.531C180.268 177.631 180.547 177.631 180.798 177.531C181.426 177.289 181.939 176.28 181.954 175.205C181.961 174.693 181.854 174.186 181.64 173.721C181.581 173.535 181.478 173.366 181.34 173.228C181.202 173.091 181.032 172.989 180.845 172.932C180.725 172.902 180.599 172.915 180.488 172.969C180.376 173.023 180.287 173.114 180.237 173.227C180.156 173.398 180.199 173.517 180.165 173.526C180.132 173.536 180.037 173.426 180.08 173.179C180.11 173.031 180.191 172.899 180.308 172.803C180.472 172.677 180.678 172.619 180.883 172.642C181.129 172.686 181.359 172.793 181.552 172.952C181.744 173.111 181.892 173.317 181.982 173.55C182.244 174.064 182.377 174.634 182.368 175.21C182.368 176.414 181.749 177.546 180.893 177.807C180.734 177.856 180.566 177.869 180.401 177.844C180.236 177.819 180.079 177.758 179.942 177.665C179.751 177.517 179.718 177.384 179.737 177.384Z" fill="#EB996E"/>
<path d="M176.246 154.442C177.968 152.23 174.343 148.387 171.489 147.141C168.635 145.894 164.654 146.908 161.633 147.554C159.73 147.964 157.804 148.615 155.877 148.325C154.598 148.052 153.367 147.591 152.224 146.955C151.077 146.321 149.813 145.924 148.509 145.79C147.206 145.737 145.798 146.265 145.179 147.431C144.561 148.596 145.08 150.285 146.345 150.623C144.804 149.538 142.302 150.466 141.831 152.292C141.36 154.119 143.105 156.136 144.98 155.936C144.209 155.203 142.796 156.117 142.787 157.182C142.777 158.248 143.648 159.118 144.571 159.651C146.949 161.007 149.846 160.973 152.5 160.393C155.154 159.813 157.676 158.723 160.316 158.076C162.956 157.429 167.389 156.231 169.829 157.41C171.637 158.276 172.683 160.678 173.806 160.293C174.335 160.082 174.807 159.749 175.183 159.322C175.56 158.895 175.831 158.385 175.975 157.834C176.242 156.724 176.327 155.579 176.227 154.442" fill="#263238"/>
<path d="M146.678 151.055C146.678 151.055 146.564 151.108 146.378 151.241C146.106 151.437 145.895 151.705 145.769 152.016C145.564 152.503 145.519 153.043 145.641 153.557C145.719 153.895 145.866 154.214 146.071 154.493C146.276 154.773 146.536 155.008 146.835 155.184C147.571 155.611 148.405 155.839 149.256 155.845C150.236 155.851 151.211 155.708 152.148 155.422C154.151 154.842 156.134 153.657 158.227 152.454C160.32 151.25 162.456 150.247 164.577 149.99C165.576 149.86 166.59 149.923 167.565 150.175C168.419 150.398 169.225 150.775 169.943 151.288C170.985 152.018 171.825 153 172.383 154.143C172.599 154.552 172.759 154.989 172.859 155.441C172.83 155.441 172.716 154.965 172.312 154.185C171.729 153.086 170.886 152.146 169.857 151.445C169.159 150.957 168.377 150.599 167.55 150.389C166.599 150.151 165.611 150.098 164.639 150.232C162.575 150.494 160.468 151.493 158.389 152.687C156.31 153.881 154.293 155.065 152.253 155.655C151.29 155.945 150.289 156.083 149.284 156.064C148.399 156.051 147.534 155.801 146.778 155.341C146.451 155.131 146.167 154.862 145.94 154.547C145.688 154.175 145.535 153.744 145.496 153.296C145.457 152.848 145.533 152.398 145.717 151.988C145.859 151.669 146.093 151.399 146.388 151.212C146.476 151.147 146.574 151.094 146.678 151.055Z" fill="#455A64"/>
<path d="M167.765 148.039C167.894 148.017 168.026 148.017 168.155 148.039C168.506 148.063 168.854 148.125 169.192 148.225C170.325 148.544 171.335 149.199 172.089 150.103C172.843 151.007 173.305 152.119 173.416 153.291C173.45 153.642 173.45 153.995 173.416 154.347C173.411 154.476 173.384 154.603 173.335 154.722C173.287 154.722 173.368 154.175 173.244 153.295C173.095 152.17 172.63 151.111 171.903 150.239C171.177 149.367 170.219 148.718 169.139 148.367C168.312 148.106 167.76 148.087 167.765 148.039Z" fill="#455A64"/>
<path d="M182.063 163.333C181.918 163.415 181.754 163.461 181.587 163.466C181.12 163.506 180.651 163.405 180.241 163.176C179.629 162.845 179.131 162.335 178.814 161.715C178.445 160.969 178.17 160.18 177.996 159.366C177.826 158.57 177.559 157.798 177.202 157.068C176.905 156.482 176.439 155.998 175.865 155.679C175.48 155.46 175.042 155.352 174.6 155.365C174.291 155.365 174.124 155.446 174.124 155.422C174.268 155.334 174.431 155.282 174.6 155.27C175.065 155.217 175.536 155.305 175.951 155.522C176.57 155.837 177.079 156.336 177.406 156.949C177.782 157.696 178.057 158.489 178.224 159.308C178.395 160.103 178.656 160.876 179.004 161.611C179.293 162.203 179.748 162.699 180.313 163.038C180.693 163.264 181.126 163.384 181.568 163.385C181.882 163.366 182.054 163.309 182.063 163.333Z" fill="#455A64"/>
<path d="M181.749 167.276C181.749 167.276 181.702 167.276 181.602 167.315C181.461 167.344 181.318 167.363 181.174 167.372C180.641 167.411 180.105 167.369 179.585 167.248C177.84 166.842 176.312 165.794 175.304 164.313C174.319 162.847 173.715 161.158 173.549 159.399C173.531 159.104 173.485 158.811 173.411 158.524C173.352 158.315 173.231 158.129 173.064 157.991C172.915 157.877 172.737 157.809 172.55 157.796C172.647 157.764 172.752 157.758 172.853 157.778C172.953 157.798 173.047 157.844 173.125 157.91C173.318 158.052 173.463 158.25 173.539 158.476C173.631 158.769 173.692 159.07 173.72 159.375C173.934 161.091 174.547 162.733 175.509 164.17C176.484 165.598 177.939 166.629 179.609 167.077C180.311 167.236 181.03 167.303 181.749 167.276Z" fill="#455A64"/>
<path d="M140.018 317.952L207.564 317.514L200.748 276.691L199.564 206.505L186.073 202.386L179.414 198.628L157.499 201.401L154.679 204.973C154.679 204.973 145.089 208.208 140.941 210.106L140.656 210.234C137.714 211.576 135.221 213.738 133.478 216.461L115.197 244.902L88.4643 229.314L79.0459 243.028C79.0459 243.028 111.868 270.351 117.818 269.794C123.769 269.237 125.834 269.233 127.888 266.436C129.463 264.286 135.652 257.003 138.601 252.137L141.612 285.763L140.018 317.952Z" fill="white"/>
<path d="M161.419 317.994C161.348 317.994 160.806 303.039 160.211 284.587C159.616 266.136 159.179 251.171 159.26 251.171C159.341 251.171 159.869 266.121 160.468 284.582C161.067 303.044 161.486 317.994 161.419 317.994Z" fill="#263238"/>
<path d="M157.585 201.125L159.283 252.184L179.395 198.628L157.585 201.125Z" fill="#FFBE9D"/>
<path d="M159.436 255.062C159.408 255.012 159.385 254.96 159.369 254.905C159.322 254.791 159.265 254.639 159.193 254.429C159.027 254.011 158.798 253.421 158.504 252.664C157.89 251.142 156.991 248.94 155.745 246.281C155.107 244.954 154.394 243.512 153.547 242C152.671 240.403 151.615 238.912 150.398 237.557C149.732 236.872 148.938 236.154 148.657 235.102C148.536 234.581 148.549 234.038 148.695 233.523C148.824 233.009 149.004 232.515 149.171 232.015C149.832 230.003 150.522 227.924 151.221 225.798L151.264 225.665L151.392 225.827L143.306 226.559V226.321L147.62 217.759C148.947 215.153 150.146 212.855 151.178 210.962C152.21 209.069 153.081 207.575 153.685 206.571C153.994 206.067 154.241 205.682 154.413 205.425L154.608 205.14C154.655 205.073 154.679 205.04 154.684 205.044L154.627 205.149L154.446 205.449C154.284 205.729 154.051 206.115 153.756 206.614C153.162 207.632 152.329 209.13 151.311 211.033C150.293 212.936 149.114 215.238 147.801 217.854L145.736 221.993L144.628 224.209L144.052 225.351L143.753 225.927L143.596 226.212L143.515 226.359L143.467 226.431C143.434 226.484 143.384 226.524 143.325 226.545V226.307L151.411 225.565H151.597L151.54 225.746L151.497 225.874C150.793 228.001 150.103 230.079 149.442 232.091C149.128 233.086 148.671 234.085 148.928 235.045C149.185 236.006 149.937 236.71 150.603 237.395C151.834 238.777 152.899 240.298 153.775 241.928C154.622 243.441 155.326 244.892 155.954 246.21C157.181 248.883 158.061 251.099 158.646 252.636C158.932 253.407 159.15 254.006 159.288 254.415C159.361 254.618 159.414 254.776 159.445 254.891C159.446 254.948 159.443 255.005 159.436 255.062Z" fill="#263238"/>
<path d="M159.369 255.543C159.361 255.487 159.361 255.431 159.369 255.376L159.445 254.9C159.557 254.278 159.724 253.667 159.944 253.074C160.808 250.901 161.903 248.827 163.212 246.89C164.026 245.653 164.953 244.321 166.004 242.923C167.114 241.431 168.305 240.002 169.572 238.642C170.981 237.115 172.524 235.718 174.181 234.465C175.067 233.81 175.986 233.202 176.936 232.643C177.887 232.073 178.886 231.53 179.837 230.898L179.804 231.069C178.507 229.133 176.75 227.549 174.69 226.46L174.519 226.369L174.676 226.255C177.617 224.063 181.044 222.612 184.665 222.026L184.575 222.126L185.607 207.932C185.74 206.22 185.845 204.859 185.921 203.917C185.959 203.442 185.988 203.109 186.011 202.857L186.04 202.585C186.034 202.554 186.034 202.522 186.04 202.49C186.043 202.522 186.043 202.554 186.04 202.585V202.857C186.04 203.113 186.007 203.47 185.983 203.922C185.926 204.873 185.84 206.224 185.736 207.942C185.503 211.409 185.179 216.313 184.784 222.145V222.231H184.699C181.113 222.819 177.721 224.261 174.809 226.436V226.231C176.905 227.338 178.694 228.948 180.013 230.917L180.085 231.017L179.98 231.088C179.029 231.725 178.02 232.272 177.064 232.843C176.121 233.394 175.208 233.994 174.329 234.641C172.686 235.884 171.155 237.267 169.753 238.775C168.484 240.134 167.293 241.563 166.185 243.056C165.129 244.44 164.192 245.763 163.374 246.995C162.053 248.91 160.937 250.959 160.044 253.107C159.814 253.692 159.633 254.295 159.502 254.91C159.459 255.11 159.426 255.271 159.402 255.386C159.397 255.439 159.386 255.492 159.369 255.543Z" fill="#263238"/>
<path d="M184.951 239.974H170.747V242.737H184.951V239.974Z" fill="#263238"/>
<path d="M181.745 264.866C181.667 264.901 181.586 264.925 181.502 264.937L180.798 265.089C179.93 265.27 179.051 265.395 178.167 265.465C176.845 265.585 175.512 265.423 174.257 264.989C172.696 264.446 171.402 263.324 170.642 261.855C169.968 260.372 169.632 258.759 169.658 257.131C169.658 255.642 169.705 254.325 169.71 253.202C169.715 252.079 169.748 251.18 169.781 250.552C169.781 250.238 169.815 249.996 169.829 249.834C169.828 249.749 169.841 249.664 169.867 249.582C169.873 249.666 169.873 249.75 169.867 249.834C169.867 250.029 169.867 250.267 169.867 250.557C169.867 251.218 169.867 252.113 169.867 253.202V257.126C169.853 258.719 170.188 260.295 170.847 261.745C171.575 263.159 172.815 264.243 174.314 264.775C175.535 265.205 176.83 265.378 178.12 265.284C178.998 265.231 179.873 265.132 180.741 264.989L181.454 264.885C181.55 264.867 181.647 264.861 181.745 264.866Z" fill="#263238"/>
<path d="M184.314 249.254C184.314 249.32 181.079 249.454 177.093 249.544C173.107 249.634 169.867 249.658 169.867 249.587C169.867 249.515 173.097 249.392 177.088 249.297C181.079 249.201 184.314 249.211 184.314 249.254Z" fill="#263238"/>
<path d="M177.278 249.354V244.64C177.278 244.273 177.424 243.921 177.684 243.661C177.943 243.402 178.295 243.256 178.663 243.256C179.03 243.256 179.382 243.402 179.641 243.661C179.901 243.921 180.047 244.273 180.047 244.64V252.408C180.051 252.47 180.043 252.533 180.023 252.592C180.003 252.652 179.972 252.707 179.931 252.754C179.848 252.849 179.731 252.908 179.604 252.917C179.478 252.926 179.354 252.884 179.258 252.801C179.163 252.718 179.104 252.601 179.095 252.474C179.095 252.417 179.095 252.351 179.095 252.289C179.095 251.105 178.962 249.297 178.962 249.297L177.278 249.354Z" fill="#3C8AFF"/>
<path d="M177.035 257.497C176.913 256.392 176.871 255.279 176.912 254.168C176.871 253.056 176.912 251.943 177.035 250.838C177.158 251.943 177.2 253.056 177.159 254.168C177.199 255.279 177.158 256.392 177.035 257.497Z" fill="#263238"/>
<path d="M179.714 263.667C179.647 263.667 179.59 261.289 179.59 258.368C179.59 255.448 179.647 253.069 179.714 253.069C179.78 253.069 179.837 255.448 179.837 258.368C179.837 261.289 179.785 263.667 179.714 263.667Z" fill="#263238"/>
<path d="M157.941 211.866L164.549 219.929C169.215 215.22 172.568 210.568 175.489 208.513C175.489 208.513 159.288 252.903 159.264 252.166C159.24 251.428 157.941 211.866 157.941 211.866Z" fill="#3C8AFF"/>
<path d="M175.509 208.531C175.459 208.598 175.404 208.661 175.342 208.717L174.829 209.193C174.381 209.616 173.744 210.244 172.964 211.024C171.399 212.579 169.32 214.829 167.051 217.303C164.782 219.776 162.675 222.012 161.077 223.544C160.278 224.31 159.621 224.914 159.15 225.318L158.608 225.794C158.548 225.852 158.48 225.903 158.408 225.946C158.408 225.946 158.461 225.875 158.575 225.76L159.084 225.285C159.536 224.861 160.173 224.233 160.953 223.453C162.513 221.898 164.592 219.648 166.866 217.174C169.139 214.701 171.242 212.465 172.84 210.934C173.639 210.168 174.296 209.564 174.767 209.159L175.304 208.684C175.433 208.574 175.499 208.522 175.509 208.531Z" fill="#263238"/>
<path d="M164.506 219.895C164.454 219.938 162.941 218.178 161.129 215.962C159.317 213.745 157.889 211.909 157.942 211.866C157.994 211.823 159.507 213.583 161.319 215.805C163.131 218.026 164.559 219.853 164.506 219.895Z" fill="#263238"/>
<path d="M136.422 227.287C136.453 227.396 136.472 227.507 136.479 227.62C136.513 227.863 136.551 228.181 136.598 228.571C136.698 229.404 136.827 230.607 136.979 232.101C137.279 235.083 137.635 239.208 138.006 243.765C138.377 248.322 138.72 252.422 138.958 255.433C139.081 256.903 139.181 258.106 139.253 258.967C139.286 259.367 139.31 259.686 139.329 259.919C139.337 260.031 139.337 260.144 139.329 260.256C139.298 260.148 139.277 260.036 139.267 259.923C139.238 259.681 139.2 259.362 139.148 258.972C139.048 258.14 138.92 256.936 138.772 255.442C138.473 252.46 138.111 248.336 137.74 243.779C137.369 239.222 137.031 235.122 136.789 232.11C136.665 230.641 136.565 229.437 136.489 228.576C136.46 228.177 136.437 227.858 136.418 227.625C136.408 227.512 136.409 227.399 136.422 227.287Z" fill="#263238"/>
<path d="M198.588 206.4C198.588 206.4 209.177 206.4 211.831 226.769C214.486 247.137 220.322 284.492 209.71 291.575C199.097 298.658 149.922 298.159 149.922 298.159V278.427L190.269 273.975C190.269 273.975 190.117 270.303 192.172 270.331L189.879 223.772C189.879 223.772 189.403 207.285 198.588 206.4Z" fill="white"/>
<path d="M189.983 239.246C189.983 239.246 189.983 239.436 190.026 239.807C190.069 240.178 190.078 240.759 190.121 241.463C190.197 242.923 190.311 245.054 190.459 247.785C190.74 253.26 191.144 261.127 191.639 270.712V270.812H191.534C191.193 270.82 190.865 270.946 190.606 271.169C190.344 271.42 190.148 271.732 190.036 272.077C189.797 272.81 189.693 273.581 189.731 274.351V274.451H189.636L149.936 278.537L150.045 278.413V298.159L149.926 298.04C167.103 298.225 182.082 297.564 192.666 296.208C195.316 295.871 197.68 295.485 199.739 295.081C201.491 294.736 203.223 294.299 204.929 293.773C205.619 293.54 206.228 293.297 206.751 293.112C207.274 292.926 207.702 292.703 208.04 292.527L208.791 292.099L209.053 291.961C209.053 291.961 208.972 292.018 208.806 292.118L208.059 292.565C207.721 292.746 207.284 292.931 206.775 293.174C206.266 293.416 205.647 293.611 204.953 293.849C203.248 294.392 201.516 294.842 199.763 295.2C197.703 295.619 195.335 296.013 192.69 296.361C182.096 297.735 167.108 298.454 149.922 298.263H149.803V298.144C149.803 292.436 149.803 286.414 149.803 280.216V278.313H149.917L189.617 274.27L189.522 274.38C189.479 273.574 189.589 272.767 189.845 272.001C189.968 271.626 190.182 271.288 190.468 271.017C190.766 270.764 191.14 270.62 191.529 270.608L191.434 270.712C190.958 261.127 190.602 253.26 190.345 247.78C190.221 245.049 190.121 242.918 190.055 241.458C190.026 240.735 190.007 240.183 189.988 239.803C189.969 239.422 189.983 239.246 189.983 239.246Z" fill="#263238"/>
<path d="M197.347 275.516C197.304 275.516 197.147 275.107 196.786 274.489C196.31 273.686 195.7 272.97 194.983 272.372C194.263 271.778 193.447 271.31 192.571 270.988C191.901 270.745 191.454 270.669 191.463 270.626C191.86 270.622 192.254 270.688 192.628 270.821C193.548 271.103 194.403 271.565 195.143 272.18C195.882 272.795 196.493 273.55 196.938 274.403C197.14 274.747 197.279 275.124 197.347 275.516Z" fill="#263238"/>
<path d="M192.605 279.179C192.034 277.297 190.981 275.596 189.551 274.246C189.818 274.37 190.058 274.545 190.26 274.76C190.785 275.235 191.24 275.783 191.61 276.387C191.985 276.987 192.273 277.637 192.467 278.318C192.57 278.593 192.617 278.886 192.605 279.179Z" fill="#263238"/>
<path d="M53.2021 221.309L82.1233 298.207L143.471 299.448L118.189 221.837L53.2021 221.309Z" fill="#3C8AFF"/>
<g opacity="0.5">
<path d="M91.8323 298.344C91.8323 298.344 77.1433 270.141 72.5816 251.323C69.9796 240.683 67.6631 221.403 67.6631 221.403L105.955 221.741C105.955 221.741 118.656 241.953 125.967 262.15C130.345 274.199 133.557 286.642 135.557 299.305L115.906 298.872L109.442 280.026C109.442 280.026 107.425 281.115 104.652 279.707L111.311 298.772L91.8323 298.344Z" fill="white"/>
</g>
<path d="M112.819 268.053C112.463 267.016 110.917 263.353 111.164 261.526C111.411 259.7 113.219 257.721 113.319 255.89C113.419 254.058 113.471 249.977 113.005 247.988C112.515 246.23 111.913 244.504 111.202 242.823C111.202 242.823 108.429 238.432 105.642 238.332L102.25 238.209C102.25 238.209 99.7954 238.798 100.985 241.833C102.174 244.868 104.98 250.077 105.385 250.976C105.789 251.875 107.682 255.347 107.254 257.573C106.826 259.8 103.587 266.012 104.015 267.525L102.278 267.463C102.278 267.463 100.675 264.685 98.4255 263.51C96.1755 262.335 91.3474 257.264 90.339 254.234C89.3305 251.204 88.1984 244.155 87.5182 242.019C86.838 239.883 85.7867 238.009 84.022 237.533C82.2572 237.057 79.8931 237.657 79.8931 237.657C79.8931 237.657 76.7298 238.746 78.1426 243.503C79.5554 248.26 80.3497 248.55 82.0241 251.333C83.6985 254.115 84.1219 254.948 85.449 256.156C86.7761 257.364 89.9156 258.701 91.2665 261.607C92.6175 264.514 93.3167 267.886 95.7331 272.044C98.1496 276.201 99.0629 277.752 100.966 277.752C102.868 277.752 103.487 275.597 103.558 274.303C103.604 273.624 103.604 272.942 103.558 272.262L105.86 272.348C105.86 272.348 108.462 277.209 111.193 278.123C113.923 279.036 113.733 276.581 113.871 275.63C114.009 274.679 113.195 269.085 112.819 268.053ZM99.334 273.666C98.611 273.295 97.3505 270.859 96.0994 268.747C95.1481 267.168 95.248 266.335 95.3478 266.017C95.3639 265.961 95.3879 265.908 95.4192 265.86L95.3811 265.912C95.4763 265.36 96.4038 265.603 97.0841 265.874C97.5835 266.074 99.9619 267.001 100.737 270.445C101.513 273.889 100.076 274.032 99.3483 273.666H99.334ZM111.264 274.098C110.788 274.422 109.185 274.17 107.592 270.697C105.998 267.225 107.792 266.445 108.167 266.278C108.676 266.05 109.461 265.869 109.937 266.44L109.866 266.388C109.929 266.437 109.99 266.491 110.046 266.549C110.727 267.309 111.125 268.28 111.174 269.299C111.392 271.368 111.763 273.775 111.278 274.098H111.264Z" fill="white"/>
<path d="M103.092 266.336C103.662 266.298 103.258 264.129 103.258 264.129C103.319 263.312 103.319 262.492 103.258 261.675C103.153 260.652 103.681 259.715 104.048 258.768C104.414 257.822 104.048 255.296 103.572 254.011C103.096 252.727 103.429 252.627 103.429 252.627C104.894 252.152 103.543 249.102 102.559 246.253C101.574 243.404 100.594 243.608 100.594 243.608C100.594 243.608 99.9379 243.585 99.5621 245.906C99.1863 248.227 98.5441 249.05 97.1361 249.045H96.3845C94.9575 249.045 93.7065 248.046 91.7086 245.639C89.7108 243.233 89.0591 243.209 89.0591 243.209C89.0591 243.209 87.9127 242.928 88.8831 245.777C89.8535 248.627 90.5813 251.643 92.4174 252.251C92.4174 252.251 92.7979 252.385 93.2308 253.678C93.6637 254.972 95.0241 257.517 96.0563 258.511C97.0885 259.505 98.2825 260.509 98.8819 261.546C99.4812 262.583 100.599 264.062 100.599 264.062C100.599 264.062 101.964 266.27 102.573 266.35L103.092 266.336Z" fill="white"/>
<path d="M85.2867 222.098C85.2867 222.098 84.5398 222.312 85.0774 223.563C85.6149 224.814 85.553 225.551 85.8622 225.889C86.1903 226.228 86.5398 226.546 86.9087 226.84C86.9087 226.84 86.0525 227.135 86.6852 228.472C87.3178 229.809 87.4795 231.126 87.7697 231.711C88.0599 232.296 88.6735 232.487 88.9589 232.824C89.2443 233.162 88.0075 232.786 88.331 233.947C88.6545 235.108 89.387 235.954 89.3822 237.025C89.3775 238.095 89.9007 239.503 90.9187 240.031C91.9366 240.559 91.7464 241.291 91.7749 241.867C91.8352 242.656 91.9951 243.434 92.2506 244.184C92.6501 245.672 94.9382 247.989 96.3414 247.861C97.7447 247.732 99.0908 246.077 98.7531 245.078C98.1787 243.715 97.4096 242.443 96.4698 241.301C95.8752 240.706 95.371 240.687 95.4804 240.036C95.5898 239.384 96.3224 240.392 96.2891 239.489C96.3166 238.557 96.0755 237.637 95.5946 236.839C95.0285 235.997 94.8573 235.174 94.315 234.085C93.7727 232.996 92.712 232.796 92.7976 232.553C92.8832 232.311 93.4636 232.415 92.9831 231.331C92.5027 230.246 92.4741 230.984 91.9604 229.323C91.4467 227.663 91.2136 226.669 90.7141 226.817C90.2147 226.964 90.2908 226.227 90.1148 225.071C89.9388 223.915 90.3574 224.343 89.6391 223.087C88.9208 221.831 85.2867 222.098 85.2867 222.098Z" fill="white"/>
<path d="M86.2475 262.958L86.8802 261.446L85.8575 258.406C85.8575 258.406 87.5699 257.364 89.953 260.822C92.3362 264.281 92.1792 265.922 92.1792 265.922L89.3537 265.822C88.9598 266.812 88.9245 267.909 89.2538 268.923C89.8294 270.483 90.6808 270.293 91.4371 273.028C91.8324 274.28 92.1142 275.565 92.2791 276.867L101.089 298.206L97.1548 298.063L87.6412 275.454C87.6412 275.454 86.5615 274.755 84.7872 271.325C83.0129 267.896 81.348 263.439 82.4849 262.235C83.6218 261.032 86.2475 262.958 86.2475 262.958Z" fill="white"/>
<path d="M117.667 264.105L115.968 262.53L114.908 259.491C114.908 259.491 112.425 258.297 112.382 261.665C112.339 265.032 113.642 266.73 113.642 266.73L116.468 266.83C116.468 266.83 118.233 268.467 118.723 270.017C119.213 271.568 118.247 271.316 119.332 274.065C119.835 275.398 120.436 276.693 121.13 277.937L126.895 299.157L130.833 299.3L124.897 276.801C124.897 276.801 125.525 276.163 124.94 272.776C124.355 269.39 122.999 264.951 120.992 263.634C120.488 263.256 119.855 263.094 119.232 263.182C118.609 263.27 118.046 263.602 117.667 264.105Z" fill="white"/>
<path d="M53.2021 221.309L118.189 221.732H118.261L118.284 221.803C125.386 243.58 133.925 269.771 143.11 297.912L143.586 299.391L143.643 299.558H143.467L82.1043 298.306H82.0282L81.9997 298.235L53.2021 221.309C53.5446 222.227 65.0227 252.608 82.2185 298.169L82.1186 298.097L143.481 299.324L143.362 299.486C143.2 299.01 143.039 298.506 142.886 298.007L118.104 221.87L118.199 221.941L53.2021 221.309Z" fill="#263238"/>
<path d="M150.017 280.035H143.867C143.867 280.035 140.718 276.995 139.862 276.567C139.005 276.139 134.8 274.869 134.8 274.869L136.422 279.369C136.676 279.442 136.926 279.529 137.169 279.631C138.244 280.049 137.945 281.001 137.088 281.001H130.895C130.895 281.001 124.549 277.956 123.608 278.513C122.818 278.989 122.542 279.821 123.351 281.001C124.159 282.18 129.72 284.953 130.357 285.168L132.175 285.7L130.467 286.233L122.38 283.412C121.852 283.317 121.129 283.232 120.892 283.536C120.789 283.64 120.708 283.763 120.655 283.899C120.601 284.034 120.576 284.179 120.58 284.325C120.584 284.471 120.617 284.615 120.678 284.747C120.739 284.88 120.826 284.998 120.934 285.096C122.087 286.138 123.309 287.099 124.592 287.974C124.592 287.974 123.303 289.877 124.369 290.828C125.434 291.779 128.536 294.676 128.536 294.676C128.536 294.676 128.859 296.279 129.82 297.026C130.781 297.773 141.36 297.773 142.107 297.773C142.854 297.773 147.13 295.319 147.13 295.319L149.927 295.024L150.017 280.035Z" fill="#FFBE9D"/>
<path d="M131.68 291.028C131.307 291.148 130.915 291.201 130.524 291.185C130.092 291.187 129.664 291.111 129.258 290.962C128.774 290.77 128.313 290.525 127.884 290.229C126.966 289.635 126.148 289.083 125.558 288.674C125.227 288.473 124.919 288.237 124.64 287.97C124.998 288.118 125.339 288.305 125.658 288.526C126.266 288.897 127.085 289.425 128.036 290.02C128.452 290.305 128.895 290.549 129.358 290.748C129.737 290.901 130.139 290.99 130.548 291.009C131.233 291.043 131.68 290.986 131.68 291.028Z" fill="#EB996E"/>
<path d="M132.165 294.986C132.189 294.986 131.936 295.29 131.366 295.437C130.618 295.597 129.837 295.467 129.182 295.071C128.54 294.706 127.946 294.264 127.413 293.754C127.175 293.56 126.971 293.329 126.809 293.069C126.866 293.002 127.836 294.02 129.301 294.852C129.908 295.221 130.625 295.367 131.328 295.266C131.614 295.197 131.894 295.104 132.165 294.986Z" fill="#EB996E"/>
<path d="M135.176 286.228C134.615 286.298 134.046 286.254 133.502 286.1C132.942 286.026 132.402 285.841 131.913 285.558C132.468 285.607 133.018 285.707 133.554 285.857C134.105 285.931 134.648 286.056 135.176 286.228Z" fill="#EB996E"/>
<path d="M50.805 235.212C50.5035 235.041 50.2399 234.81 50.0299 234.534C49.8199 234.258 49.6679 233.942 49.5831 233.605C49.4982 233.269 49.4822 232.919 49.5361 232.576C49.5899 232.234 49.7125 231.905 49.8965 231.611C50.1215 231.193 50.4488 230.838 50.8478 230.579C51.88 230.032 61.013 228.32 61.9929 228.201C62.9728 228.082 63.1536 229.946 61.874 230.874C60.5944 231.802 50.8288 235.222 50.8288 235.222L50.805 235.212Z" fill="#FFBE9D"/>
<path d="M52.9316 241.834C52.6319 241.662 52.3699 241.431 52.1612 241.156C51.9524 240.88 51.8012 240.566 51.7164 240.231C51.6317 239.895 51.6151 239.547 51.6678 239.205C51.7205 238.864 51.8413 238.536 52.023 238.242C52.2467 237.823 52.5742 237.467 52.9744 237.21C54.0066 236.663 63.3299 234.213 64.1195 234.832C65.0708 235.545 65.2801 236.573 64.0006 237.505C62.721 238.437 52.9553 241.853 52.9553 241.853L52.9316 241.834Z" fill="#FFBE9D"/>
<path d="M54.786 240.464C54.3553 240.563 53.9517 240.756 53.6039 241.029C53.2562 241.302 52.9728 241.648 52.7739 242.043C52.5558 242.468 52.4903 242.955 52.5884 243.422C52.7392 244.122 53.0773 244.768 53.5665 245.291C54.0558 245.814 54.6779 246.194 55.3663 246.391C57.036 246.914 62.473 245.691 62.473 245.691L61.2172 242.186L65.0226 240.939C66.5733 240.321 65.8217 237.895 63.9571 238.366C63.3482 238.518 56.9646 239.921 54.786 240.464Z" fill="#FFBE9D"/>
<path d="M51.9325 238.338C51.6323 238.166 51.3698 237.935 51.1607 237.66C50.9516 237.385 50.8001 237.07 50.7153 236.735C50.6305 236.4 50.6141 236.051 50.6672 235.709C50.7202 235.367 50.8415 235.04 51.0239 234.746C51.249 234.327 51.5762 233.972 51.9753 233.714C53.0075 233.167 61.3128 231.688 62.2784 231.483C63.2441 231.278 64.281 233.062 63.0015 233.99C61.7219 234.917 51.9325 238.338 51.9325 238.338Z" fill="#FFBE9D"/>
<path d="M61.3177 235.003C60.8432 235.165 60.3565 235.289 59.8622 235.374C58.9584 235.574 57.7073 235.85 56.3231 236.107C55.1439 236.292 54.0126 236.707 52.9934 237.329C52.5942 237.625 52.2373 237.974 51.9326 238.366C51.9326 238.366 51.9707 238.223 52.1086 238C52.3126 237.686 52.5702 237.411 52.8697 237.186C53.3048 236.858 53.7856 236.595 54.2967 236.406C54.9261 236.178 55.5717 235.996 56.228 235.864C57.617 235.588 58.8775 235.36 59.7908 235.203C60.2929 235.091 60.8039 235.024 61.3177 235.003Z" fill="#EB996E"/>
<path d="M59.7146 231.968C59.2609 232.121 58.7945 232.234 58.3209 232.306L54.9293 232.962C53.8038 233.149 52.7296 233.568 51.7756 234.194C51.4244 234.5 51.1056 234.841 50.8242 235.212C50.8242 235.212 50.8623 235.074 50.9907 234.86C51.1759 234.555 51.4106 234.283 51.6852 234.056C52.3749 233.447 53.5879 233.01 54.896 232.724C56.2041 232.439 57.4314 232.277 58.3066 232.134C58.7704 232.039 59.2414 231.984 59.7146 231.968Z" fill="#EB996E"/>
<path d="M61.446 238.89C61.0221 239.06 60.5845 239.194 60.1379 239.289C59.3245 239.508 58.1876 239.798 56.9223 240.007C55.8365 240.147 54.7881 240.496 53.8351 241.035C53.4821 241.298 53.1626 241.603 52.8838 241.944C52.8838 241.944 52.9171 241.815 53.0503 241.615C53.2476 241.336 53.4904 241.091 53.7685 240.892C54.7119 240.296 55.7732 239.912 56.8795 239.765C58.1495 239.556 59.2579 239.289 60.1046 239.123C60.5435 239.003 60.9926 238.925 61.446 238.89Z" fill="#EB996E"/>
<path d="M61.9599 241.943C61.3306 242.282 60.6652 242.548 59.9763 242.738C59.3083 243.001 58.6125 243.188 57.9023 243.294C58.5308 242.955 59.1964 242.69 59.8859 242.505C60.5538 242.24 61.2496 242.052 61.9599 241.943Z" fill="#EB996E"/>
<path d="M256.145 187.022C256.725 186.174 257.494 185.473 258.392 184.975C259.289 184.476 260.291 184.193 261.317 184.149C262.342 184.104 263.365 184.3 264.302 184.719C265.239 185.138 266.066 185.77 266.717 186.564C267.368 187.359 267.825 188.293 268.051 189.295C268.278 190.297 268.268 191.337 268.023 192.334C267.777 193.331 267.303 194.258 266.638 195.04C265.972 195.822 265.134 196.438 264.189 196.84C265.241 197.357 266.047 198.268 266.432 199.375C266.816 200.483 266.748 201.697 266.243 202.755C265.738 203.813 264.835 204.629 263.732 205.026C262.629 205.422 261.413 205.368 260.35 204.874C259.832 206.7 257.786 207.804 255.893 207.676C254 207.547 252.292 206.424 250.998 205.036C249.651 203.592 248.683 201.837 248.179 199.928C247.675 198.019 247.652 196.015 248.111 194.095C249.119 190.29 252.392 187.102 256.297 186.446" fill="#263238"/>
<path d="M259.151 184.043C259.151 184.043 259.184 184.086 259.232 184.176C259.301 184.308 259.362 184.445 259.413 184.585C259.612 185.11 259.736 185.661 259.779 186.222C259.851 187.077 259.756 187.938 259.498 188.757C259.177 189.804 258.592 190.75 257.8 191.506V191.349C258.456 192.245 258.888 193.283 259.061 194.379C259.294 195.72 259.118 197.1 258.555 198.338C257.993 199.577 257.07 200.618 255.907 201.324C255.216 201.758 254.452 202.063 253.652 202.223C253.437 202.267 253.22 202.296 253.001 202.309C252.923 202.316 252.845 202.316 252.768 202.309C252.768 202.28 253.082 202.257 253.633 202.128C254.406 201.932 255.142 201.61 255.812 201.177C256.584 200.674 257.245 200.019 257.757 199.252C258.268 198.486 258.618 197.623 258.786 196.717C258.954 195.811 258.937 194.881 258.735 193.982C258.532 193.083 258.15 192.234 257.61 191.487L257.548 191.402L257.624 191.33C258.395 190.609 258.968 189.701 259.289 188.695C259.553 187.902 259.664 187.066 259.617 186.231C259.566 185.483 259.409 184.747 259.151 184.043Z" fill="#455A64"/>
<path d="M278.174 182.721C277.95 182.878 277.715 183.018 277.47 183.139C276.994 183.391 276.338 183.748 275.505 184.176C273.831 185.037 271.5 186.174 268.879 187.344C266.258 188.514 263.851 189.485 262.096 190.156C261.221 190.489 260.507 190.755 260.008 190.926C259.756 191.026 259.497 191.107 259.232 191.169C259.47 191.038 259.719 190.927 259.974 190.836L262.034 189.994C263.77 189.28 266.163 188.281 268.779 187.14C271.395 185.998 273.736 184.861 275.439 184.043L277.441 183.092C277.676 182.95 277.921 182.826 278.174 182.721Z" fill="#3C8AFF"/>
<path d="M271.976 176.556C272.019 176.609 269.407 179.106 266.139 182.131C262.872 185.157 260.184 187.578 260.136 187.525C260.089 187.473 262.705 184.995 265.987 181.951C269.269 178.906 271.928 176.509 271.976 176.556Z" fill="#3C8AFF"/>
<path d="M243.53 166.253C243.53 161.135 237.413 160.883 234.321 162.162C232.656 159.879 231.467 158.728 227.638 158.49C224.827 158.309 220.541 159.722 218.381 162.552C217.321 163.991 216.657 165.682 216.455 167.457C216.253 169.233 216.52 171.03 217.23 172.67C217.706 173.75 218.386 174.834 218.253 176C218.058 177.693 216.322 178.683 215.199 179.962C214.279 181.06 213.749 182.433 213.694 183.865C213.639 185.297 214.061 186.707 214.895 187.873C215.984 189.3 217.715 190.332 218.291 192.044C218.767 193.471 218.319 195.046 218.41 196.558C218.576 199.341 220.688 201.791 223.276 202.795C225.864 203.798 228.827 203.575 231.443 202.623" fill="#263238"/>
<path d="M221.154 219.943L230.749 215.662L231.077 209.245C231.077 209.245 223.866 208.179 222.206 198.828C221.383 194.175 221.483 186.522 221.763 180.276C222.02 174.639 227.985 168.912 233.603 169.407L251.85 172.542V175.572L252.016 214.216L261.454 218.768L240.048 244.055L221.154 219.943Z" fill="#A36957"/>
<path d="M225.174 186.898C225.176 187.211 225.301 187.51 225.521 187.733C225.742 187.955 226.041 188.082 226.353 188.087C226.506 188.096 226.66 188.074 226.804 188.024C226.949 187.973 227.082 187.894 227.196 187.791C227.309 187.688 227.402 187.564 227.467 187.425C227.532 187.287 227.569 187.136 227.576 186.983C227.574 186.67 227.449 186.37 227.229 186.147C227.008 185.924 226.71 185.796 226.396 185.789C226.243 185.78 226.089 185.801 225.944 185.852C225.799 185.903 225.665 185.982 225.551 186.085C225.437 186.189 225.345 186.314 225.28 186.453C225.215 186.593 225.179 186.744 225.174 186.898Z" fill="#263238"/>
<path d="M223.495 184.195C223.647 184.348 224.546 183.658 225.84 183.639C227.134 183.62 228.095 184.252 228.219 184.091C228.29 184.019 228.133 183.739 227.714 183.444C227.151 183.069 226.488 182.875 225.812 182.887C225.138 182.897 224.484 183.122 223.947 183.529C223.552 183.839 223.419 184.124 223.495 184.195Z" fill="#263238"/>
<path d="M237.271 186.898C237.272 187.212 237.396 187.512 237.617 187.736C237.837 187.959 238.136 188.087 238.45 188.092C238.604 188.101 238.757 188.079 238.902 188.028C239.047 187.977 239.18 187.897 239.294 187.794C239.408 187.691 239.5 187.566 239.565 187.427C239.63 187.288 239.667 187.137 239.673 186.983C239.669 186.67 239.544 186.371 239.324 186.148C239.104 185.925 238.806 185.797 238.493 185.789C238.339 185.78 238.186 185.801 238.04 185.852C237.895 185.903 237.762 185.982 237.648 186.085C237.534 186.189 237.442 186.314 237.377 186.453C237.312 186.593 237.276 186.744 237.271 186.898Z" fill="#263238"/>
<path d="M236.224 184.21C236.376 184.367 237.28 183.673 238.574 183.654C239.868 183.635 240.828 184.267 240.952 184.106C241.019 184.034 240.862 183.754 240.443 183.459C239.88 183.086 239.216 182.894 238.54 182.907C237.867 182.916 237.214 183.139 236.676 183.544C236.281 183.858 236.152 184.144 236.224 184.21Z" fill="#263238"/>
<path d="M231.701 193.894C231.701 193.823 230.897 193.699 229.589 193.552C229.256 193.523 228.942 193.466 228.885 193.243C228.85 192.901 228.921 192.557 229.089 192.258C229.384 191.449 229.693 190.607 230.041 189.723C231.334 186.112 232.262 183.149 232.119 183.096C231.977 183.044 230.806 185.95 229.513 189.537C229.199 190.427 228.904 191.278 228.618 192.087C228.418 192.491 228.366 192.952 228.471 193.39C228.521 193.506 228.596 193.609 228.692 193.691C228.787 193.774 228.901 193.833 229.023 193.866C229.206 193.912 229.395 193.936 229.584 193.937C230.882 193.975 231.696 193.97 231.701 193.894Z" fill="#263238"/>
<path d="M231.077 209.254C235.494 209.243 239.822 208.006 243.578 205.682C243.578 205.682 240.362 212.294 230.958 211.585L231.077 209.254Z" fill="#7C3B29"/>
<path d="M232.299 197.006C232.541 196.692 232.859 196.444 233.222 196.286C233.586 196.128 233.984 196.065 234.378 196.102C234.664 196.124 234.942 196.203 235.197 196.334C235.451 196.464 235.678 196.644 235.862 196.863C236.039 197.077 236.147 197.34 236.169 197.616C236.192 197.893 236.13 198.169 235.991 198.409C235.789 198.649 235.521 198.822 235.22 198.907C234.918 198.992 234.599 198.984 234.302 198.885C233.687 198.68 233.118 198.357 232.628 197.934C232.481 197.832 232.354 197.705 232.252 197.558C232.206 197.487 232.182 197.404 232.182 197.32C232.182 197.236 232.206 197.153 232.252 197.082" fill="#7C3B29"/>
<path d="M235.544 194.723C235.334 194.723 235.353 196.121 234.169 197.139C232.984 198.157 231.486 198.029 231.477 198.229C231.477 198.314 231.814 198.495 232.428 198.5C233.252 198.497 234.049 198.204 234.678 197.672C235.281 197.16 235.662 196.433 235.739 195.646C235.781 195.061 235.62 194.713 235.544 194.723Z" fill="#263238"/>
<path d="M235.8 179.144C235.934 179.492 237.227 179.301 238.745 179.458C240.262 179.615 241.504 180.01 241.699 179.687C241.789 179.534 241.57 179.211 241.066 178.878C240.398 178.472 239.646 178.223 238.867 178.15C238.088 178.078 237.303 178.183 236.571 178.459C236.019 178.697 235.743 178.978 235.8 179.144Z" fill="#263238"/>
<path d="M223.904 180.443C224.137 180.728 225.027 180.41 226.097 180.376C227.167 180.343 228.081 180.538 228.285 180.229C228.375 180.077 228.223 179.782 227.809 179.51C227.27 179.188 226.646 179.032 226.018 179.064C225.39 179.095 224.785 179.312 224.28 179.686C223.923 179.996 223.804 180.3 223.904 180.443Z" fill="#263238"/>
<path d="M219.29 168.822C220.717 172.151 223.994 177.089 227.581 177.527C229.379 177.721 231.197 177.452 232.862 176.746C234.527 176.04 235.984 174.92 237.095 173.493C237.637 176.166 240.605 177.584 243.278 178.026C245.181 178.34 247.189 178.359 248.987 177.641C250.785 176.922 252.316 175.362 252.597 173.46C252.878 171.557 250.176 166.867 248.278 166.515" fill="#263238"/>
<path d="M243.953 175.481C243.326 176.885 243.278 178.48 243.821 179.919C244.363 181.357 245.452 182.524 246.85 183.164C245.528 184.805 245.29 187.131 245.794 189.181C246.299 191.231 247.454 193.062 248.696 194.77C248.696 194.77 245.471 199.436 251.964 202.857C251.964 202.857 256.521 201.43 254.485 194.575C254.323 194.084 254.353 193.55 254.571 193.081C254.854 192.684 255.245 192.375 255.698 192.192C257.41 191.239 258.678 189.65 259.229 187.77C259.78 185.889 259.569 183.867 258.642 182.141C258.356 181.702 258.143 181.22 258.01 180.714C257.881 179.943 257.291 177.931 257.534 177.194C258.928 173.346 257.134 168.565 252.62 166.191C249 164.289 244.467 163.97 241.68 166.981" fill="#263238"/>
<path d="M269.16 250.31L275.344 226.122L257.996 216.575L241.252 242.385L226.082 217.289L210.456 224.362C209.429 224.829 208.603 225.649 208.13 226.674L193.993 264.909L213.096 271.093L215.284 262.231L217.801 277.533L210.532 317.69L272.908 317.462L261.853 276.235L263.39 267.04L269.16 250.31Z" fill="#3C8AFF"/>
<g opacity="0.3">
<path d="M216.792 281.662C221.073 282.385 224.926 278.594 229.264 278.56C233.265 278.532 236.585 281.667 240.481 282.575C242.198 282.975 244.072 282.96 245.556 283.902C246.698 284.625 247.459 285.805 248.239 286.904C252.048 292.104 257.604 295.757 263.889 297.193C264.84 297.407 266.971 298.144 267.556 297.34L266.938 294.876L266.396 287.403L245.494 272.182L221.639 273.352L216.792 281.662Z" fill="black"/>
</g>
<path d="M262.61 246.657H249.705V248.793H262.61V246.657Z" fill="#263238"/>
<path d="M263.484 272.752C268.717 274.607 274.425 274.327 279.886 273.523C281.184 273.328 282.54 273.08 283.563 272.257C283.905 271.986 284.733 271.306 284.719 271.125C284.681 270.626 283.767 269.96 283.249 269.546C281.262 268.011 278.969 266.919 276.525 266.345C274.08 265.77 271.541 265.727 269.078 266.216C267.765 266.453 266.509 266.937 265.378 267.643C264.269 268.385 263.575 268.794 263.194 270.074" fill="#3C8AFF"/>
<g opacity="0.3">
<path d="M263.484 272.752C268.717 274.607 274.425 274.327 279.886 273.523C281.184 273.328 282.54 273.08 283.563 272.257C283.905 271.986 284.733 271.306 284.719 271.125C284.681 270.626 283.767 269.96 283.249 269.546C281.262 268.011 278.969 266.919 276.525 266.345C274.08 265.77 271.541 265.727 269.078 266.216C267.765 266.453 266.509 266.937 265.378 267.643C264.269 268.385 263.575 268.794 263.194 270.074" fill="black"/>
</g>
<path d="M284.719 271.126C284.719 271.126 279.239 238.442 278.901 235.526C278.05 228.296 275.329 225.984 275.329 225.984L262.609 264.909L263.489 272.753C263.489 272.753 267.509 266.702 284.719 271.126Z" fill="#3C8AFF"/>
<path d="M277.708 244.878C277.649 245.153 277.57 245.424 277.47 245.687C277.308 246.205 277.037 246.942 276.685 247.846C275.75 250.197 274.637 252.472 273.355 254.653C272.068 256.828 270.608 258.896 268.989 260.837C268.366 261.579 267.842 262.169 267.467 262.559C267.28 262.768 267.08 262.965 266.867 263.149C267.025 262.916 267.202 262.697 267.395 262.492C267.747 262.083 268.251 261.479 268.856 260.723C270.424 258.753 271.854 256.677 273.137 254.51C274.412 252.345 275.544 250.098 276.523 247.784C276.894 246.89 277.189 246.162 277.38 245.658C277.47 245.39 277.579 245.129 277.708 244.878Z" fill="#263238"/>
<path d="M217.72 276.72C217.704 276.687 217.695 276.652 217.691 276.615C217.691 276.53 217.658 276.425 217.634 276.297C217.591 275.997 217.525 275.593 217.444 275.079C217.263 273.999 217.011 272.477 216.697 270.608C216.041 266.812 215.089 261.627 214.052 255.871C213.015 250.115 212.064 244.93 211.374 241.125L210.589 236.654C210.513 236.145 210.447 235.736 210.399 235.436L210.366 235.117C210.359 235.081 210.359 235.044 210.366 235.008C210.38 235.041 210.39 235.076 210.394 235.112C210.394 235.198 210.432 235.303 210.456 235.426C210.513 235.726 210.589 236.13 210.689 236.639C210.899 237.714 211.189 239.227 211.55 241.092C212.269 244.854 213.253 250.058 214.304 255.809C215.356 261.56 216.264 266.774 216.873 270.555C217.178 272.458 217.401 273.98 217.544 275.041C217.606 275.559 217.653 275.968 217.691 276.268C217.691 276.396 217.691 276.501 217.72 276.587C217.726 276.631 217.726 276.676 217.72 276.72Z" fill="#263238"/>
<path d="M270.102 237.319C270.092 237.443 270.069 237.566 270.035 237.686C269.978 237.947 269.902 238.294 269.802 238.727C269.588 239.655 269.288 240.958 268.917 242.533C268.161 245.763 267.115 250.22 266.006 255.157C264.898 260.095 263.932 264.571 263.295 267.825C262.981 269.451 262.724 270.769 262.567 271.682C262.491 272.12 262.424 272.467 262.377 272.734C262.362 272.856 262.335 272.978 262.296 273.095C262.296 272.971 262.307 272.846 262.329 272.724C262.367 272.458 262.415 272.106 262.472 271.668C262.6 270.745 262.829 269.423 263.124 267.791C263.718 264.528 264.651 260.042 265.764 255.1C266.877 250.158 267.947 245.71 268.746 242.49C269.146 240.901 269.474 239.607 269.697 238.685C269.812 238.256 269.907 237.914 269.973 237.652C270.005 237.537 270.048 237.426 270.102 237.319Z" fill="#263238"/>
<path d="M222.063 218.963C222.104 219.008 222.139 219.058 222.168 219.111L222.463 219.586C222.725 219.995 223.096 220.585 223.571 221.341L227.605 227.806L240.924 249.387H240.72L241.347 248.498C242.028 247.547 242.694 246.595 243.322 245.72V245.882L231.03 225.499C229.489 222.925 228.247 220.847 227.386 219.401L226.411 217.75L226.164 217.317C226.131 217.27 226.104 217.219 226.083 217.165C226.12 217.208 226.153 217.255 226.183 217.303L226.449 217.726C226.687 218.107 227.03 218.678 227.462 219.358C228.342 220.785 229.608 222.854 231.173 225.413L243.54 245.753L243.578 245.82L243.536 245.886C242.903 246.771 242.237 247.713 241.561 248.664L240.929 249.554L240.819 249.706L240.724 249.549L227.458 227.906C225.783 225.152 224.428 222.925 223.486 221.37C223.01 220.609 222.668 220.01 222.415 219.591L222.144 219.115C222.112 219.067 222.085 219.016 222.063 218.963Z" fill="#263238"/>
<path d="M257.981 216.433C257.965 216.482 257.941 216.529 257.91 216.571L257.667 216.961L256.716 218.454L253.196 223.948L241.333 242.309V242.176C241.856 243.032 242.412 243.946 242.978 244.864L243.511 245.734H243.302C245.842 241.929 248.182 238.285 250.328 234.979C252.473 231.673 254.428 228.719 256.131 226.284C257.834 223.848 259.256 221.917 260.255 220.576L261.42 219.068L261.73 218.678C261.763 218.634 261.799 218.592 261.839 218.554C261.814 218.605 261.784 218.653 261.749 218.697L261.458 219.096C261.192 219.458 260.816 219.976 260.331 220.633C259.38 221.97 257.953 223.915 256.274 226.341C254.594 228.767 252.644 231.745 250.518 235.06C248.392 238.376 246.061 242.076 243.521 245.882L243.411 246.044L243.311 245.877L242.779 245.007L241.138 242.319L241.095 242.257L241.138 242.191L253.068 223.872L256.649 218.421L257.629 216.951L257.886 216.575L257.981 216.433Z" fill="#263238"/>
<path d="M223.919 262.187C222.976 261.781 221.917 261.737 220.945 262.063C219.972 262.39 219.154 263.064 218.648 263.957C218.264 264.718 218.114 265.575 218.215 266.421C218.317 267.268 218.666 268.065 219.219 268.714C220.346 269.912 223.077 270.731 224.347 269.285L223.919 262.187Z" fill="white"/>
<path d="M223.918 262.187C223.951 262.354 223.972 262.522 223.98 262.692C224.008 263.063 224.051 263.548 224.099 264.142C224.189 265.441 224.313 267.215 224.455 269.299V269.346L224.427 269.38C224.143 269.675 223.795 269.902 223.41 270.042C223.025 270.183 222.613 270.233 222.206 270.188C221.337 270.131 220.498 269.846 219.775 269.361C219.073 268.897 218.551 268.207 218.295 267.406C218.058 266.669 218.004 265.885 218.138 265.122C218.256 264.429 218.56 263.781 219.018 263.248C219.414 262.793 219.9 262.425 220.446 262.168C221.243 261.797 222.138 261.692 223 261.869C223.313 261.929 223.614 262.036 223.894 262.187C223.87 262.187 223.58 262.069 222.986 261.964C222.146 261.829 221.286 261.957 220.522 262.33C219.956 262.588 219.461 262.981 219.082 263.475C218.703 263.968 218.451 264.547 218.348 265.16C218.222 265.886 218.278 266.631 218.51 267.329C218.749 268.078 219.238 268.723 219.894 269.156C220.581 269.615 221.376 269.887 222.201 269.946C222.572 269.99 222.948 269.948 223.301 269.825C223.654 269.701 223.974 269.498 224.237 269.232L224.208 269.313C224.103 267.249 224.018 265.508 223.951 264.204C223.927 263.6 223.908 263.105 223.894 262.73C223.89 262.549 223.898 262.367 223.918 262.187Z" fill="#263238"/>
<path d="M220.517 262.187C220.517 262.187 221.872 234.246 222.572 230.241C223.271 226.236 225.069 219.776 227.899 215.842C230.606 212.099 230.872 211.837 230.872 211.837L230.691 215.324C228.124 219.837 226.29 224.729 225.259 229.818C223.751 237.733 222.714 262.164 222.714 262.164L220.517 262.187Z" fill="#263238"/>
<path d="M260.227 267.182C259.433 267.173 258.648 267.012 257.915 266.706L258.277 265.826C259.246 266.251 260.33 266.337 261.354 266.069C261.859 265.92 262.324 265.659 262.714 265.305C263.104 264.95 263.408 264.512 263.604 264.024C263.914 263.057 263.93 262.021 263.652 261.046C263.46 260.323 263.223 259.613 262.943 258.92C262.824 258.61 262.705 258.301 262.591 257.968C260.593 252.35 260.94 246.076 261.245 240.516L262.196 240.568C261.896 246.024 261.559 252.213 263.495 257.65C263.604 257.959 263.718 258.258 263.832 258.563C264.131 259.293 264.382 260.041 264.584 260.803C264.914 261.966 264.884 263.202 264.498 264.347C264.255 264.972 263.871 265.534 263.376 265.987C262.881 266.441 262.289 266.775 261.644 266.963C261.185 267.106 260.708 267.18 260.227 267.182Z" fill="#3B8AFF"/>
<path d="M260.136 267.601C258.547 267.601 257.158 266.855 255.95 265.361C254.38 263.43 254.128 258.64 253.909 254.42C253.833 252.908 253.757 251.481 253.624 250.444C253.148 246.79 251.06 241.881 251.041 241.839L251.912 241.463C252.002 241.667 254.081 246.534 254.566 250.325C254.704 251.395 254.78 252.841 254.861 254.368C255.06 258.25 255.313 263.082 256.687 264.771C258.761 267.325 261.278 267.302 264.845 264.69L265.406 265.461C263.442 266.883 261.706 267.601 260.136 267.601Z" fill="white"/>
<path d="M263.489 265.503C263.667 265.015 263.912 264.554 264.217 264.133C264.508 263.723 264.949 263.444 265.444 263.358C265.692 263.329 265.942 263.377 266.161 263.498C266.379 263.618 266.554 263.804 266.662 264.029C266.756 264.264 266.785 264.521 266.746 264.772C266.708 265.023 266.603 265.259 266.443 265.456C266.133 265.819 265.702 266.058 265.23 266.131C264.771 266.191 264.306 266.191 263.846 266.131" fill="#263238"/>
<path d="M253.995 224.048C257.721 228.83 259.955 234.605 260.417 240.649H262.395C261.986 233.721 259.268 227.13 254.675 221.927C255.174 220.348 255.539 218.729 255.765 217.089C256.202 213.374 252.126 211.124 252.126 211.124V213.94C252.64 214.232 253.067 214.657 253.36 215.171C253.653 215.685 253.802 216.269 253.79 216.861C253.7 218.863 252.197 223.121 250.727 226.793C249.49 229.805 248.936 233.054 249.105 236.306C249.243 240.469 250.87 242.357 250.87 242.357L252.834 241.525C252.834 241.525 251.659 240.055 251.15 236.035C250.76 232.962 251.669 230.56 252.459 228.339C252.858 227.235 253.434 225.713 253.995 224.048Z" fill="#263238"/>
<path d="M197.142 265.813L194.764 274.884C194.365 276.324 194.346 277.843 194.711 279.292C195.075 280.741 195.81 282.071 196.843 283.151C196.971 283.279 197.104 283.408 197.238 283.527C198.48 284.638 200.007 285.381 201.648 285.673C203.289 285.964 204.979 285.793 206.528 285.177L231.163 275.374L227.524 264.267L208.873 269.58L197.142 265.813Z" fill="#A36957"/>
<path d="M217.368 250.696L221.835 274.48C221.928 274.982 222.199 275.434 222.598 275.753C222.997 276.071 223.498 276.236 224.008 276.216L258.134 274.898C258.697 274.876 259.228 274.632 259.612 274.219C259.996 273.807 260.202 273.259 260.184 272.696L259.404 250.225C259.385 249.673 259.152 249.149 258.754 248.766C258.357 248.382 257.825 248.168 257.273 248.17H219.461C219.147 248.169 218.838 248.238 218.554 248.371C218.27 248.504 218.019 248.698 217.819 248.94C217.619 249.181 217.475 249.464 217.397 249.767C217.319 250.071 217.309 250.388 217.368 250.696Z" fill="#455A64"/>
<path d="M254.652 260.38C254.013 260.378 253.388 260.57 252.86 260.93C252.332 261.29 251.925 261.801 251.693 262.397C251.217 263.686 250.475 265.189 249.676 265.622C248.197 266.431 245.638 267.077 244.296 266.416C242.955 265.755 237.57 260.917 236.628 261.455C235.687 261.992 234.878 263.201 235.82 264.28C236.762 265.36 241.728 268.585 240.776 269.665C239.825 270.745 229.36 266.002 227.729 266.421C226.097 266.84 225.174 267.848 226.116 268.481C227.058 269.113 234.202 271.81 234.588 272.762C234.588 272.762 223.828 269.936 223.424 270.612C223.019 271.287 222.349 272.357 223.424 272.762C224.499 273.166 233.784 275.587 234.588 275.992C235.923 276.547 237.316 276.952 238.74 277.2C239.031 277.2 241.119 277.909 243.074 278.575C245.252 279.331 247.631 279.269 249.767 278.399L250.856 277.951C251.681 277.613 252.38 277.026 252.855 276.271C253.33 275.516 253.557 274.632 253.505 273.742L253.287 270.074L254.462 267.044L254.652 260.38Z" fill="#A36957"/>
<path d="M246.032 279.088C246.032 279.088 265.668 296.864 272.28 296.916C279.249 296.969 283.173 289.738 282.431 285.243C282.032 282.865 281.004 270.312 281.004 270.312C276.338 269.037 269.364 268.466 264.393 271.772L266.206 279.088L253.096 272.752L246.032 279.088Z" fill="#A36957"/>
<path d="M284.72 271.125C284.644 271.122 284.569 271.109 284.496 271.087L283.859 270.935C283.312 270.802 282.517 270.607 281.532 270.383C278.978 269.768 276.359 269.464 273.731 269.479C272.294 269.525 270.863 269.684 269.45 269.955C268.291 270.158 267.157 270.491 266.073 270.949C265.345 271.265 264.666 271.683 264.056 272.191C263.633 272.557 263.428 272.795 263.409 272.781C263.444 272.713 263.489 272.65 263.542 272.595C263.683 272.427 263.834 272.268 263.994 272.119C264.59 271.574 265.267 271.127 266.002 270.792C267.089 270.301 268.233 269.945 269.407 269.732C270.837 269.44 272.288 269.27 273.746 269.223C276.392 269.202 279.03 269.531 281.59 270.203C282.574 270.45 283.364 270.678 283.906 270.835L284.524 271.03C284.648 271.092 284.724 271.116 284.72 271.125Z" fill="#263238"/>
<path d="M342 317.566C342 317.633 272.822 317.69 187.51 317.69C102.197 317.69 33 317.633 33 317.566C33 317.499 102.163 317.442 187.51 317.442C272.856 317.442 342 317.499 342 317.566Z" fill="#263238"/>
<path d="M300.711 296.242C301.715 297.669 303.636 297.169 304.516 296.299C305.396 295.428 305.767 294.172 306.1 292.969C306.866 290.238 307.632 287.37 307.028 284.602C306.883 283.761 306.508 282.977 305.943 282.338C305.658 282.022 305.295 281.786 304.89 281.654C304.485 281.522 304.053 281.499 303.636 281.586C302.685 281.852 302.076 282.808 301.648 283.712C300.387 286.39 299.737 289.315 299.745 292.274C299.745 293.649 299.926 295.095 300.697 296.223" fill="#3C8AFF"/>
<g opacity="0.2">
<path d="M300.711 296.242C301.715 297.669 303.636 297.169 304.516 296.299C305.396 295.428 305.767 294.172 306.1 292.969C306.866 290.238 307.632 287.37 307.028 284.602C306.883 283.761 306.508 282.977 305.943 282.338C305.658 282.022 305.295 281.786 304.89 281.654C304.485 281.522 304.053 281.499 303.636 281.586C302.685 281.852 302.076 282.808 301.648 283.712C300.387 286.39 299.737 289.315 299.745 292.274C299.745 293.649 299.926 295.095 300.697 296.223" fill="black"/>
</g>
<path d="M304.488 303.377C306.142 302.587 308.006 302.345 309.806 302.687C310.791 302.767 311.72 303.174 312.446 303.843C313.108 304.562 313.241 305.836 312.494 306.464C312.01 306.798 311.424 306.952 310.839 306.902C309.412 306.902 307.866 306.659 306.748 307.516C306.11 307.991 305.692 308.809 304.926 309.052C304.543 309.143 304.141 309.107 303.78 308.95C303.419 308.793 303.118 308.523 302.923 308.181C302.552 307.478 302.465 306.659 302.681 305.893C302.767 305.363 302.975 304.859 303.289 304.423C303.602 303.986 304.013 303.628 304.488 303.377Z" fill="#3C8AFF"/>
<path d="M298.019 298.291C298.526 297.621 298.86 296.837 298.994 296.008C299.127 295.179 299.055 294.33 298.785 293.534C298.225 291.948 297.237 290.547 295.931 289.486C294.453 288.195 292.739 287.202 290.884 286.561C290.165 286.28 289.395 286.155 288.624 286.195C288.236 286.219 287.86 286.337 287.528 286.541C287.196 286.744 286.919 287.025 286.722 287.36C286.203 288.369 286.722 289.586 287.274 290.581C288.251 292.332 289.364 294.003 290.603 295.58C291.597 296.845 292.744 298.096 294.252 298.658C295.76 299.219 297.329 299.133 298.119 298.091" fill="#3C8AFF"/>
<path d="M300.82 317.576C300.872 317.364 300.901 317.147 300.906 316.929C300.949 316.453 301.001 315.877 301.063 315.178C301.143 314.313 301.268 313.452 301.439 312.6C301.66 311.564 301.964 310.548 302.347 309.56C302.724 308.572 303.239 307.643 303.879 306.801C304.397 306.115 305.062 305.553 305.824 305.156C306.342 304.894 306.897 304.716 307.47 304.628C307.685 304.617 307.899 304.585 308.108 304.532C307.893 304.509 307.676 304.509 307.461 304.532C306.862 304.584 306.279 304.745 305.739 305.008C304.936 305.392 304.234 305.959 303.689 306.664C303.023 307.519 302.488 308.468 302.1 309.48C301.711 310.483 301.409 311.517 301.196 312.571C301.038 313.433 300.932 314.304 300.877 315.178C300.825 315.925 300.811 316.529 300.801 316.943C300.786 317.154 300.792 317.366 300.82 317.576Z" fill="#263238"/>
<path d="M300.93 316.225C300.942 316.126 300.942 316.025 300.93 315.925C300.93 315.702 300.93 315.421 300.93 315.074C300.93 314.332 300.93 313.262 300.93 311.939C300.977 309.294 301.177 305.641 301.586 301.627C301.995 297.612 302.538 294.016 303.07 291.404C303.194 290.753 303.313 290.167 303.432 289.654C303.551 289.14 303.636 288.702 303.727 288.341C303.817 287.979 303.869 287.727 303.922 287.508C303.958 287.502 303.99 287.482 304.013 287.453C304.035 287.423 304.046 287.387 304.042 287.35C304.039 287.313 304.022 287.279 303.995 287.254C303.968 287.23 303.932 287.216 303.896 287.216C303.859 287.216 303.823 287.23 303.796 287.254C303.769 287.279 303.752 287.313 303.749 287.35C303.745 287.387 303.756 287.423 303.778 287.453C303.801 287.482 303.833 287.502 303.869 287.508C303.803 287.722 303.727 287.984 303.627 288.327C303.527 288.669 303.413 289.121 303.284 289.635C303.156 290.148 303.023 290.729 302.885 291.38C302.182 294.762 301.66 298.179 301.32 301.617C300.911 305.641 300.739 309.299 300.744 311.953C300.744 313.281 300.778 314.332 300.816 315.093C300.816 315.435 300.858 315.721 300.873 315.944C300.882 316.04 300.901 316.134 300.93 316.225Z" fill="#263238"/>
<path d="M300.892 309.147C300.916 308.851 300.916 308.554 300.892 308.258C300.854 307.687 300.769 306.859 300.597 305.846C300.134 303.215 299.355 300.65 298.276 298.207C297.238 295.728 295.757 293.46 293.905 291.514C293.586 291.174 293.244 290.856 292.882 290.562C292.725 290.429 292.587 290.301 292.449 290.196L292.049 289.93C291.812 289.752 291.561 289.592 291.298 289.454C292.166 290.127 292.992 290.853 293.771 291.628C295.568 293.587 297.016 295.84 298.052 298.287C298.645 299.623 299.149 300.996 299.56 302.397C299.907 303.541 300.196 304.702 300.426 305.874C300.616 306.873 300.731 307.692 300.797 308.253C300.808 308.553 300.839 308.852 300.892 309.147Z" fill="#263238"/>
<path d="M280.076 133.916H279.957C278.877 133.916 278.002 134.791 278.002 135.871V155.008C278.002 156.087 278.877 156.963 279.957 156.963H280.076C281.156 156.963 282.031 156.087 282.031 155.008V135.871C282.031 134.791 281.156 133.916 280.076 133.916Z" fill="#3B8AFF"/>
<path d="M280.076 140.804H279.957C278.877 140.804 278.002 141.679 278.002 142.759V155.007C278.002 156.087 278.877 156.962 279.957 156.962H280.076C281.156 156.962 282.031 156.087 282.031 155.007V142.759C282.031 141.679 281.156 140.804 280.076 140.804Z" fill="#3C8AFF"/>
<path d="M286.674 133.916H286.555C285.475 133.916 284.6 134.791 284.6 135.871V155.008C284.6 156.087 285.475 156.963 286.555 156.963H286.674C287.753 156.963 288.629 156.087 288.629 155.008V135.871C288.629 134.791 287.753 133.916 286.674 133.916Z" fill="#3B8AFF"/>
<path d="M286.674 144.377H286.555C285.475 144.377 284.6 145.252 284.6 146.332V155.008C284.6 156.088 285.475 156.963 286.555 156.963H286.674C287.753 156.963 288.629 156.088 288.629 155.008V146.332C288.629 145.252 287.753 144.377 286.674 144.377Z" fill="#3C8AFF"/>
<path d="M294.137 133.916H294.019C292.939 133.916 292.063 134.791 292.063 135.871V155.008C292.063 156.087 292.939 156.963 294.019 156.963H294.137C295.217 156.963 296.092 156.087 296.092 155.008V135.871C296.092 134.791 295.217 133.916 294.137 133.916Z" fill="#3B8AFF"/>
<path d="M294.137 138.083H294.019C292.939 138.083 292.063 138.958 292.063 140.038V155.012C292.063 156.092 292.939 156.967 294.019 156.967H294.137C295.217 156.967 296.092 156.092 296.092 155.012V140.038C296.092 138.958 295.217 138.083 294.137 138.083Z" fill="#3C8AFF"/>
<path d="M280.076 156.968C280.076 156.968 280.257 156.968 280.581 156.872C281.051 156.738 281.451 156.428 281.698 156.007C281.879 155.709 281.973 155.366 281.969 155.017C281.969 154.622 281.969 154.199 281.969 153.742C281.969 152.829 281.969 151.787 281.969 150.641C281.969 148.339 281.969 145.604 281.969 142.555C281.969 141.037 281.969 139.444 281.969 137.798V136.552C281.999 136.142 281.972 135.731 281.889 135.329C281.763 134.938 281.512 134.599 281.173 134.366C280.835 134.133 280.429 134.018 280.019 134.04C279.611 134.042 279.215 134.181 278.894 134.433C278.572 134.685 278.344 135.037 278.245 135.434C278.185 135.843 278.165 136.257 278.188 136.67V137.902C278.188 139.553 278.188 141.147 278.188 142.659C278.188 145.694 278.188 148.429 278.188 150.746C278.188 151.892 278.188 152.929 278.188 153.847C278.188 154.323 278.188 154.732 278.188 155.117C278.208 155.458 278.321 155.788 278.516 156.069C278.793 156.471 279.21 156.756 279.686 156.868C280.014 156.934 280.195 156.92 280.195 156.934C280.024 156.964 279.848 156.964 279.677 156.934C279.178 156.839 278.734 156.556 278.435 156.145C278.22 155.845 278.093 155.49 278.069 155.122C278.069 154.722 278.069 154.304 278.069 153.847C278.069 152.929 278.069 151.892 278.069 150.746C278.069 148.443 278.069 145.708 278.04 142.659C278.04 141.137 278.04 139.544 278.04 137.902C278.04 137.489 278.04 137.07 278.04 136.651V136.038C278.033 135.814 278.054 135.59 278.102 135.372C278.216 134.922 278.476 134.523 278.841 134.238C279.206 133.952 279.656 133.795 280.119 133.793C280.584 133.775 281.043 133.907 281.427 134.168C281.802 134.435 282.081 134.815 282.222 135.253C282.284 135.47 282.316 135.694 282.317 135.919V136.552C282.317 136.975 282.317 137.389 282.317 137.803C282.317 139.458 282.317 141.051 282.317 142.559C282.317 145.594 282.317 148.329 282.288 150.646C282.288 151.792 282.288 152.834 282.288 153.747C282.288 154.223 282.288 154.627 282.288 155.022C282.283 155.389 282.178 155.748 281.984 156.059C281.829 156.297 281.624 156.498 281.383 156.649C281.143 156.799 280.872 156.895 280.59 156.93C280.422 156.972 280.248 156.985 280.076 156.968Z" fill="#263238"/>
<path d="M286.669 156.968C286.669 156.968 286.849 156.968 287.173 156.873C287.577 156.761 287.933 156.518 288.185 156.183C288.437 155.847 288.571 155.438 288.567 155.018C288.567 154.623 288.567 154.2 288.567 153.743C288.567 152.83 288.567 151.788 288.567 150.642C288.567 148.339 288.567 145.604 288.567 142.555C288.567 141.038 288.567 139.444 288.567 137.798V136.552C288.594 136.143 288.565 135.731 288.481 135.33C288.352 134.941 288.102 134.604 287.766 134.37C287.431 134.135 287.029 134.014 286.62 134.026C286.211 134.038 285.817 134.181 285.495 134.435C285.174 134.689 284.943 135.039 284.837 135.434C284.779 135.844 284.761 136.258 284.785 136.671C284.785 137.09 284.785 137.508 284.785 137.922C284.785 139.573 284.785 141.166 284.785 142.679C284.785 145.714 284.785 148.449 284.756 150.765C284.756 151.912 284.756 152.949 284.756 153.867C284.756 154.342 284.756 154.752 284.756 155.137C284.781 155.477 284.894 155.805 285.085 156.088C285.363 156.491 285.782 156.776 286.26 156.887C286.583 156.954 286.769 156.94 286.764 156.954C286.592 156.983 286.417 156.983 286.245 156.954C285.815 156.872 285.425 156.649 285.134 156.321C284.844 155.993 284.671 155.578 284.642 155.142C284.642 154.742 284.642 154.323 284.642 153.867C284.642 152.949 284.642 151.912 284.642 150.765C284.642 148.463 284.642 145.728 284.618 142.679C284.618 141.157 284.618 139.563 284.618 137.922V136.019C284.609 135.796 284.63 135.572 284.68 135.353C284.793 134.904 285.053 134.504 285.418 134.218C285.783 133.932 286.233 133.776 286.697 133.774C287.161 133.756 287.618 133.888 288.001 134.15C288.378 134.415 288.659 134.795 288.8 135.234C288.862 135.451 288.893 135.675 288.89 135.9V137.803C288.89 139.458 288.89 141.052 288.89 142.56C288.89 145.595 288.89 148.33 288.866 150.646C288.866 151.793 288.866 152.835 288.866 153.748C288.866 154.224 288.866 154.628 288.866 155.023C288.862 155.39 288.754 155.749 288.557 156.06C288.29 156.493 287.863 156.804 287.368 156.925C287.141 156.993 286.902 157.008 286.669 156.968Z" fill="#263238"/>
<path d="M294.132 156.967C294.132 156.967 294.313 156.967 294.636 156.872C295.041 156.76 295.397 156.517 295.649 156.182C295.901 155.846 296.035 155.437 296.03 155.017C296.03 154.622 296.03 154.199 296.03 153.742C296.03 152.829 296.03 151.787 296.03 150.641C296.03 148.339 296.03 145.603 296.002 142.554C296.002 141.037 296.002 139.443 296.002 137.798V136.551C296.029 136.142 296.001 135.73 295.916 135.329C295.787 134.94 295.537 134.604 295.202 134.369C294.866 134.134 294.464 134.014 294.055 134.025C293.646 134.037 293.252 134.18 292.931 134.434C292.609 134.688 292.379 135.038 292.272 135.433C292.214 135.843 292.195 136.257 292.215 136.67V137.902C292.215 139.553 292.215 141.146 292.215 142.659C292.215 145.694 292.215 148.429 292.187 150.746C292.187 151.892 292.187 152.929 292.187 153.847C292.187 154.323 292.187 154.732 292.187 155.117C292.209 155.458 292.322 155.786 292.515 156.068C292.793 156.47 293.21 156.755 293.685 156.867C294.013 156.934 294.194 156.92 294.194 156.934C294.022 156.964 293.847 156.964 293.676 156.934C293.246 156.852 292.855 156.629 292.565 156.301C292.275 155.974 292.102 155.559 292.073 155.122C292.073 154.722 292.073 154.304 292.073 153.847C292.073 152.929 292.073 151.892 292.073 150.746C292.073 148.443 292.073 145.708 292.073 142.659C292.073 141.137 292.073 139.543 292.073 137.902V136C292.063 135.776 292.084 135.552 292.134 135.334C292.247 134.884 292.507 134.484 292.872 134.198C293.237 133.912 293.687 133.756 294.151 133.754C294.614 133.732 295.07 133.864 295.45 134.128C295.831 134.392 296.113 134.774 296.254 135.215C296.316 135.431 296.347 135.655 296.344 135.881V137.783C296.344 139.439 296.344 141.032 296.344 142.54C296.344 145.575 296.344 148.31 296.344 150.627C296.344 151.773 296.344 152.815 296.344 153.728C296.344 154.204 296.344 154.608 296.344 155.003C296.339 155.371 296.232 155.73 296.035 156.04C295.767 156.473 295.34 156.784 294.846 156.906C294.616 156.982 294.372 157.003 294.132 156.967Z" fill="#263238"/>
<path d="M287.05 119.009C287.194 118.997 287.339 118.997 287.483 119.009L288.762 119.042C289.043 119.042 289.362 119.042 289.714 119.085L290.841 119.246L292.159 119.432L293.628 119.798C296.161 120.437 298.572 121.488 300.763 122.909C304.009 124.971 306.74 127.749 308.745 131.03C310.75 134.311 311.977 138.008 312.332 141.836C312.431 142.983 312.453 144.135 312.399 145.285C312.361 145.87 312.37 146.46 312.284 147.05C312.199 147.64 312.108 148.23 312.018 148.829C311.573 151.273 310.772 153.639 309.64 155.85C308.419 158.167 306.866 160.294 305.03 162.162C303.087 164.079 300.858 165.684 298.423 166.919C295.905 168.21 293.179 169.047 290.37 169.392C289.658 169.501 288.94 169.561 288.22 169.573C287.498 169.629 286.774 169.641 286.051 169.611C281.412 169.432 276.912 167.982 273.041 165.42L273.303 165.449L264.484 168.988L263.965 169.197L264.113 168.655L266.705 159.227L266.748 159.455C264.355 156.284 262.743 152.593 262.043 148.681C261.706 146.853 261.592 144.991 261.706 143.135C261.723 142.247 261.805 141.361 261.953 140.485C262.024 140.053 262.091 139.62 262.158 139.192C262.224 138.764 262.362 138.359 262.462 137.945C263.946 132.161 267.431 127.09 272.299 123.632C274.099 122.338 276.07 121.299 278.155 120.545L279.472 120.069L280.733 119.732L281.874 119.446C282.245 119.375 282.597 119.337 282.93 119.289C283.596 119.204 284.181 119.09 284.695 119.061L285.994 119.018H286.783C286.874 119.011 286.964 119.011 287.054 119.018C286.966 119.044 286.875 119.057 286.783 119.056L285.998 119.118L284.709 119.204C284.2 119.246 283.62 119.375 282.959 119.47C278.175 120.299 273.734 122.497 270.174 125.799C266.615 129.102 264.089 133.365 262.904 138.074C262.809 138.483 262.686 138.887 262.609 139.301C262.533 139.715 262.481 140.143 262.419 140.571C262.276 141.431 262.198 142.301 262.186 143.173C262.086 144.985 262.206 146.803 262.543 148.586C263.244 152.413 264.834 156.022 267.185 159.123L267.262 159.232L267.228 159.356C266.397 162.403 265.54 165.549 264.655 168.793L264.284 168.46C267.157 167.303 270.095 166.12 273.098 164.912L273.236 164.854L273.36 164.935C277.146 167.436 281.545 168.852 286.079 169.031C286.787 169.059 287.495 169.046 288.201 168.993C288.903 168.982 289.604 168.923 290.299 168.817C293.045 168.484 295.712 167.669 298.176 166.41C300.558 165.206 302.742 163.644 304.65 161.777C306.441 159.943 307.958 157.86 309.154 155.593C310.279 153.43 311.08 151.115 311.533 148.719C311.622 148.133 311.712 147.552 311.804 146.978C311.89 146.403 311.88 145.823 311.923 145.252C311.978 144.123 311.959 142.991 311.866 141.865C311.532 138.094 310.342 134.45 308.388 131.208C306.434 127.966 303.766 125.212 300.587 123.157C298.435 121.736 296.068 120.673 293.576 120.008L292.125 119.622L290.822 119.408L289.699 119.223C289.357 119.185 289.043 119.175 288.748 119.156L287.473 119.061C287.331 119.056 287.189 119.039 287.05 119.009Z" fill="#263238"/>
</svg>
